<?xml version="1.0" encoding="UTF-8"?>
<svg id="Layer_2" data-name="Layer 2" xmlns="http://www.w3.org/2000/svg" viewBox="0 0 903.79 196.33">
  <defs>
    <style>
      .cls-1 {
        fill: #001928;
        stroke-width: 0px;
      }
    </style>
  </defs>
  <g id="Layer_1-2" data-name="Layer 1">
    <g>
      <path class="cls-1" d="m828.61,86.87c-.27.39-.31.89-.25,1.4,0,.01,0,.02,0,.03.06.5.39.88.73,1,.55.36,1.11.71,1.65,1.1.74.53,1.44,1.22,2.14,1.86,1.25,1.15,2.44,2.39,3.62,3.67,6.25,6.88,11.85,14.83,17.4,22.82,2.22,3.19,4.43,6.39,6.66,9.59.97,1.39,1.95,2.77,2.9,4.19,6.52,9.66,13.02,19.36,19.51,29.05,1.83,2.72,3.65,5.43,5.51,8.08,1.52,2.19,3.05,4.36,4.57,6.55,2.14,3.08,4.44,5.93,6.67,8.88.96,1.27,2.44,1.34,3.37-.03.44-.64.69-1.53.68-2.43,0-.96-.29-1.71-.72-2.42-1.05-1.71-2.1-3.42-3.15-5.12-.73-1.18-1.42-2.39-2.18-3.53-.71-1.08-1.43-2.16-2.14-3.23-1.78-2.68-3.56-5.37-5.34-8.06-1.26-1.9-2.6-3.7-3.9-5.55-2.02-2.87-4.03-5.74-6.05-8.6-3.04-4.32-6.17-8.51-9.26-12.75-1.44-1.97-2.87-3.96-4.32-5.93-1.17-1.58-2.37-3.1-3.56-4.66-3.37-4.42-6.75-8.84-10.12-13.25-1.14-1.5-2.37-2.9-3.55-4.33-2.09-2.52-4.2-5-6.38-7.37-2.02-2.2-4.11-4.26-6.27-6.19-1.12-1-2.26-1.93-3.43-2.82-.53-.4-1.06-.78-1.6-1.14-.73-.48-1.5-.82-2.25-1.21-.08-.05-.17-.07-.26-.07-.26,0-.54.19-.71.44h0Z"/>
      <path class="cls-1" d="m792.6,64.59c-.5,1.25-.62,2.76-.34,4.15.23,1.13.65,1.91,1.22,2.61.39.92.74,1.89,1.18,2.77.63,1.24,1.26,2.49,1.89,3.74,1.04,2.07,2.08,4.14,3.13,6.2,2.24,4.41,4.6,8.72,6.89,13.08,1.7,3.22,3.47,6.34,5.23,9.48,2.65,4.7,5.3,9.38,7.95,14.08,1.74,3.08,3.61,6.01,5.41,9.01,2.54,4.22,5.09,8.45,7.63,12.66.54.9,1.12,1.75,1.67,2.63,1.56,2.42,3.11,4.85,4.67,7.27,1.56,2.42,3.11,4.85,4.67,7.28.57.88,1.12,1.81,1.72,2.65,3.55,5.01,7.04,10.11,10.65,15.03,1.87,2.54,3.87,4.93,5.79,7.39.85,1.08,1.71,2.18,2.56,3.27,2.05,2.61,4.25,5.02,6.37,7.52.97,1.14,2.31,1.34,3.24-.03.91-1.32.8-3.33-.04-4.66-3.63-5.7-7.26-11.35-10.94-16.96-1.99-3.06-3.99-6.11-5.97-9.18-2.26-3.48-4.55-6.9-6.77-10.43-2.76-4.36-5.5-8.73-8.25-13.1-1.64-2.61-3.3-5.19-4.9-7.85-2.95-4.9-5.89-9.79-8.83-14.69-1.5-2.49-3-4.97-4.44-7.53-2.85-5.07-5.71-10.15-8.56-15.22-.35-.61-.69-1.21-1.03-1.82-2.65-5-5.27-10.04-7.91-15.05-1.03-1.96-2.02-3.96-3.03-5.95-.76-1.48-1.51-2.96-2.26-4.43-.2-.4-.4-.79-.6-1.19-.34-.69-.6-1.42-.95-2.1-.59-1.1-1.13-1.85-1.95-2.6-.56-.52-1.19-.75-1.81-.74-1.32.01-2.63,1.06-3.29,2.71h0Z"/>
      <path class="cls-1" d="m772.12,68.86c-1.23,1.8-1.13,4.61.05,6.4,9.73,14.61,19.43,29.27,29.19,43.85,4.86,7.28,9.73,14.55,14.6,21.82,2.49,3.73,4.96,7.46,7.47,11.17,2.63,3.9,5.32,7.72,7.98,11.57,2.84,4.11,5.81,8.03,8.74,12,1.04,1.41,2.68,1.45,3.69-.03.48-.7.75-1.66.74-2.66,0-1.06-.32-1.86-.79-2.65-2.25-3.78-4.44-7.67-6.77-11.36-1.39-2.2-2.78-4.4-4.18-6.6-1.89-3-3.76-6.01-5.7-8.94-4.69-7.07-9.36-14.17-14.13-21.14-10-14.66-20.01-29.3-30-43.99-2.15-3.16-4.3-6.33-6.45-9.51-.6-.88-1.4-1.29-2.21-1.29-.83,0-1.65.46-2.25,1.33h0Z"/>
      <path class="cls-1" d="m747.12,73.35c-1.39,2.04-1.48,5.7.06,7.68,3.58,4.62,7.12,9.27,10.66,13.95,2.02,2.67,4.05,5.32,6.02,8.07,5.18,7.2,10.37,14.41,15.51,21.67,5.36,7.58,10.73,15.14,16.16,22.62,2.21,3.03,4.37,6.14,6.65,9.08,1.77,2.29,3.54,4.57,5.3,6.85,1.34,1.73,2.66,3.48,4.04,5.13,1.95,2.33,3.92,4.63,5.88,6.95.55.64,1.1,1.07,1.83,1.06.68,0,1.33-.4,1.81-1.09,1-1.47.93-3.76-.04-5.22-2.29-3.46-4.55-6.96-6.89-10.34-1.65-2.39-3.3-4.77-4.95-7.15-2.04-2.93-4.08-5.87-6.13-8.78-5.35-7.58-10.68-15.17-15.99-22.8-5.23-7.5-10.49-14.95-15.75-22.39-1.9-2.69-3.8-5.39-5.76-8-3.06-4.09-6.12-8.17-9.19-12.28-1.27-1.71-2.59-3.37-3.89-5.06-.78-1.01-1.77-1.55-2.74-1.54-.94,0-1.87.52-2.6,1.58h0Z"/>
      <path class="cls-1" d="m709.39,49.24c-1.66,2.44-1.68,6.6.08,9,5.85,8,11.59,16.16,17.34,24.3,5.07,7.18,10.12,14.4,15.15,21.64,5.92,8.51,11.84,17.03,17.75,25.54,2.3,3.31,4.61,6.61,6.93,9.89,2.73,3.83,5.42,7.73,8.23,11.46,1.52,2.02,3.04,4.06,4.56,6.09,1.96,2.63,4.04,5.09,6.07,7.6,1.01,1.26,2.48,1.4,3.46-.03.45-.65.7-1.56.7-2.48,0-1.01-.3-1.72-.74-2.47-2.01-3.48-4-6.97-6.09-10.34-1.53-2.47-3.07-4.95-4.6-7.43-.98-1.59-2.03-3.1-3.04-4.64-1.74-2.65-3.48-5.3-5.22-7.94-4.52-6.88-9.17-13.59-13.78-20.36-11.02-16.21-22.03-32.42-33.01-48.69-2.51-3.72-5.01-7.44-7.51-11.18-.83-1.24-1.97-1.83-3.1-1.82-1.16,0-2.33.65-3.17,1.87h0Z"/>
      <path class="cls-1" d="m672.35,52.07c-.91,1.32-1.41,3.14-1.4,5,.01,1.71.52,3.85,1.48,4.97,4.15,4.82,8.16,9.92,12.2,14.93,2.98,3.69,5.87,7.51,8.79,11.26,6.56,8.45,13.03,17.02,19.51,25.6,5.81,7.69,11.59,15.43,17.38,23.15,3.11,4.14,6.28,8.18,9.42,12.28,2.82,3.67,5.71,7.21,8.61,10.74,1.24,1.51,2.47,3.02,3.71,4.52.85,1.04,1.77,1.98,2.67,2.95,1.52,1.65,3.05,3.31,4.57,4.96,2.07,2.24,4.26,4.26,6.42,6.34.95.92,2.34.51,3.11-.6.99-1.45.93-3.77-.04-5.21-3.69-5.4-7.39-10.75-11.2-15.97-2.98-4.1-5.97-8.19-8.96-12.26-6.02-8.16-12.05-16.33-18.05-24.52-6.41-8.72-12.84-17.44-19.27-26.15-6.17-8.37-12.41-16.63-18.64-24.9-4.39-5.81-8.89-11.46-13.36-17.13-1-1.27-2.14-2.05-3.49-2.04-1.3.01-2.55.77-3.45,2.09h0Z"/>
      <path class="cls-1" d="m651.16,51.6c-.76,1.12-1.19,2.65-1.17,4.21.02,2.21.85,3.94,2.09,5.12.99.94,1.95,1.95,2.9,2.97,3,3.42,5.98,6.86,8.98,10.28,2.83,3.25,5.59,6.65,8.38,9.98,6.02,7.18,11.93,14.53,17.87,21.86,5.42,6.71,10.71,13.64,16.06,20.46,2.67,3.41,5.37,6.78,8.06,10.17,4.51,5.69,9.09,11.26,13.69,16.82.33.4.65.8.98,1.19,1.06,1.28,2.57,1.46,3.59-.03.97-1.43.94-3.75-.04-5.16-4.39-6.29-8.77-12.6-13.25-18.77-2.69-3.72-5.34-7.51-8.08-11.15-5.2-6.86-10.3-13.88-15.59-20.59-5.8-7.37-11.59-14.76-17.46-22.01-5.92-7.3-11.87-14.54-17.87-21.69-1.07-1.28-2.19-2.46-3.27-3.72-.89-1.03-1.76-1.72-2.94-1.71-1.09,0-2.15.65-2.91,1.76h0Z"/>
      <path class="cls-1" d="m584.54,25.22c-.77,1.12-1.19,2.65-1.18,4.22.01,1.45.44,3.24,1.25,4.2,12.19,14.28,24.04,29.14,35.95,43.91,5.38,6.68,10.77,13.34,16.19,19.97,5.6,6.85,11.17,13.75,16.85,20.47,3.51,4.15,7.02,8.31,10.52,12.46,1.53,1.81,3.04,3.62,4.62,5.36,3.44,3.78,6.88,7.56,10.31,11.34.87.96,1.76,1.94,2.64,2.9,3.72,4.06,7.65,7.75,11.48,11.59.97.96,2.42.5,3.19-.62.94-1.37,1.06-4.02-.04-5.34-7.96-9.54-15.9-19.12-23.86-28.67-5.81-6.96-11.5-14.12-17.27-21.16-6.25-7.62-12.4-15.39-18.6-23.09-5.75-7.14-11.45-14.38-17.18-21.58-9.61-12.08-19.16-24.29-29-36.01-.88-1.04-1.78-1.72-2.95-1.71-1.09,0-2.15.64-2.91,1.76h0Z"/>
      <path class="cls-1" d="m588.79,44.85c-1.65,2.41-1.71,6.64.08,9,2,2.66,3.87,5.54,5.77,8.34,1.88,2.76,3.76,5.53,5.64,8.29,2.14,3.16,4.28,6.32,6.43,9.44,5.54,8.02,11.05,16.07,16.62,24.04,5.66,8.1,11.29,16.23,17.01,24.25,3.58,5.03,7.18,10.05,10.75,15.08,2.48,3.47,5.05,6.82,7.59,10.23,1.61,2.17,3.23,4.34,4.84,6.51.93,1.25,1.91,2.43,2.87,3.62,2.21,2.76,4.43,5.49,6.63,8.24,1.08,1.35,2.67,1.5,3.71-.03,1.03-1.5.94-3.84-.04-5.33-12.05-18.24-24.29-36.23-36.55-54.16-11.42-16.7-22.87-33.37-34.03-50.42-1.84-2.81-3.68-5.62-5.52-8.44-1.87-2.85-3.78-5.68-5.51-8.7-.71-1.24-2.08-1.85-3.15-1.84-1.17,0-2.31.7-3.13,1.9h0Z"/>
      <path class="cls-1" d="m552.06,53.97c-.93.8-1.62,2.11-1.9,3.61-.3,1.64-.07,3.16.46,4.63.99,2.78,2.72,4.41,4.34,6.35.42.5.81,1.07,1.22,1.6,1.74,2.34,3.5,4.68,5.25,7.01,2.26,3.01,4.5,6.07,6.8,9.02,5.51,7.09,11,14.24,16.57,21.23,5.73,7.19,11.41,14.48,17.21,21.57,3.69,4.49,7.37,8.99,11.05,13.5,2.05,2.49,4.08,5.01,6.17,7.43,3.16,3.66,6.31,7.33,9.47,10.99,4.24,4.93,8.65,9.57,13,14.29.9.98,2.36.45,3.08-.6.94-1.37.99-3.83-.04-5.18-12.77-16.57-25.66-32.95-38.49-49.42-3.23-4.16-6.47-8.31-9.7-12.47-2.56-3.29-5.16-6.53-7.69-9.88-2.97-3.93-5.96-7.83-8.94-11.75-2.4-3.16-4.85-6.25-7.2-9.48-2.49-3.42-4.98-6.86-7.47-10.28-1.17-1.6-2.33-3.22-3.5-4.82-.2-.28-.4-.55-.6-.83-1-1.36-2.18-2.44-3.13-3.87-.07-.18-.14-.36-.2-.56-.47-1.34-1.54-2.36-2.53-2.74-.36-.14-.74-.21-1.11-.21-.74,0-1.48.29-2.12.84h0Z"/>
      <path class="cls-1" d="m531.65,49.53c-.95,1.38-1.48,3.27-1.46,5.22.01,1.8.54,4,1.55,5.2,4.22,5,8.41,10.05,12.62,15.09,2.88,3.45,5.67,7.03,8.49,10.57,6.68,8.34,13.29,16.8,19.89,25.27,6.42,8.25,12.87,16.45,19.32,24.65,2.38,3.03,4.8,6,7.22,8.98,4.17,5.1,8.32,10.25,12.58,15.19,2.33,2.7,4.67,5.39,7,8.09,1.03,1.19,2.44,1.42,3.43-.03.93-1.35.91-3.6-.04-4.93-7.65-10.78-15.3-21.57-22.96-32.35-5.88-8.27-11.72-16.59-17.68-24.75-6.27-8.56-12.5-17.18-18.88-25.56-3.53-4.65-7.07-9.28-10.61-13.92-3.24-4.24-6.57-8.36-9.85-12.54-1.12-1.43-2.25-2.83-3.37-4.24-1.06-1.32-2.22-2.14-3.65-2.13-1.36.01-2.66.8-3.61,2.19h0Z"/>
      <path class="cls-1" d="m488.76,34.58c-1.03,1.49-1.6,3.54-1.59,5.65.03,2.95,1.15,5.27,2.81,6.86.08.08.17.16.25.24,4.59,5.31,9.08,10.8,13.59,16.27,2.91,3.52,5.85,6.96,8.81,10.39,7.87,9.15,15.75,18.28,23.65,27.37,7.52,8.66,14.97,17.44,22.44,26.21,6.58,7.75,13.1,15.6,19.77,23.19,1.81,2.07,3.62,4.13,5.43,6.2,2.89,3.29,5.93,6.33,8.9,9.46,1.03,1.09,2.66.53,3.49-.68,1.09-1.59,1.1-4.3-.05-5.86-2.89-3.96-5.75-7.97-8.73-11.8-2.32-2.98-4.64-5.96-6.96-8.95-3.44-4.42-7-8.65-10.51-12.96-7.05-8.67-14.17-17.2-21.27-25.78-6.44-7.78-12.99-15.39-19.36-23.29-4.51-5.57-9.01-11.16-13.52-16.74-2.99-3.71-5.85-7.57-8.76-11.42-1.69-2.25-3.39-4.5-5.08-6.75-.4-.53-.8-1.06-1.2-1.59-1.46-1.94-2.97-3.94-4.28-6.09-.94-1.53-2.57-2.32-3.95-2.31-1.47.01-2.88.88-3.9,2.38h0Z"/>
      <path class="cls-1" d="m449.5,26.15c-.74,1.09-1.16,2.57-1.15,4.1.01,1.38.41,3.21,1.21,4.09,2.02,2.2,4.04,4.4,6.01,6.68,1.91,2.21,3.82,4.42,5.72,6.63,2.16,2.5,4.33,4.99,6.45,7.55,5.39,6.51,10.78,13.04,16.19,19.53,3.74,4.5,7.49,9,11.24,13.51,1.88,2.26,3.74,4.55,5.65,6.76,3.41,3.93,6.81,7.85,10.22,11.78,2.8,3.24,5.56,6.55,8.42,9.66,0,0,0,0,0,0-.12-.13-.24-.26-.36-.4.12.13.24.27.36.4,0,0,0,0,0,0,5.32,5.83,10.64,11.65,15.97,17.46-.05-.05-.09-.1-.14-.16,4.14,4.5,8.44,8.71,12.66,13.05.87.91,2.22.46,2.92-.56.86-1.26.97-3.69-.04-4.9-14.17-16.94-28.34-33.9-42.47-50.93-10.71-12.89-21.31-25.96-31.94-38.99-7-8.57-14.15-16.87-21.21-25.34-.85-1.02-1.73-1.69-2.87-1.68-1.07,0-2.1.63-2.84,1.73h0Zm70.1,90.44c-.09-.1-.18-.2-.26-.29.09.1.18.19.26.29h0Zm-.54-.59s.03.03.04.05c-.07-.07-.13-.15-.2-.22.05.06.11.12.16.17h0Zm.27.3c-.09-.1-.18-.2-.27-.3-.1-.1-.19-.21-.29-.31.19.2.37.4.56.61h0Z"/>
      <path class="cls-1" d="m403.42,8.14c-1.16.47-2.17,1.6-2.77,3.12-.87,2.19-.72,4.6.06,6.79.94,2.66,2.54,4.57,3.98,6.66.54.78,1.08,1.56,1.62,2.34,2,2.91,4.01,5.82,6.01,8.73.85,1.23,1.67,2.51,2.57,3.68,1.51,1.98,3.03,3.95,4.54,5.93,3.52,4.59,7.04,9.18,10.56,13.77,2.47,3.21,5.03,6.28,7.55,9.41,5.73,7.14,11.43,14.32,17.22,21.37,6.51,7.94,12.97,15.96,19.53,23.83,6.85,8.23,13.69,16.47,20.54,24.68,2.91,3.49,5.88,6.87,8.82,10.31,2.74,3.19,5.44,6.47,8.24,9.58,2.82,3.14,5.66,6.29,8.48,9.45,3.79,4.21,7.68,8.23,11.56,12.28.94.98,2.4.49,3.16-.61.96-1.41,1-3.91-.04-5.29-2.79-3.64-5.54-7.34-8.38-10.89-1.97-2.45-3.94-4.9-5.92-7.36-2.44-3.03-4.89-6.06-7.36-9.06-6.15-7.42-12.3-14.85-18.45-22.27-5.98-7.22-11.97-14.39-17.92-21.66-6.92-8.46-13.82-16.97-20.76-25.39-2.87-3.49-5.66-7.12-8.49-10.67-3.81-4.79-7.62-9.58-11.44-14.37-2.27-2.86-4.39-5.97-6.57-8.98-3.12-4.3-6.23-8.64-9.36-12.93-.63-.86-1.18-1.89-1.76-2.82-1.23-1.97-2.46-3.96-3.69-5.93-1.08-1.74-2.16-3.48-3.24-5.21-.82-1.32-1.67-2.59-2.47-3.92-.03-.08-.07-.15-.1-.23-.42-1.54-1.06-2.81-2.1-3.67-.72-.6-1.55-.91-2.38-.9-.42,0-.84.09-1.24.25h0Z"/>
      <path class="cls-1" d="m395.28,43.87c-1.7,2.48-1.54,6.29.07,8.77t.01.02c.3.47.66.84,1.04,1.12,1.15,1.19,2.3,2.37,3.43,3.58-.29-.32-.58-.64-.87-.96,11.95,13.06,23.83,26.28,35.54,39.79,5.6,6.47,11.17,13,16.8,19.43,3.13,3.56,6.22,7.22,9.39,10.7,3.46,3.81,6.91,7.63,10.36,11.45,2.88,3.19,5.88,6.2,8.82,9.28.9.94,2.3.46,3.02-.59.94-1.37.96-3.74-.04-5.09-2.59-3.52-5.15-7.11-7.81-10.53-1.87-2.4-3.73-4.8-5.61-7.21-2.42-3.12-4.86-6.2-7.33-9.25-5.7-7.03-11.39-14.09-17.3-20.77-6.25-7.06-12.47-14.17-18.69-21.3-6.05-6.93-12.02-14.01-18.04-21-2.49-2.89-5.01-5.69-7.59-8.46-.68-.55-1.4-.83-2.18-.83-1.14,0-2.24.68-3.04,1.85h0Z"/>
      <path class="cls-1" d="m350.69,32.92c-2.18,3.18-2.35,9.02.1,12.12,3.4,4.3,6.84,8.47,10.33,12.62,2.84,3.38,5.63,6.88,8.56,10.12-.23-.25-.46-.51-.69-.76,7.66,8.49,15.31,17.03,23.1,25.29,8.66,9.2,17.35,18.37,26.09,27.43,5.89,6.12,11.8,12.2,17.71,18.29,2.35,2.41,4.7,4.79,7.07,7.16,1.98,1.97,3.96,3.93,5.93,5.9,2.71,2.7,5.52,5.19,8.28,7.75,1.09,1.01,2.62.59,3.5-.68,1.07-1.57,1.11-4.33-.05-5.87-3.03-4.02-6.03-8.06-9.14-11.95-2.2-2.75-4.4-5.49-6.6-8.24-1.48-1.86-3.05-3.59-4.57-5.39-2.54-3-5.09-5.99-7.63-8.99-3.46-4.06-6.99-7.96-10.5-11.92-3.19-3.6-6.37-7.22-9.58-10.8-8.22-9.13-16.45-18.25-24.57-27.57-2.7-3.1-5.41-6.2-8.11-9.32-1.04-1.19-2.1-2.35-3.11-3.59-4.3-5.3-8.61-10.61-12.91-15.9-1.58-1.95-3.18-3.86-4.77-5.79-1.25-1.51-2.56-2.49-4.24-2.47-1.58.01-3.1.94-4.2,2.54h0Z"/>
      <path class="cls-1" d="m310.13,22.08c-1.27,1.08-2.06,3.1-2.04,5.22.01,1.67.54,3.3,1.39,4.43,1.21,1.89,2.68,3.35,4.11,4.87,5.94,6.75,11.82,13.62,17.81,20.31,3.5,3.93,7.02,7.85,10.53,11.78,3.13,3.52,6.34,6.9,9.52,10.33,6.12,6.63,12.23,13.27,18.4,19.81,6.41,6.8,12.82,13.62,19.24,20.4,4.55,4.8,9.08,9.64,13.65,14.4,2.95,3.06,5.89,6.13,8.84,9.19,3.8,3.96,7.69,7.71,11.56,11.51,1.04,1.01,2.57.55,3.39-.67,1.03-1.5,1.1-4.23-.05-5.69-2.88-3.67-5.7-7.44-8.66-10.97-1.97-2.36-3.95-4.73-5.94-7.08-2.44-2.91-4.86-5.82-7.36-8.61-6.47-7.23-12.91-14.53-19.48-21.59-6.07-6.51-12.15-13.02-18.21-19.53-6.49-6.97-12.93-14.04-19.45-20.92-5.13-5.67-10.28-11.3-15.41-16.95-4.89-5.38-9.62-11.06-14.54-16.39-.66-.73-1.28-1.49-1.86-2.36-.11-.21-.23-.4-.36-.58-.81-1.14-1.9-1.74-3-1.73-.72,0-1.45.28-2.09.83h0Zm6.73,3.21c.14.15.27.29.41.44-.14-.15-.27-.29-.41-.44h0Zm-5.64,7.78s0,0,0,0c0,0,0,0,0,0,0,0,0,0,0,0h0Z"/>
      <path class="cls-1" d="m283.88,33.37c-1.02.41-1.91,1.4-2.43,2.73-.55,1.37-.68,3.03-.38,4.56.14.46.29.93.43,1.4.37.88.87,1.59,1.49,2.11,6.3,6.6,12.63,13.15,18.95,19.71,5.39,5.59,10.87,11.02,16.3,16.55,2.74,2.78,5.55,5.43,8.32,8.15,2.77,2.72,5.52,5.49,8.31,8.15,3.22,3.07,6.44,6.15,9.66,9.22,2.29,2.18,4.56,4.4,6.88,6.51,2.25,2.04,4.49,4.08,6.74,6.13,1.33,1.2,2.64,2.49,4,3.63,2.08,1.75,4.15,3.5,6.24,5.25,2.9,2.45,5.85,4.74,8.8,7.06.86.68,1.93.51,2.62-.5.75-1.11.9-3.36-.04-4.41-2.49-2.76-4.94-5.58-7.48-8.24-1.92-2.02-3.85-4.03-5.77-6.05-2.66-2.78-5.39-5.44-8.09-8.15-6.08-6.06-12.21-12-18.34-17.95-5.78-5.62-11.54-11.25-17.3-16.89-2.16-2.11-4.27-4.33-6.4-6.51-3.2-3.29-6.41-6.57-9.61-9.85-3.3-3.63-6.59-7.29-9.88-10.92-3.31-3.67-6.53-7.5-9.86-11.12-.53-.57-1.28-.8-2.01-.8-.42,0-.82.09-1.17.23h0Z"/>
      <path class="cls-1" d="m263.79,37.89c-1.11,1.62-1.19,4.57.05,6.16,1.55,1.99,3.1,3.96,4.69,5.87,1.71,2.03,3.43,4.07,5.13,6.11,1.02,1.2,2.02,2.45,3.07,3.58,1.09,1.17,2.18,2.35,3.27,3.52,2.95,3.19,5.92,6.38,8.88,9.56.63.68,1.3,1.29,1.95,1.94,1.74,1.71,3.47,3.43,5.2,5.15,2.45,2.42,4.86,4.93,7.35,7.26,2.98,2.77,5.96,5.54,8.95,8.3,2.06,1.92,4.11,3.88,6.21,5.71,3.39,2.95,6.78,5.91,10.16,8.85,3.13,2.73,6.36,5.21,9.54,7.8,1.17.96,2.7.38,3.37-1.3.7-1.76.19-3.76-.93-4.84-4.35-4.2-8.69-8.39-13.09-12.47-2.44-2.26-4.88-4.51-7.31-6.78-3.26-3.05-6.52-6.09-9.78-9.14-1.85-1.72-3.71-3.43-5.52-5.24-4.3-4.31-8.58-8.7-12.93-12.92.22.23.43.47.64.7-.25-.27-.48-.53-.73-.8.12.13.24.27.36.4-3.92-4.29-7.85-8.57-11.76-12.88-1.71-1.88-3.33-3.94-4.99-5.9-2.48-2.94-4.97-5.84-7.49-8.68-.66-.76-1.28-1.27-2.16-1.27-.8,0-1.58.48-2.14,1.3h0Z"/>
      <path class="cls-1" d="m204.74,15c-1.01,1.49-1.12,4.29.05,5.71,9.23,11.3,18.49,22.55,27.71,33.85,9.36,11.48,18.69,23.02,27.97,34.64,8.4,10.52,16.67,21.24,24.99,31.89,1.15,1.48,2.38,2.86,3.57,4.28,1.32,1.58,2.65,3.17,3.97,4.74.48.57.97.94,1.6.93.59,0,1.16-.35,1.58-.96.86-1.24.84-3.32-.04-4.55-1.47-2.07-2.94-4.14-4.41-6.21-.91-1.29-1.8-2.61-2.74-3.86-1.12-1.5-2.23-3-3.34-4.5-2.03-2.73-4.03-5.53-6.1-8.2-4.11-5.31-8.17-10.71-12.32-15.96-8.9-11.25-17.83-22.45-26.82-33.55-9.11-11.24-18.28-22.37-27.48-33.43-1.37-1.65-2.79-3.23-4.19-4.84-.61-.7-1.19-1.17-2-1.17-.74,0-1.46.44-1.99,1.2h0Z"/>
      <path class="cls-1" d="m158.53,3.88c-1.39,3.49-.62,8.71,2.02,10.58,2.51,1.78,4.86,3.9,7.25,5.96,2.29,1.98,4.59,3.97,6.88,5.94,1.39,1.2,2.71,2.62,4.05,3.91,2.87,2.78,5.74,5.56,8.61,8.34,2.99,2.89,5.95,5.79,8.86,8.84,5.13,5.38,10.26,10.76,15.39,16.14,7.06,7.39,14,15.01,21.03,22.48,7.9,8.38,15.83,16.73,23.87,24.83,1.64,1.65,3.28,3.3,4.91,4.95,3.02,3.05,6.22,5.77,9.33,8.63,1.24,1.14,2.99.68,3.99-.77,1.18-1.73,1.33-5.03-.06-6.69-3.2-3.86-6.34-7.81-9.62-11.51-2.59-2.94-5.19-5.88-7.79-8.81-3.37-3.81-6.78-7.54-10.18-11.27-8.28-9.11-16.57-18.23-24.85-27.35-7.83-8.62-15.75-17.08-23.65-25.59-3.4-3.66-6.97-7.04-10.46-10.54-3.53-3.55-7.02-7.17-10.66-10.49-3.84-3.5-7.67-7.03-11.57-10.43C165.06.32,164.14,0,163.23,0c-1.88.02-3.75,1.47-4.71,3.88h0Z"/>
      <path class="cls-1" d="m126.52,18.29c-1.49,3.75-.55,8.75,2.09,10.91,2.68,2.2,5.33,4.45,7.99,6.72,1.85,1.59,3.77,3.09,5.58,4.78,4.66,4.38,9.32,8.76,13.99,13.14,3.45,3.24,6.81,6.7,10.2,10.07,3.54,3.51,7.09,7,10.62,10.53,7.74,7.74,15.46,15.54,23.25,23.18,4.71,4.64,9.42,9.27,14.14,13.91,4.02,3.94,8.13,7.7,12.2,11.55,3.06,2.9,6.24,5.57,9.35,8.34,1.16,1.03,2.74.65,3.67-.72,1.08-1.58,1.21-4.63-.05-6.16-3.12-3.77-6.2-7.62-9.41-11.22-2.59-2.91-5.17-5.82-7.76-8.71-3.5-3.94-7.07-7.71-10.64-11.52-8.35-8.9-16.77-17.7-25.18-26.47-7.73-8.05-15.51-15.95-23.28-23.89-3.62-3.7-7.34-7.21-11.02-10.79-1.62-1.58-3.21-3.26-4.87-4.76-2.26-2.04-4.54-4.07-6.81-6.11-2.14-1.94-4.3-3.84-6.47-5.72-.85-.74-1.8-1.08-2.74-1.07-1.94.02-3.86,1.51-4.85,4h0Z"/>
      <path class="cls-1" d="m112.78,8.33c-1.14.98-1.97,2.58-2.31,4.41-.35,1.89-.15,3.96.56,5.65.59,1.41,1.74,2.94,2.92,3.3.57.74,1.12,1.51,1.72,2.21.83.96,1.67,1.92,2.51,2.89,2.23,2.56,4.45,5.12,6.68,7.68,2.75,3.15,5.39,6.49,8.08,9.77,6.64,8.13,13.26,16.27,19.89,24.43,6.39,7.87,12.87,15.58,19.35,23.29,5.92,7.05,12,13.81,18.05,20.63,2.36,2.67,4.82,5.17,7.23,7.75,1.16,1.23,2.3,2.47,3.46,3.7,2.43,2.6,4.98,4.98,7.46,7.46.83.84,2.09.44,2.75-.53.84-1.24.88-3.42-.04-4.62-7.4-9.71-14.87-19.3-22.4-28.8-6.62-8.34-13.21-16.73-19.8-25.11-6.24-7.92-12.41-15.94-18.61-23.94-5.73-7.37-11.49-14.7-17.25-22.04-2.09-2.66-4.27-5.19-6.4-7.78-1.31-1.59-2.62-3.18-3.93-4.78-.41-.49-.79-.99-1.17-1.54-.48-.72-.93-1.44-1.44-2.11-1.03-1.32-2.09-2.08-3.39-2.72-.41-.2-.84-.28-1.29-.28-.93,0-1.88.41-2.63,1.05h0Zm.52,12.76c.09.04.17.09.25.15-.08-.05-.17-.1-.25-.15h0Z"/>
      <path class="cls-1" d="m58.04,24.57c-.86.74-1.5,1.95-1.75,3.34-.27,1.44-.11,3.01.43,4.29.47,1.15,1.39,2.3,2.34,2.54.38.1.73.22,1.09.38,1.42.98,2.72,2.26,4.12,3.29.42.31.84.63,1.27.93,1.94,1.44,3.89,2.88,5.84,4.32,2.87,2.12,5.8,4.16,8.64,6.38,3.44,2.71,6.87,5.42,10.31,8.14,2.62,2.05,5.27,4.05,7.85,6.19,6.26,5.21,12.53,10.42,18.77,15.65,5.87,4.92,11.68,9.96,17.52,14.93,4.93,4.19,9.89,8.3,14.84,12.47,2.51,2.12,5.09,4.09,7.64,6.12,4,3.22,8.05,6.26,12.12,9.32,1.14.85,2.56.4,3.21-1.25.68-1.69.17-3.56-.88-4.62-2.79-2.77-5.54-5.63-8.36-8.31-1.86-1.75-3.72-3.5-5.58-5.27-2.35-2.22-4.7-4.44-7.08-6.6-6.01-5.44-12.01-10.88-18.07-16.18-3.69-3.22-7.38-6.44-11.06-9.66-2.19-1.91-4.43-3.72-6.64-5.59-3.9-3.27-7.8-6.53-11.7-9.81-2.03-1.7-4.1-3.29-6.16-4.91-4.88-3.85-9.73-7.83-14.67-11.5-3.43-2.53-6.86-5.07-10.28-7.6-1.14-.84-2.29-1.69-3.43-2.54-2.41-1.79-4.6-4.26-7.31-5.07-.36-.11-.72-.16-1.07-.16-.67,0-1.31.23-1.92.75h0Z"/>
      <path class="cls-1" d="m47.24,12.91c-1.33.54-2.48,1.83-3.16,3.54-.71,1.77-.88,3.92-.49,5.89.4,2,1.29,3.44,2.49,4.55,4.81,4.53,9.6,9.12,14.39,13.69,3.71,3.54,7.29,7.37,10.92,11.06,5.85,5.94,11.63,12.03,17.4,18.13.26.34.54.64.84.89,1.39,1.47,2.79,2.95,4.18,4.42,6.32,6.65,12.57,13.42,18.94,19.96,8.29,8.5,16.52,17.11,25.16,24.87,1.54,1.39,3.06,2.76,4.59,4.14,1.07.96,2.53.6,3.39-.66,1.02-1.49,1.1-4.22-.05-5.67-2.83-3.58-5.63-7.19-8.53-10.64-2.25-2.67-4.49-5.35-6.74-8.02-3.56-4.25-7.25-8.28-10.88-12.4-6.73-7.65-13.52-15.17-20.36-22.62.05.05.09.1.14.15.24.26.48.53.72.78-.02-.02-.04-.05-.06-.07-.18-.2-.37-.4-.55-.6.04.04.08.09.12.13-.36-.39-.71-.78-1.07-1.17.07.08.15.16.22.24-.2-.22-.4-.43-.6-.65-.13-.14-.25-.27-.37-.41.07.08.14.16.21.23-.03-.03-.05-.06-.08-.09-.4-.44-.8-.87-1.2-1.31-.38-.41-.75-.82-1.13-1.24-.08-.08-.16-.17-.24-.26-.02-.02-.03-.04-.05-.06-.27-.29-.53-.58-.79-.87-.06-.07-.13-.14-.19-.21,0,0-.01-.01-.02-.02-.68-.74-1.35-1.48-2.03-2.21-.02-.02-.04-.04-.06-.06-.07-.07-.13-.15-.2-.22-.16-.17-.31-.34-.47-.51.08.08.16.17.23.25-.07-.08-.14-.15-.21-.23.11.12.22.24.33.35-.17-.18-.33-.36-.5-.54-.06-.06-.12-.13-.18-.19-.02-.03-.05-.05-.07-.08-.72-.79-1.45-1.58-2.17-2.37.33.37.66.72,1,1.09-1.25-1.37-2.5-2.72-3.75-4.09.34.37.67.74,1.01,1.09-.61-.66-1.23-1.34-1.85-2.01.07.08.14.15.21.23-.17-.19-.34-.37-.51-.56-.54-.59-1.09-1.19-1.64-1.78.34.37.67.73,1.01,1.1-.69-.76-1.39-1.52-2.09-2.28.02.02.04.05.06.07-5.21-5.72-10.55-11.19-15.83-16.79-1.83-1.93-3.72-3.75-5.58-5.61-3.24-3.25-6.48-6.48-9.77-9.64-.75-.72-1.71-1.03-2.64-1.03-.51,0-1.01.11-1.47.29h0Zm34.37,31.78c.24.26.48.51.71.77.08.09.16.17.24.26-.32-.34-.63-.69-.95-1.03h0Zm.86.93s.06.06.09.1c.02.02.03.04.05.05-.05-.05-.09-.1-.14-.15h0Zm.07.08s.02.03.03.04c-.01-.01-.02-.03-.03-.04h0Zm14.62,15.97c.05.05.1.11.15.16.22.23.43.47.65.71-.2-.22-.4-.44-.61-.66.06.07.13.14.19.21-.07-.08-.14-.16-.22-.24-.03-.03-.05-.05-.07-.08.01.01.03.03.04.04-.04-.05-.09-.1-.13-.14h0Zm2.97,3.23c.06.07.13.14.19.2-.2-.22-.41-.45-.62-.67.14.16.29.31.43.47h0Zm-2.8-3.05s.01.02.02.02c-.01-.02-.03-.03-.04-.05,0,0-.01-.01-.02-.02.01.01.02.02.03.04h0Zm-4.7-5.14s-.08-.08-.11-.13c.04.04.08.08.11.13h0Zm-.53-.57c.09.09.17.19.26.28.05.05.1.11.15.16-.22-.24-.43-.47-.65-.7.08.09.16.17.24.26h0Zm-5.61-6.13c-.19-.2-.37-.41-.56-.61.19.2.37.41.56.61h0Zm-.56-.61c-.08-.09-.16-.18-.24-.26.08.09.16.18.24.26h0Zm-.75-.82s.03.03.04.04c-.24-.27-.49-.54-.73-.8.23.25.46.51.69.76h0Zm-.69-.76c-.09-.1-.18-.2-.27-.3.09.1.18.2.27.3h0Z"/>
      <path class="cls-1" d="m7.92,11.55c-1.42,2.08-1.43,5.62.06,7.67,1.74,2.38,3.46,4.75,5.3,6.99,1.92,2.36,3.85,4.71,5.78,7.05,2.39,2.92,4.73,5.89,7.24,8.58,3.83,4.1,7.66,8.2,11.5,12.29,1.85,1.99,3.7,3.97,5.55,5.95.64.69,1.27,1.43,1.94,2.07,7.14,6.86,14.26,13.77,21.39,20.67,6,5.8,12.17,11.26,18.26,16.85,5.75,5.28,11.56,10.44,17.36,15.61,2.34,2.1,4.7,4.13,7.07,6.16,2.03,1.74,4.06,3.47,6.08,5.21,2.88,2.45,5.84,4.69,8.78,7.01,1.18.94,2.69.39,3.37-1.3.33-.82.41-1.82.23-2.74-.19-.97-.61-1.53-1.16-2.12-2.75-2.95-5.47-5.97-8.28-8.82-2.06-2.1-4.11-4.19-6.16-6.29-2.47-2.52-4.96-4.97-7.47-7.41-6.2-6.01-12.4-12.02-18.64-17.95-5.8-5.52-11.61-11.01-17.38-16.62-4.35-4.24-8.69-8.48-13.05-12.72-2.17-2.12-4.4-4.14-6.52-6.37-6.38-6.72-12.74-13.47-19.13-20.18-5.55-6.61-11.17-13.11-16.77-19.64-.82-.94-1.61-1.57-2.68-1.56-1,0-1.96.59-2.66,1.6h0Z"/>
      <path class="cls-1" d="m.08,42.74c-.33,1.75.39,3.56,1.58,4.12.37.47.73.98,1.12,1.42.63.69,1.26,1.38,1.88,2.07,1.26,1.39,2.51,2.77,3.77,4.16,2.07,2.3,4.08,4.71,6.12,7.07,4.21,4.86,8.47,9.61,12.72,14.38,1.86,2.08,3.68,4.24,5.58,6.24,1.96,2.06,3.93,4.13,5.89,6.19,5.76,6.07,11.51,12.15,17.35,18.05,3.59,3.63,7.2,7.26,10.8,10.89.77.78,1.93.41,2.54-.49.39-.57.61-1.34.6-2.14,0-.71-.22-1.67-.64-2.13-7.01-7.67-14.02-15.37-21.05-23.01-4.17-4.53-8.33-9.1-12.51-13.59-1.91-2.18-3.86-4.29-5.79-6.43-2.54-2.82-5.09-5.64-7.63-8.47-1.73-1.93-3.45-3.87-5.17-5.8-2.04-2.29-4.04-4.63-6.13-6.81-1.88-1.98-3.78-3.93-5.64-5.93-.76-.92-1.5-1.88-2.51-2.17-.19-.06-.39-.09-.58-.08-1.06,0-2.03.91-2.31,2.48H.08Z"/>
    </g>
  </g>
</svg>