<?xml version="1.0" encoding="UTF-8"?>
<svg id="Layer_2" data-name="Layer 2" xmlns="http://www.w3.org/2000/svg" viewBox="0 0 949.36 286.63">
  <defs>
    <style>
      .cls-1 {
        fill: #001928;
        stroke-width: 0px;
      }
    </style>
  </defs>
  <g id="Layer_1-2" data-name="Layer 1">
    <g>
      <path class="cls-1" d="m122.21,83.85c-2.26,3.17-4.52,6.34-6.74,9.53-1.5,2.17-3,4.33-4.49,6.5-2.91,4.22-5.83,8.44-8.75,12.65-4.86,7.03-9.88,13.94-14.72,20.99-1.88,2.73-3.74,5.46-5.62,8.19-.74,1.09-1.49,2.17-2.2,3.28-1.68,2.61-3.37,5.23-5.05,7.85-1.01,1.57-2.06,3.13-3.03,4.72-2.8,4.59-5.58,9.19-8.37,13.79-.73,1.21-1.4,2.45-2.08,3.68-1.6,2.89-3.2,5.78-4.81,8.67-2.02,3.64-3.91,7.37-5.83,11.06-1.26,2.42-2.51,4.84-3.76,7.25-.72,1.38-1.36,2.79-2.03,4.19-.68,1.44-1.34,2.9-1.93,4.38-.29.74-.56,1.49-.8,2.24-.3.9-.4,1.83-.55,2.77-.13.82.71,1.71,1.52,1.69,0,0,.01,0,.02,0,.88-.03,1.64-.59,1.68-1.52,0-.02,0-.05,0-.07.03-.14.05-.29.08-.43.2-.99.56-1.93.93-2.88.44-1.12.95-2.2,1.47-3.28-.06.13-.14.27-.2.4,2.79-5.7,5.95-11.21,9.01-16.77.8-1.46,1.56-2.95,2.41-4.38,1.3-2.2,2.6-4.39,3.9-6.59,1.38-2.34,2.76-4.67,4.15-7,.82-1.38,1.72-2.71,2.59-4.07,2.47-3.88,4.89-7.79,7.44-11.61,1.74-2.6,3.48-5.22,5.23-7.83,1-1.51,1.99-3.04,3.02-4.53,3.11-4.48,6.23-8.95,9.34-13.43,2.56-3.69,5.1-7.38,7.65-11.08,1.38-2,2.76-3.99,4.14-5.99.94-1.36,1.81-2.76,2.72-4.14,2.25-3.43,4.55-6.82,6.74-10.29,1.47-2.32,2.94-4.65,4.4-6.97,1.87-2.98,3.65-6,5.46-9.02.49-.83.32-1.93-.52-2.48-.27-.18-.57-.27-.87-.28-.61-.03-1.22.26-1.6.8h0Z"/>
      <path class="cls-1" d="m160.73,64.96c-.64.14-1.01.5-1.42.98-2.94,3.45-5.9,6.87-8.74,10.4-2.27,2.81-4.54,5.63-6.82,8.45-3.22,4-6.34,8.11-9.5,12.16-6.95,8.92-13.76,17.96-20.59,26.96-1.99,2.63-3.95,5.28-5.9,7.94-4.4,6-8.79,11.99-13.19,17.99-5.97,8.14-11.78,16.38-17.63,24.61-2.86,4.02-5.74,8.02-8.58,12.05-.89,1.27-1.71,2.58-2.56,3.87-1.97,2.98-3.95,5.96-5.92,8.94-3.31,4.99-6.62,9.98-9.93,14.97-.83,1.25-1.53,2.61-2.29,3.91-1.9,3.28-3.81,6.57-5.71,9.85-1.03,1.78-2.07,3.56-3.09,5.33-.69,1.19-1.3,2.42-1.92,3.64-.71,1.4-1.39,2.82-2.05,4.24-.32.7-.62,1.42-.91,2.13-.25.61-.42,1.25-.61,1.88-.21.68-.07,1.41.4,1.94.44.49,1.23.81,1.89.61t.01,0c.7-.22,1.26-.69,1.46-1.37.25-.74.5-1.49.82-2.22.37-.85.76-1.69,1.16-2.53-.08.15-.15.32-.23.47,1.07-2.17,2.18-4.36,3.42-6.44.54-.91,1.09-1.82,1.63-2.73,1.92-3.22,3.84-6.43,5.77-9.65,1.26-2.11,2.53-4.23,3.8-6.35.16-.28.36-.55.55-.82.6-.88,1.19-1.76,1.79-2.64,4.11-6.07,8.22-12.14,12.34-18.22,1.83-2.71,3.64-5.44,5.56-8.09,6.96-9.6,13.92-19.21,20.88-28.81,2.91-4.01,5.93-7.95,8.89-11.92,3.9-5.22,7.78-10.43,11.67-15.66,2.43-3.26,4.96-6.45,7.44-9.67,3.74-4.85,7.47-9.7,11.22-14.54,3.36-4.36,6.78-8.66,10.17-12.98,3.05-3.89,6.06-7.81,9.08-11.72,1.18-1.53,2.35-3.05,3.53-4.58,2.24-2.91,4.36-5.92,6.53-8.88.74-1,.34-2.51-.66-3.17-.34-.22-.74-.35-1.14-.37-.2-.01-.41,0-.61.05h0Z"/>
      <path class="cls-1" d="m174.86,81.2c-.63.13-1.03.5-1.42.98-3.14,3.84-6.31,7.68-9.4,11.57-2.48,3.12-4.95,6.24-7.43,9.36-3.5,4.41-6.93,8.89-10.39,13.33-2.82,3.63-5.64,7.25-8.38,10.93-4.7,6.34-9.4,12.67-14.1,19.01-2.36,3.19-4.61,6.44-6.89,9.69-4.54,6.5-9.07,12.99-13.61,19.48-6.62,9.47-13.08,19.04-19.61,28.58-2.89,4.23-5.73,8.49-8.59,12.73-1.99,2.94-3.97,5.89-5.96,8.84-.92,1.36-1.79,2.77-2.67,4.16-2.03,3.23-4.06,6.45-6.09,9.67-2,3.17-3.92,6.38-5.84,9.59-.68,1.15-.64,2.57.27,3.59.92,1.02,2.33,1.2,3.54.65.46-.24.82-.57,1.11-1,.05-.07.09-.14.12-.21,1.99-3.34,4-6.67,6.08-9.96,2.16-3.42,4.3-6.85,6.46-10.27,2.86-4.54,5.93-8.94,8.93-13.38,7.05-10.45,14.18-20.84,21.32-31.23,6.73-9.8,13.61-19.51,20.43-29.24,1.31-1.87,2.62-3.73,3.94-5.6.91-1.3,1.9-2.55,2.84-3.82,4.7-6.32,9.4-12.64,14.09-18.95,6.12-8.23,12.52-16.24,18.66-24.46,2.23-2.99,4.47-5.98,6.71-8.98,2.84-3.8,5.53-7.7,8.27-11.58.72-1.02.36-2.5-.66-3.17-.34-.22-.74-.35-1.14-.37-.2-.01-.41,0-.61.05h0Z"/>
      <path class="cls-1" d="m212.09,56.79c-.59.13-.95.47-1.32.91-3.05,3.6-6.1,7.19-9.09,10.86-2.17,2.67-4.35,5.33-6.53,8-3.77,4.63-7.49,9.32-11.24,13.98-6.16,7.66-12.33,15.3-18.49,22.95-4.38,5.44-8.76,10.88-13.14,16.33-2.46,3.06-4.98,6.06-7.32,9.21-4.38,5.89-8.75,11.77-13.12,17.65-1.89,2.54-3.77,5.08-5.67,7.62-.56.75-1.12,1.5-1.64,2.28-6.75,9.99-13.52,19.97-20.25,29.98-.85,1.27-1.65,2.59-2.47,3.89-1.93,3.03-3.85,6.07-5.78,9.11-3.92,6.17-7.84,12.36-11.77,18.53-1.65,2.6-3.26,5.22-4.87,7.84-1.79,2.9-3.58,5.81-5.37,8.71-.66,1.06-1.31,2.12-1.97,3.19-.28.44-.57.88-.82,1.34-.35.64-.53,1.28-.37,2.02.14.67.56,1.26,1.13,1.64.59.38,1.33.52,2.02.37.61-.14,1.33-.56,1.63-1.13.33-.63.74-1.22,1.11-1.83.88-1.42,1.75-2.85,2.64-4.26,2.07-3.35,4.15-6.71,6.22-10.06,1.99-3.21,4.02-6.39,6.06-9.58,4.27-6.69,8.54-13.38,12.81-20.08,1.82-2.84,3.61-5.72,5.51-8.51,4.1-6.03,8.22-12.05,12.33-18.07,1.89-2.78,3.79-5.57,5.69-8.35.61-.9,1.2-1.82,1.85-2.69,3.82-5.08,7.64-10.16,11.46-15.24,2.26-3,4.51-6,6.77-9,.97-1.3,1.91-2.63,2.92-3.89,6.74-8.29,13.53-16.56,20.24-24.89,4.38-5.43,8.76-10.87,13.14-16.3,3.01-3.73,5.96-7.51,8.91-11.28,2.65-3.38,5.32-6.75,7.91-10.18,1.95-2.59,3.91-5.17,5.86-7.76,2.49-3.3,4.87-6.69,7.28-10.04.68-.95.33-2.33-.61-2.96-.32-.21-.69-.33-1.06-.34-.19,0-.38,0-.56.05h0Z"/>
      <path class="cls-1" d="m253.72,43.7c-2.5,2.58-5.07,5.11-7.49,7.75-1.43,1.56-2.86,3.12-4.29,4.67-2.01,2.19-4.04,4.35-6,6.57-2.97,3.37-5.95,6.74-8.91,10.12-1.94,2.2-3.9,4.37-5.8,6.61-5.52,6.48-11.02,12.97-16.53,19.46-3.61,4.25-7.09,8.6-10.61,12.93-5.06,6.24-10.11,12.48-15.18,18.71-1.21,1.49-2.34,3.05-3.51,4.57-2.92,3.82-5.85,7.63-8.78,11.44-2.96,3.86-5.92,7.72-8.88,11.58-1.25,1.63-2.54,3.24-3.76,4.89-4.52,6.12-9.02,12.25-13.53,18.38-2.67,3.62-5.33,7.24-8,10.86-.89,1.22-1.8,2.42-2.65,3.66-5.04,7.31-10.09,14.62-15.13,21.93-1.73,2.51-3.43,5.03-5.11,7.58-2.48,3.8-4.93,7.62-7.27,11.51-1.17,1.93-2.31,3.89-3.37,5.88-1.04,1.95-1.97,3.96-2.92,5.95-.1.21-.21.42-.31.64-.14.29-.28.59-.43.88-.21.66-.25,1.33-.1,2.02.28,1.3,1.25,2.36,2.51,2.78,0,0,.01,0,.02,0,1.97.66,4.15-.45,4.8-2.4.02-.05.03-.09.04-.14.57-1.17,1.13-2.35,1.69-3.52,2.25-4.57,4.93-8.91,7.64-13.22,1.31-2.1,2.66-4.17,4.01-6.25.81-1.25,1.61-2.52,2.45-3.74,1.85-2.68,3.7-5.38,5.56-8.06,2.89-4.2,5.79-8.41,8.69-12.61,1.35-1.96,2.65-3.97,4.05-5.89,4.56-6.21,9.14-12.41,13.71-18.6,2.64-3.59,5.29-7.17,7.92-10.76.85-1.14,1.67-2.29,2.54-3.42,5.26-6.84,10.51-13.7,15.78-20.54,3.26-4.24,6.44-8.55,9.82-12.7,5.81-7.16,11.62-14.32,17.43-21.47,3.38-4.17,6.81-8.29,10.27-12.4,4.52-5.36,9.06-10.7,13.56-16.08-.21.24-.41.48-.63.72,4.89-5.68,9.71-11.42,14.55-17.14,1.95-2.29,3.84-4.64,5.76-6.97,1.24-1.5,2.48-3,3.72-4.5,2.26-2.74,4.39-5.57,6.57-8.36.71-.91.5-2.35-.24-3.17-.46-.51-1.16-.82-1.86-.86-.66-.03-1.33.17-1.81.67h0ZM104.59,248.28c-.11.24-.23.48-.35.72.11-.24.23-.48.35-.72h0Z"/>
      <path class="cls-1" d="m279.14,54.69c-3.71,3.89-7.48,7.72-11.12,11.67-2.7,2.93-5.39,5.85-8.09,8.78-3.23,3.5-6.45,7.01-9.63,10.56-5.07,5.67-10.15,11.34-15.23,17.01-3.12,3.49-6.18,7.02-9.27,10.54-4.61,5.25-9.22,10.49-13.83,15.74-.93,1.06-1.8,2.15-2.7,3.24-2.27,2.77-4.54,5.53-6.81,8.3-4.79,5.83-9.58,11.66-14.38,17.49-2.55,3.11-4.88,6.39-7.28,9.61-4.8,6.4-9.59,12.81-14.39,19.22-2.47,3.3-4.8,6.7-7.16,10.09-3.99,5.73-7.98,11.48-11.98,17.2-.29.41-.55.86-.81,1.29-.93,1.51-1.85,3.01-2.78,4.52-1.96,3.19-3.93,6.37-5.9,9.56-.25.41-.49.82-.76,1.22-1.05,1.62-2.48,3.2-2.4,5.26.03.78.19,1.44.73,2.04.49.55,1.2.89,1.95.93,1.45.08,3-1.13,2.97-2.68,0-.06-.01-.11-.01-.17.58-1.01,1.36-1.9,1.98-2.89.19-.28.37-.58.55-.87.9-1.43,1.8-2.87,2.7-4.3,2.04-3.26,4.08-6.5,6.12-9.75.78-1.25,1.65-2.44,2.5-3.65,2.29-3.25,4.58-6.49,6.87-9.74,2.26-3.2,4.51-6.4,6.76-9.6.73-1.03,1.43-2.07,2.19-3.07,4.22-5.59,8.43-11.18,12.66-16.77,2.33-3.09,4.66-6.18,6.99-9.27.89-1.19,1.74-2.42,2.69-3.57,3.91-4.74,7.84-9.48,11.75-14.22,4.08-4.93,8.18-9.85,12.23-14.8,7.5-8.5,14.95-17.05,22.43-25.57,3.53-4.03,7.07-8.06,10.59-12.09,3.17-3.61,6.38-7.19,9.5-10.85-.17.2-.33.39-.5.58,3.24-3.69,6.44-7.41,9.66-11.12,1.56-1.8,3.12-3.59,4.67-5.38,3.34-3.85,6.57-7.79,9.85-11.69.63-.74.4-2.01-.21-2.68-.39-.43-.98-.69-1.58-.72-.56-.03-1.12.14-1.52.56h0Zm-138.82,181s-.02.09-.03.14c0-.05.02-.09.03-.14h0Z"/>
      <path class="cls-1" d="m326.04,39.84c-2.35,2.7-4.74,5.37-7.03,8.11-1.54,1.83-3.07,3.67-4.61,5.51-1.93,2.3-3.86,4.61-5.78,6.92-4.64,5.55-9.27,11.11-13.93,16.64-4.46,5.3-8.95,10.57-13.36,15.91-5.89,7.13-11.8,14.25-17.69,21.38-3.54,4.28-6.95,8.67-10.38,13.04-5.04,6.4-10.08,12.8-15.12,19.19-1.4,1.77-2.68,3.65-4.01,5.46-3.04,4.14-6.08,8.29-9.12,12.44-2.5,3.4-4.99,6.8-7.49,10.2-.7.96-1.39,1.93-2.07,2.92-2.94,4.28-5.86,8.56-8.68,12.92-3.69,5.7-7.13,11.56-10.36,17.54-1.68,3.12-3.26,6.31-4.64,9.58-.62,1.45-1.19,2.93-1.6,4.45-.44,1.65-.69,3.37-1.07,5.05-.19.58-.22,1.17-.09,1.77.13.57.39,1.07.78,1.51.39.44.86.75,1.42.93.58.19,1.16.22,1.76.09.02,0,.05,0,.07-.01,1.44-.17,2.52-1.7,2.59-3.06,0-.02,0-.04,0-.05.41-1.73.77-3.48,1.32-5.17.75-2.28,1.81-4.49,2.85-6.65-.13.27-.26.54-.39.8,2.24-4.57,4.81-8.97,7.39-13.36,2.63-4.47,5.46-8.82,8.35-13.11,2.97-4.41,5.99-8.81,9.15-13.08,5.68-7.67,11.38-15.33,17.06-23,1.08-1.46,2.12-2.94,3.25-4.35,2.15-2.7,4.29-5.4,6.44-8.09,5.43-6.84,10.87-13.68,16.31-20.51,1.2-1.51,2.47-2.98,3.71-4.47,3.25-3.91,6.52-7.82,9.77-11.73,3.88-4.67,7.77-9.34,11.67-13.99,3.29-3.93,6.58-7.87,9.88-11.8,1.46-1.74,2.92-3.47,4.33-5.24,3-3.76,5.99-7.53,8.99-11.29,1.88-2.36,3.65-4.81,5.43-7.24,1.16-1.57,2.31-3.16,3.47-4.73,1.9-2.59,3.63-5.31,5.43-7.97.67-.99.54-2.37-.25-3.24-.47-.53-1.14-.84-1.84-.88-.63-.03-1.49.18-1.92.68h0Z"/>
      <path class="cls-1" d="m330.05,81.77c-2.89,3.01-5.87,5.97-8.68,9.05-1.54,1.68-3.08,3.37-4.62,5.06-2.49,2.74-5.02,5.45-7.48,8.21-3.2,3.61-6.41,7.21-9.62,10.82-2.51,2.82-5.06,5.61-7.52,8.49-6.03,7.05-12.05,14.1-18.08,21.14-1.46,1.71-2.83,3.5-4.21,5.29-3.53,4.53-7.06,9.07-10.59,13.61-1.4,1.8-2.79,3.6-4.19,5.39-.45.58-.93,1.14-1.34,1.74-2.39,3.49-4.78,6.98-7.18,10.48-2.87,4.19-5.74,8.39-8.61,12.58-1.57,2.3-3.01,4.69-4.46,7.06-3.08,5.03-6.03,10.15-8.67,15.43-1.46,2.93-2.85,5.89-4.12,8.9-.61,1.45-1.18,2.93-1.72,4.41-.58,1.6-.92,3.23-1.28,4.89-.22,1.01-.27,1.92.22,2.87.44.85,1.21,1.52,2.13,1.82,1.84.61,4.16-.4,4.69-2.35.27-.99.51-1.99.81-2.97.38-1.27.9-2.51,1.39-3.75.85-2.14,1.8-4.23,2.78-6.31,2.49-5.11,5.24-10.08,8.17-14.96,1.46-2.43,2.97-4.83,4.48-7.24.59-.93,1.16-1.87,1.79-2.77,2.63-3.79,5.25-7.59,7.88-11.38,2.73-3.94,5.45-7.87,8.17-11.8,1.45-2.1,3.11-4.05,4.68-6.04,3.25-4.15,6.5-8.3,9.75-12.44,1.26-1.6,2.51-3.2,3.77-4.8.48-.61.94-1.25,1.44-1.84.04-.04.08-.09.11-.13-.03.03-.06.06-.08.1.02-.02.03-.04.05-.06-.12.14-.24.28-.36.42-.1.12-.2.23-.3.35,6.41-7.46,12.83-14.91,19.24-22.38,5.46-6.24,10.96-12.44,16.45-18.66,2.7-3.06,5.3-6.22,7.94-9.33,1.4-1.65,2.81-3.3,4.21-4.95.73-.86,1.42-1.76,2.12-2.64,1.89-2.39,3.78-4.78,5.67-7.17.88-1.11.6-2.9-.3-3.89-.56-.63-1.43-1.01-2.29-1.05-.81-.04-1.64.21-2.22.82h0Zm-30.92,46.12c-.07.08-.13.16-.2.23-.11.12-.22.25-.32.37.17-.2.35-.41.52-.61h0Zm-.24.28c-.13.15-.26.31-.4.46.13-.15.26-.31.4-.46h0Zm-19.39,22.55c-.1.11-.19.23-.29.34.1-.11.19-.23.29-.34h0Z"/>
      <path class="cls-1" d="m389.11,54.99c-4.28,4.67-8.58,9.32-12.78,14.06-3.42,3.86-6.83,7.72-10.25,11.57-4.96,5.6-9.81,11.3-14.71,16.95-4.34,5.01-8.64,10.03-12.92,15.09-3.52,4.15-7.04,8.31-10.56,12.48-1.47,1.73-2.97,3.44-4.4,5.2-5.84,7.24-11.68,14.47-17.51,21.7-4.15,5.15-8.03,10.51-11.99,15.81-2.44,3.26-4.88,6.53-7.31,9.8-2.32,3.11-4.53,6.27-6.72,9.47-4.99,7.3-9.73,14.74-14.05,22.45-2.19,3.89-4.23,7.85-6.17,11.87-.92,1.9-1.83,3.82-2.71,5.75-.96,2.14-1.84,4.32-2.23,6.63-.17.99.39,2.2,1.03,2.91.71.79,1.72,1.27,2.78,1.33,1.06.06,2.12-.32,2.91-1.03.67-.6,1-1.29,1.19-2.09,1.07-3.6,2.75-7,4.37-10.37-.15.32-.3.62-.45.94,4.77-9.84,10.33-19.27,16.36-28.4,3.32-5.02,6.72-9.99,10.33-14.8,5.57-7.42,11.14-14.84,16.7-22.26,1.36-1.81,2.84-3.54,4.27-5.3,3.44-4.25,6.88-8.49,10.31-12.74,2.02-2.5,4.03-4.99,6.06-7.49,1.9-2.34,3.88-4.61,5.81-6.91,10.87-12.92,21.72-25.84,32.56-38.78,2.86-3.41,5.64-6.87,8.44-10.31,2.07-2.53,4.14-5.07,6.21-7.61,3.29-4.04,6.41-8.22,9.6-12.33.76-.97.52-2.51-.26-3.37-.49-.54-1.26-.88-2.02-.92-.7-.04-1.41.18-1.9.72h0Z"/>
      <path class="cls-1" d="m425.92,41.58c-.65.15-1.03.51-1.45,1-2.21,2.59-4.4,5.19-6.62,7.78.15-.18.3-.35.45-.53-.77.9-1.55,1.79-2.32,2.69.16-.18.31-.36.47-.54-.18.2-.34.4-.52.6.16-.18.31-.36.47-.54-3.3,3.84-6.6,7.68-9.9,11.53.17-.2.34-.4.51-.6-.69.8-1.37,1.59-2.05,2.39-.02.02-.03.04-.05.06.03-.04.06-.07.09-.11-.04.04-.07.09-.11.13-8.67,9.82-17.33,19.65-26.02,29.45-8.46,9.55-16.84,19.16-25.23,28.75-1.13,1.29-2.2,2.63-3.29,3.96-2.65,3.25-5.32,6.5-7.98,9.76-2.72,3.32-5.43,6.64-8.15,9.96-.98,1.2-2.04,2.38-2.95,3.64-4.4,6.04-8.79,12.07-13.19,18.1-2.74,3.77-5.55,7.49-8.13,11.37-4.33,6.51-8.66,13.02-12.98,19.52-1.34,2.02-2.69,4.05-4.04,6.08-1.55,2.33-3.01,4.75-4.48,7.14-1.06,1.72-2.09,3.45-3.09,5.19-1.13,1.95-2.25,3.92-3.15,5.99-.33.75-.17,1.77.19,2.47.38.74,1.05,1.31,1.83,1.56.82.27,1.72.2,2.48-.19.79-.4,1.22-1.04,1.56-1.83.05-.12.1-.23.15-.35,4.55-8.65,10.04-16.75,15.47-24.86,4.25-6.36,8.5-12.72,12.75-19.08.81-1.22,1.71-2.37,2.58-3.55,2.48-3.39,4.97-6.77,7.46-10.16,2.54-3.47,5.07-6.93,7.61-10.38.94-1.28,1.83-2.62,2.84-3.84,7.05-8.56,14.12-17.09,21.14-25.67,7.69-8.77,15.4-17.52,23.09-26.29,2.99-3.4,5.96-6.8,8.95-10.2,1.71-1.95,3.43-3.87,5.1-5.84,4.59-5.38,9.18-10.78,13.76-16.16,2.34-2.76,4.54-5.66,6.79-8.49,1.46-1.82,2.9-3.64,4.35-5.46.82-1.03,1.59-2.1,2.38-3.15,1.9-2.57,3.79-5.15,5.68-7.72.76-1.02.35-2.56-.67-3.23-.35-.23-.75-.36-1.17-.38-.21-.01-.41,0-.62.05h0Zm-21.17,24.02s0,.01-.01.02c-.02.03-.05.06-.08.09.03-.04.06-.07.09-.11h0Zm-.05.06c-.08.1-.17.2-.25.3.06-.07.12-.15.18-.22.02-.03.05-.05.07-.08h0Zm-46.7,63.11c-.06.07-.13.15-.19.22.06-.07.13-.15.19-.22h0Zm-69.31,96.68c-.05.1-.1.2-.15.3.05-.1.09-.2.15-.3h0Z"/>
      <path class="cls-1" d="m470.48,22.28c-.73.16-1.18.58-1.64,1.14-11.58,13.79-23.13,27.6-34.81,41.3-5.56,6.53-11.12,13.07-16.68,19.6-1.79,2.1-3.58,4.21-5.37,6.31-1.27,1.5-2.47,3.07-3.7,4.6-5.84,7.26-11.69,14.52-17.53,21.78-1.04,1.3-2.12,2.58-3.13,3.91-1.77,2.32-3.53,4.65-5.29,6.99-5.5,7.25-10.99,14.51-16.48,21.76-3.17,4.18-6.1,8.53-9.11,12.81-2.81,4-5.61,7.99-8.41,11.98-.94,1.33-1.89,2.68-2.82,4.02-.3.43-.62.85-.91,1.29-4.18,6.76-8.35,13.52-12.53,20.28-2.05,3.33-3.83,6.8-5.69,10.24-.44.83-.68,1.63-.48,2.58.25,1.12,1.12,2.14,2.24,2.47,0,0,0,0,.01,0,1.72.51,3.57-.31,4.21-2,1.39-2.63,2.71-5.32,4.28-7.85.74-1.2,1.48-2.39,2.22-3.58,2.56-4.12,5.12-8.25,7.68-12.37.99-1.6,1.98-3.19,2.97-4.78.3-.48.57-.98.9-1.44,1.72-2.43,3.43-4.85,5.14-7.27,4.76-6.74,9.51-13.48,14.28-20.22.93-1.32,1.95-2.58,2.93-3.87,2.75-3.61,5.49-7.21,8.24-10.81,2.9-3.81,5.81-7.63,8.71-11.44,1.31-1.72,2.59-3.48,3.94-5.17,4.5-5.62,9.04-11.21,13.57-16.81,2.77-3.43,5.54-6.86,8.31-10.29.93-1.14,1.83-2.3,2.78-3.43,5.45-6.47,10.9-12.94,16.35-19.41,3.31-3.93,6.61-7.87,9.84-11.87,4.93-6.08,9.86-12.16,14.8-18.24,2.28-2.81,4.44-5.74,6.64-8.61,2.44-3.19,4.89-6.4,7.34-9.59.88-1.14.37-2.93-.77-3.67-.39-.26-.85-.41-1.32-.43-.24-.01-.48,0-.71.06h0Z"/>
      <path class="cls-1" d="m479.39,54.51c-2.42,2.23-4.87,4.41-7.22,6.71-1.84,1.8-3.68,3.59-5.51,5.39-2.5,2.44-4.94,4.94-7.39,7.43-5.67,5.74-11.28,11.55-16.89,17.34-5.33,5.51-10.57,11.12-15.85,16.69-4.97,5.25-9.74,10.71-14.58,16.09-1.54,1.72-3.08,3.43-4.62,5.15-.84.95-1.72,1.87-2.53,2.84-1.99,2.4-3.99,4.8-5.99,7.2-3.42,4.12-6.84,8.22-10.26,12.34-1.34,1.61-2.74,3.18-4,4.87-5.57,7.45-11.16,14.91-16.74,22.37-1.1,1.47-2.21,2.92-3.23,4.45-2.54,3.77-5.07,7.53-7.61,11.3-2.72,4.04-5.44,8.09-8.17,12.13-.57.84-1.15,1.68-1.69,2.55-1.43,2.28-2.94,4.52-4.32,6.84-.64,1.06-1.22,2.15-1.77,3.25-.34.68-.67,1.38-1,2.08-.28.62-.6,1.29-.75,1.96-.26,1.14-.3,2.17.26,3.24.49.96,1.37,1.71,2.39,2.05,1.06.35,2.24.26,3.24-.26.65-.34,1.17-.81,1.58-1.42.3-.46.5-.95.6-1.47.28-.73.59-1.44.92-2.15,1.04-2.03,2.23-3.98,3.44-5.91.91-1.43,1.78-2.89,2.72-4.29.67-.98,1.33-1.97,2-2.96,2.86-4.26,5.73-8.52,8.59-12.78,2.3-3.42,4.6-6.84,6.89-10.26,1.16-1.72,2.47-3.34,3.71-5,5.39-7.2,10.77-14.4,16.16-21.6.34-.45.71-.87,1.07-1.3,1.23-1.48,2.46-2.95,3.7-4.44,3.45-4.15,6.91-8.29,10.37-12.44,1.49-1.78,2.97-3.56,4.45-5.33,5.53-6.14,11.06-12.28,16.59-18.43,4.92-5.46,10.06-10.72,15.11-16.07,5.12-5.4,10.23-10.81,15.34-16.23,2.14-2.26,4.21-4.58,6.3-6.88,2.34-2.59,4.7-5.15,6.98-7.79,1.68-1.95,3.37-3.9,5.05-5.84,2.27-2.63,4.44-5.33,6.64-8.02.74-.91.48-2.4-.25-3.22-.48-.53-1.15-.82-1.84-.86-.68-.03-1.37.18-1.89.67h0Z"/>
      <path class="cls-1" d="m519.09,58.04c-4.76,5-9.59,9.94-14.26,15.03-3.52,3.84-7.05,7.68-10.58,11.51-2.13,2.33-4.32,4.6-6.4,6.97-2.06,2.35-4.11,4.7-6.16,7.05-6.08,6.95-12.16,13.9-18.24,20.86-1.51,1.73-2.95,3.52-4.42,5.28-3.39,4.08-6.77,8.16-10.16,12.24-3.13,3.77-6.25,7.55-9.39,11.32-1.02,1.23-2.03,2.45-3,3.71-6,7.83-12,15.66-18.01,23.5-1.12,1.45-2.24,2.92-3.36,4.38-.35.45-.74.91-1.06,1.39-1.74,2.56-3.48,5.12-5.22,7.68-5.46,8.04-10.92,16.08-16.38,24.13-1.4,2.05-2.82,4.07-4.31,6.04-1.62,2.14-3.22,4.29-4.53,6.64-.7,1.25-1.31,2.57-1.79,3.92-.18.5-.31,1.01-.43,1.52-.11.53-.22,1.07-.31,1.61,0,.38.04.76.1,1.14.34,2.25,2.86,3.63,4.96,3.17,1.74-.39,3.01-1.88,3.22-3.58.25-.95.58-1.87.98-2.77,2.14-4.06,5.23-7.52,7.83-11.28.58-.84,1.14-1.71,1.72-2.56,2.54-3.73,5.07-7.46,7.6-11.2,3.09-4.55,6.18-9.1,9.26-13.66,1.06-1.56,2.12-3.12,3.17-4.68.37-.54.71-1.11,1.11-1.63,5.19-6.78,10.37-13.56,15.56-20.34,2.42-3.16,4.83-6.31,7.25-9.48,1.08-1.41,2.23-2.75,3.36-4.12,7.39-8.95,14.84-17.84,22.15-26.86-.23.27-.45.53-.68.79,4.22-4.91,8.41-9.83,12.61-14.76,4.1-4.79,8.25-9.55,12.3-14.39,3.88-4.51,7.76-9.02,11.65-13.54,1.89-2.19,3.78-4.38,5.67-6.58,4.21-4.88,8.28-9.89,12.41-14.84.79-.95.51-2.55-.26-3.4-.5-.55-1.25-.88-2.01-.92-.71-.04-1.42.18-1.93.72h0Z"/>
      <path class="cls-1" d="m592.54,3.9c-2.64,2.63-5.34,5.21-7.9,7.92-1.93,2.04-3.85,4.09-5.78,6.13-2.37,2.52-4.73,5.05-7.08,7.6-3.1,3.36-6.2,6.72-9.31,10.07-2.81,3.02-5.69,5.98-8.53,8.96-5.43,5.7-10.87,11.38-16.38,17-5.49,5.59-10.96,11.21-16.48,16.77-7.37,7.42-14.74,14.85-22.11,22.26-5.19,5.22-10.17,10.64-15.24,15.97-3.77,3.98-7.56,7.94-11.33,11.92-1.48,1.55-2.93,3.1-4.32,4.73-6.9,8.08-13.79,16.16-20.67,24.25-2.01,2.35-4.01,4.69-6.01,7.05-.52.6-.96,1.28-1.44,1.92-1.29,1.72-2.59,3.44-3.88,5.17-6.29,8.38-12.58,16.76-18.86,25.14-.68.91-1.36,1.81-2.08,2.68-2.22,2.52-4.58,4.94-6.58,7.65-1.01,1.38-1.82,2.94-2.41,4.55-.29.79-.39,1.66-.54,2.5-.17,1.02-.09,2.31.46,3.21.64,1.04,1.42,1.84,2.61,2.23,1.16.38,2.46.28,3.54-.28,1.05-.55,1.86-1.49,2.24-2.62.16-.49.24-.99.23-1.48,0-.11.02-.22.03-.32.1-.34.22-.67.35-1,.76-1.35,1.7-2.58,2.69-3.77,2.24-2.56,4.6-5.02,6.64-7.75.78-1.03,1.55-2.07,2.33-3.1,3.31-4.41,6.62-8.82,9.93-13.22,3.3-4.41,6.61-8.81,9.92-13.22,1.09-1.46,2.15-2.92,3.33-4.3,8.66-10.16,17.32-20.33,25.99-30.48,6.26-6.6,12.54-13.17,18.8-19.77,4.49-4.73,8.98-9.45,13.57-14.08,6.9-6.97,13.81-13.93,20.71-20.9,6.34-6.39,12.55-12.9,18.82-19.34,5.66-5.82,11.13-11.82,16.66-17.76,1.93-2.08,3.87-4.16,5.74-6.29,3.53-4.02,7.05-8.06,10.57-12.08,2.09-2.39,4.09-4.87,6.12-7.32,1.26-1.52,2.52-3.04,3.78-4.56,2.2-2.66,4.25-5.46,6.38-8.18.81-1.05.56-2.69-.28-3.63-.53-.59-1.32-.93-2.12-.97-.76-.04-1.53.2-2.09.76h0Zm-115.95,133.32c-.1.11-.2.23-.29.34.1-.11.2-.23.29-.34h0Z"/>
      <path class="cls-1" d="m614.23,21.33c-4.48,4.51-8.98,8.99-13.36,13.59-3.63,3.82-7.26,7.64-10.89,11.46-4.87,5.13-9.64,10.35-14.43,15.54-4.27,4.62-8.6,9.19-12.77,13.9-6.77,7.65-13.54,15.3-20.31,22.95-1.62,1.82-3.28,3.62-4.84,5.5-1.96,2.36-3.93,4.73-5.89,7.1-6.53,7.87-13.06,15.74-19.6,23.62-3.62,4.36-7.05,8.89-10.54,13.35-5.54,7.1-11.08,14.19-16.62,21.29-1.41,1.81-2.72,3.72-4.07,5.59-3.25,4.48-6.5,8.94-9.74,13.41-1.95,2.69-3.9,5.37-5.84,8.05-1.32,1.81-2.54,3.7-3.79,5.56-1.63,2.4-3.22,4.83-4.78,7.28-1.42,2.23-2.78,4.51-4.12,6.8-1.45,2.47-2.85,4.95-4.09,7.52-.45.94-.88,1.88-1.27,2.84-.49,1.21-.7,2.48-.97,3.75-.22.68-.26,1.38-.11,2.08.15.67.46,1.26.92,1.78.86.95,2.46,1.62,3.75,1.2.01,0,.02,0,.03,0,.67-.15,1.26-.46,1.78-.92.72-.64,1.17-1.55,1.27-2.51.19-.77.37-1.54.64-2.3.28-.81.65-1.6,1.02-2.38,1.05-2.09,2.23-4.12,3.42-6.13,1.46-2.46,2.93-4.91,4.46-7.32,1.44-2.26,2.93-4.49,4.43-6.72,1.38-2.03,2.73-4.1,4.19-6.09,1.95-2.68,3.9-5.36,5.85-8.04,3.26-4.47,6.51-8.94,9.77-13.4,1.35-1.86,2.66-3.78,4.08-5.59,5.55-7.09,11.1-14.18,16.64-21.28,3.5-4.46,6.93-8.98,10.56-13.34,8.44-10.16,16.91-20.31,25.33-30.48,5.28-5.97,10.56-11.94,15.84-17.9,4.08-4.61,8.13-9.25,12.26-13.81,6.51-7.17,13-14.35,19.51-21.53,5.04-5.56,9.93-11.25,14.88-16.87,4-4.54,7.84-9.23,11.73-13.87.81-.96.51-2.6-.27-3.48-.51-.57-1.27-.9-2.03-.94-.73-.04-1.46.19-2,.73h0Z"/>
      <path class="cls-1" d="m654.12,41.74c-2.38,1.97-4.78,3.92-7.16,5.89-1.47,1.22-2.99,2.4-4.41,3.68-1.65,1.48-3.31,2.97-4.96,4.46-2.28,2.05-4.56,4.11-6.85,6.16-.98.88-2,1.74-2.95,2.65-3.4,3.27-6.8,6.54-10.2,9.81-2.71,2.61-5.49,5.16-8.14,7.83-6.78,6.84-13.56,13.69-20.35,20.53-6.31,6.37-12.53,12.85-18.8,19.26-5.22,5.35-10.33,10.79-15.45,16.24-5.46,5.82-11.01,11.55-16.27,17.54-4.6,5.24-9.2,10.48-13.79,15.72-1.61,1.84-3.22,3.69-4.81,5.56-2.44,2.87-4.88,5.73-7.26,8.64-1.12,1.35-2.21,2.72-3.3,4.11-1.09,1.38-2.12,2.81-3.23,4.18-1.22,1.38-2.48,2.73-3.58,4.21-.67.91-1.17,2-1.58,3.04-.16.56-.28,1.13-.35,1.69-.09.6-.19,1.12.03,1.74.14.37.27.74.4,1.1.37.7.88,1.27,1.54,1.71,1.01.66,2.28.89,3.46.64,1.15-.26,2.16-.96,2.8-1.94.43-.66.68-1.4.73-2.19,0,0,0,0,0-.01.43-.75.95-1.42,1.5-2.09,1.2-1.36,2.41-2.72,3.5-4.18,1.49-2.01,3.04-3.98,4.61-5.93,3.02-3.75,6.13-7.42,9.24-11.11,6.08-6.98,12.16-13.97,18.23-20.95,1.67-1.91,3.44-3.74,5.17-5.59,4.2-4.5,8.41-9,12.62-13.5,2.19-2.35,4.34-4.73,6.58-7.03,2.9-3,5.81-5.98,8.71-8.97,5.68-5.85,11.33-11.72,17.06-17.52,4.17-4.23,8.35-8.47,12.52-12.7,2.13-2.16,4.24-4.36,6.41-6.48,6.19-6.02,12.32-12.1,18.57-18.05,8.08-7.71,16.14-15.45,24.15-23.23,1.29-1.25,1.48-3.29.24-4.66-.61-.68-1.41-1.02-2.23-1.06-.85-.04-1.73.24-2.43.82h0Z"/>
      <path class="cls-1" d="m693.51,13.95c-4.88,4.47-9.77,8.91-14.56,13.47-3.52,3.35-7.04,6.69-10.56,10.05-6.47,6.15-12.89,12.36-19.34,18.54-5.49,5.26-10.89,10.62-16.33,15.94-3.4,3.31-6.79,6.63-10.17,9.94-1.4,1.36-2.7,2.82-4.03,4.25-7.39,7.95-14.79,15.89-22.18,23.83-4.3,4.62-8.37,9.46-12.43,14.29-7.74,9.19-15.19,18.61-22.3,28.3-7.33,9.99-14.33,20.22-20.99,30.68-1.61,2.52-3.14,5.08-4.78,7.57-1.55,2.34-3.21,4.61-4.77,6.93-1.64,2.43-3.06,4.94-4.33,7.58-.53,1.1-.95,2.23-1.33,3.39-.19.57-.32,1.15-.46,1.73-.12.57-.22,1.15-.33,1.72.02.45.06.89.12,1.33.14,1.08.99,2.13,1.86,2.71.98.65,2.19.87,3.34.62,1.1-.24,2.08-.92,2.71-1.87.45-.68.65-1.41.68-2.18.4-1.61.98-3.15,1.67-4.66,1.71-3.28,3.83-6.31,5.94-9.34,2.31-3.31,4.43-6.74,6.6-10.15,4.72-7.45,9.65-14.77,14.73-21.97,5.09-7.23,10.35-14.35,15.8-21.31,5.49-7.02,11.18-13.87,16.98-20.63-.08.08-.15.17-.22.25,1.86-2.18,3.7-4.38,5.65-6.47,1.09-1.17,2.18-2.34,3.29-3.52,3.88-4.14,7.75-8.29,11.62-12.44,3.5-3.75,6.99-7.49,10.49-11.23,1.24-1.32,2.49-2.6,3.77-3.87,13.15-12.93,26.28-25.87,39.35-38.86,1.62-1.61,3.23-3.21,4.84-4.82,1.68-1.67,3.27-3.43,4.9-5.14,2.73-2.85,5.45-5.71,8.18-8.57,3.62-3.79,7.07-7.75,10.59-11.64.56-.62.94-1.21.99-2.07.04-.79-.24-1.57-.77-2.17-.55-.6-1.31-.93-2.08-.97-.77-.04-1.55.21-2.15.75h0Z"/>
      <path class="cls-1" d="m729.54,35.17c-5.02,4.74-10.07,9.43-14.99,14.26-4.12,4.05-8.25,8.1-12.37,12.15-5.41,5.32-10.73,10.71-16.07,16.08-5.06,5.08-10.16,10.13-15.14,15.3-7.35,7.63-14.71,15.26-22.06,22.9-5.34,5.55-10.5,11.29-15.74,16.94-3.13,3.39-6.28,6.78-9.42,10.18-1.85,2-3.53,4.15-5.26,6.25-5.31,6.42-10.63,12.83-15.94,19.25-1.12,1.35-2.16,2.76-3.22,4.15-2.91,3.83-5.75,7.71-8.51,11.66-1.38,1.96-2.73,3.96-4.05,5.96-1.16,1.76-2.27,3.51-3.55,5.18-2.31,3.01-5.16,6.46-4.99,10.48-.04.78.12,1.52.47,2.21.55,1.05,1.41,1.66,2.48,2.11,0,0,.01,0,.02,0,1.38.59,3.17.08,4.24-.88.98-.89,1.55-2.28,1.42-3.6,0-.02,0-.04,0-.06.08-.26.17-.51.27-.75.95-1.69,2.17-3.2,3.37-4.73,1.59-2.03,2.95-4.21,4.38-6.35,3.08-4.6,6.33-9.07,9.65-13.5,1.75-2.32,3.47-4.69,5.32-6.92,1.09-1.31,2.18-2.61,3.26-3.92,5.42-6.5,10.85-13,16.26-19.51,6.32-6.77,12.61-13.56,18.91-20.33,4.54-4.89,9.14-9.71,13.76-14.52,12.89-13.43,25.82-26.82,38.77-40.19,3.72-3.85,7.4-7.74,11.07-11.65,3.12-3.31,6.23-6.62,9.35-9.92,4.22-4.48,8.26-9.13,12.38-13.71.56-.62.95-1.23,1-2.11.04-.8-.24-1.6-.78-2.19-.55-.61-1.34-.95-2.13-.99-.78-.04-1.57.21-2.17.77h0Z"/>
      <path class="cls-1" d="m756.17,36.14c-5.37,4.93-10.76,9.83-16.04,14.87-4.15,3.95-8.29,7.91-12.43,11.86-6.5,6.2-12.96,12.44-19.43,18.67-5.81,5.58-11.52,11.24-17.27,16.89-3.32,3.27-6.64,6.54-9.97,9.8-2.08,2.06-4.09,4.2-6.12,6.3-4.36,4.49-8.72,8.98-13.08,13.47-1.97,2.03-4.01,4.01-5.91,6.1-7.08,7.77-14.17,15.55-21.25,23.32-1.21,1.33-2.41,2.65-3.62,3.97-1.12,1.24-2.17,2.56-3.24,3.85-1.3,1.55-2.58,3.12-3.86,4.69-2.72,3.33-5.39,6.71-8,10.14-5.06,6.62-9.79,13.46-14.19,20.53-2.13,3.42-4.17,6.9-6.17,10.39-1,1.75-1.99,3.51-2.9,5.31-1.04,2.02-2,4.09-3.02,6.12-.48.74-.74,1.54-.78,2.41-.04.87.13,1.69.53,2.47.39.74.94,1.35,1.64,1.82.74.48,1.53.74,2.4.78,0,0,.01,0,.02,0,1.22.16,2.6-.45,3.49-1.24.63-.57,1.1-1.3,1.36-2.1.43-.87.85-1.74,1.27-2.6,2.38-4.87,5.09-9.56,7.86-14.22,2.96-4.98,6.08-9.86,9.37-14.62,6.44-9.33,13.54-18.19,20.82-26.89,6.51-7.18,13.03-14.37,19.54-21.55,1.84-2.03,3.64-4.1,5.52-6.08,3.15-3.28,6.29-6.57,9.45-9.85,5.61-5.86,11.17-11.79,16.9-17.56,7.03-7.08,14.06-14.16,21.1-21.25,6.74-6.77,13.55-13.47,20.32-20.2,6.02-5.99,11.88-12.15,17.8-18.23,4.08-4.2,8-8.54,11.99-12.82.58-.61.96-1.25,1.01-2.12.04-.81-.24-1.6-.78-2.2-.56-.62-1.34-.96-2.13-1-.79-.04-1.58.21-2.19.78h0Z"/>
      <path class="cls-1" d="m796.51,25.1c-4.94,4.99-9.97,9.9-14.74,15.06-3.62,3.9-7.24,7.82-10.86,11.73-5.1,5.51-9.99,11.23-14.95,16.88-4.56,5.2-9.08,10.42-13.57,15.68-3.57,4.17-7.14,8.35-10.71,12.52-1.39,1.63-2.8,3.23-4.15,4.89-6.1,7.44-12.2,14.88-18.3,22.31-1.33,1.63-2.7,3.23-3.99,4.89-2.42,3.11-4.83,6.23-7.25,9.35-10.51,13.56-21,27.14-31.45,40.75-.58.76-1.13,1.55-1.75,2.27-1.43,1.67-2.86,3.34-4.29,5.02-2.05,2.4-4.11,4.81-6.17,7.21-.58.69-1.17,1.37-1.75,2.05-1.17,1.36-2.21,2.83-3.29,4.25-.86,1.12-.84,2.84-.21,4.05.33.63.78,1.13,1.36,1.52.98.64,1.96.69,3.07.56.01,0,.02,0,.04,0,.98-.11,1.98-.93,2.5-1.73.05-.07.09-.15.14-.23,1.36-1.82,2.72-3.62,4.19-5.35,1.67-1.96,3.34-3.92,5.02-5.87,1.64-1.93,3.29-3.86,4.94-5.79.5-.58,1.01-1.15,1.47-1.76,5.65-7.34,11.31-14.68,16.97-22.02,4.24-5.51,8.54-10.97,12.83-16.44,4.08-5.22,8.06-10.52,12.27-15.63,6.33-7.68,12.67-15.37,19-23.05,4.29-5.2,8.7-10.31,13.06-15.45,9.24-10.88,18.51-21.72,27.77-32.59,5.48-6.36,11.01-12.67,16.47-19.03-.04.05-.08.09-.12.14,3.42-3.99,6.9-7.93,10.35-11.91.53-.61.91-1.16.96-2.01.04-.77-.24-1.52-.74-2.09-.52-.58-1.29-.91-2.07-.95-.74-.04-1.49.19-2.04.74h0Zm-22.58,34.83c-.05.06-.11.13-.16.19.05-.06.11-.13.16-.19h0Z"/>
      <path class="cls-1" d="m846.32,14.5c-4.83,4.91-9.69,9.8-14.46,14.77-3.82,3.99-7.63,7.98-11.45,11.96-5.42,5.67-10.84,11.35-16.27,17.02-11.55,12.09-23.24,24.03-34.91,36-10.06,10.32-19.99,20.76-30.02,31.1-6.56,6.78-13.13,13.55-19.68,20.32-2.71,2.8-5.4,5.61-8.1,8.42-2.34,2.44-4.75,4.83-7.02,7.34-3.47,3.83-6.93,7.67-10.4,11.49-1.94,2.16-3.87,4.31-5.74,6.52-3.53,4.17-7.07,8.33-10.59,12.5-2.88,3.4-5.76,6.78-8.54,10.26-4.35,5.46-8.61,10.99-12.59,16.71-1.83,2.65-3.77,5.24-5.51,7.96-.88,1.38-1.64,2.83-2.33,4.32-.36.77-.69,1.53-.92,2.35-.29,1-.34,2.09-.49,3.11-.27,1.89,1.25,3.7,2.93,4.29.02,0,.04.02.06.03,2.21.77,4.7-.54,5.43-2.72.17-.5.23-1.01.2-1.53.03-.26.07-.52.1-.78.17-.54.38-1.05.61-1.56,1.97-3.83,4.66-7.22,7.11-10.76,2.91-4.21,6-8.28,9.15-12.31,2.92-3.74,5.89-7.42,8.97-11.03,4.86-5.71,9.69-11.44,14.57-17.13,2.89-3.15,5.75-6.33,8.63-9.48,2.16-2.38,4.28-4.8,6.5-7.1,5.37-5.56,10.72-11.11,16.1-16.65,12.51-12.87,25-25.75,37.47-38.65,11.66-12.07,23.33-24.13,35-36.18,1.32-1.37,2.6-2.75,3.88-4.14,3.76-4.08,7.52-8.15,11.27-12.23,2.86-3.11,5.73-6.21,8.59-9.31,2.21-2.39,4.3-4.89,6.44-7.33,2.77-3.17,5.54-6.33,8.32-9.49,4.12-4.7,8.05-9.55,12.06-14.34.83-.99.52-2.65-.28-3.54-.52-.58-1.29-.92-2.07-.96-.74-.04-1.49.19-2.03.74h0Zm-149.19,167.84c-.19.23-.39.46-.58.68.2-.23.39-.46.58-.68h0Z"/>
      <path class="cls-1" d="m788.01,104.8c-2.65,2.32-5.3,4.64-7.95,6.96-1.82,1.59-3.68,3.15-5.44,4.8-1.51,1.41-3.03,2.82-4.54,4.24-4.87,4.55-9.74,9.11-14.61,13.66-2.06,1.93-4.02,3.94-5.99,5.96-4.83,4.96-9.67,9.93-14.5,14.89-2.28,2.33-4.56,4.67-6.83,7.01-3.7,3.81-7.14,7.88-10.61,11.9-6.04,7.01-11.88,14.18-17.23,21.72-5.29,7.44-10.25,15.11-15.13,22.82-1.6,2.53-.95,5.93,1.58,7.59,2.45,1.61,6,.95,7.58-1.58,5.01-7.97,10.1-15.87,15.52-23.57,5.55-7.88,11.65-15.37,17.91-22.69-.19.22-.37.44-.56.66,2.51-2.92,4.99-5.86,7.62-8.66,1.55-1.65,3.1-3.3,4.65-4.96,4.81-5.13,9.62-10.26,14.44-15.39,2.21-2.35,4.39-4.75,6.65-7.06,4.28-4.39,8.57-8.78,12.86-13.17,6.46-6.61,12.81-13.31,19.17-20.03.64-.68,1.08-1.41,1.13-2.37.05-.9-.27-1.8-.88-2.47-.63-.7-1.48-1.07-2.35-1.11-.88-.04-1.78.24-2.49.86h0Zm-61.12,74.74c.11-.13.22-.25.33-.38-.11.13-.22.25-.33.38h0Z"/>
      <path class="cls-1" d="m864.67,31.09c-2.7,2.42-5.42,4.82-8.13,7.24-1.26,1.13-2.55,2.24-3.77,3.42-1.99,1.92-3.98,3.86-5.97,5.78-2.47,2.39-4.95,4.8-7.42,7.19-1,.97-2.05,1.91-3,2.93-3.86,4.08-7.71,8.16-11.56,12.24-2.31,2.45-4.62,4.89-6.93,7.34-1.11,1.19-2.23,2.35-3.3,3.57-.04.05-.09.1-.14.16-.03.04-.07.08-.1.12-.28.33-.56.66-.85.99,0,0-.01.01-.02.02-.03.03-.05.06-.08.09.02-.03.05-.05.07-.08-.03.03-.06.07-.09.11-.05.05-.09.1-.14.16-.15.18-.3.35-.45.53.09-.1.18-.2.27-.31-.15.18-.3.35-.45.53-.07.08-.14.16-.2.24-.02.02-.03.03-.05.05-.16.19-.33.38-.49.57-.45.45-.84.96-1.26,1.46-.17.2-.35.4-.52.61-.16.17-.31.36-.48.55-.25.29-.49.58-.74.87-.02.03-.05.05-.07.08-.6.7-1.2,1.4-1.8,2.09-.34.4-.69.8-1.03,1.2.02-.02.04-.05.06-.07-.13.15-.26.3-.39.46-.36.41-.69.76-.97,1.13-.17.2-.34.4-.51.6-.07.08-.14.16-.21.24-.03.03-.07.07-.1.11-.03.03-.06.07-.09.1-.19.21-.37.42-.54.63-.32.37-.63.74-.95,1.1-.74.69-1.37,1.56-1.99,2.32-.17.2-.34.4-.51.59-.26.3-.52.6-.77.9.03-.03.05-.06.08-.09-.06.07-.11.13-.17.2-.03.03-.06.07-.09.1-.24.28-.48.55-.71.83-.03.04-.06.08-.09.11-.03.04-.06.08-.1.11-.17.2-.34.4-.51.59-.79.77-1.46,1.7-2.17,2.52-.08.09-.16.18-.23.27.02-.02.03-.04.05-.06-.15.17-.3.35-.45.53-.07.08-.14.17-.21.25-.07.08-.13.14-.19.22.09-.1.18-.2.27-.31-.03.03-.06.07-.08.1-.1.11-.2.22-.29.33-.06.08-.13.15-.19.23.02-.02.04-.04.06-.07-.18.21-.35.41-.53.62.09-.11.19-.22.29-.33-.19.22-.38.44-.57.66-.01.01-.02.03-.04.04,0,0,0-.01.01-.02-.04.05-.09.1-.13.16-.05.05-.09.11-.14.16.03-.03.06-.07.09-.1-.2.23-.4.47-.6.7-.04.04-.07.09-.11.13-2.92,3.46-5.67,7.06-8.5,10.59-4.02,5.02-8.04,10.03-12.06,15.05-2.1,2.61-4.11,5.29-6.15,7.95-4.22,5.48-8.43,10.95-12.64,16.43-12.22,15.89-24.12,32.03-36.03,48.15-3.04,4.11-5.97,8.33-8.81,12.59-2.06,3.1-3.99,6.29-5.82,9.54-1.95,3.48-3.71,7.07-5.05,10.83-.5,1.41-.34,3.04.34,4.36.62,1.19,1.87,2.43,3.22,2.75t.01,0c1.52.35,2.92.4,4.35-.34,1.3-.67,2.3-1.85,2.75-3.23.04-.11.07-.22.1-.33.58-1.68,1.23-3.29,1.97-4.9,3.1-6.22,6.81-12.1,10.71-17.84,1.95-2.86,3.91-5.7,5.94-8.49,3.97-5.46,7.94-10.91,11.9-16.37,6.1-8.39,12.36-16.65,18.55-24.96,6.03-8.09,12.2-16.07,18.32-24.08,5.98-7.84,12.18-15.5,18.34-23.21,2.15-2.7,4.3-5.41,6.46-8.1.24-.24.44-.5.62-.77,1.39-1.62,2.78-3.25,4.17-4.87.04-.04.07-.08.1-.12.2-.23.39-.46.59-.68.25-.24.47-.5.66-.77,1-1.17,1.99-2.34,2.99-3.51.26-.24.48-.51.68-.8.27-.32.55-.64.82-.96.26-.24.49-.52.7-.82.25-.29.5-.59.75-.88.29-.27.55-.57.77-.9.98-1.15,1.95-2.29,2.93-3.44.3-.27.56-.58.8-.94h0c.16-.19.32-.37.48-.56.31-.29.58-.61.81-.95.28-.33.57-.67.85-1,.31-.28.57-.59.79-.93.85-.99,1.69-1.98,2.54-2.98,6.93-7.51,13.83-15.04,20.75-22.56,3.27-3.55,6.63-7.02,9.94-10.54,5.57-5.91,11.07-11.89,16.57-17.88.67-.73,1.13-1.45,1.18-2.47.05-.94-.28-1.88-.92-2.58-.65-.72-1.55-1.11-2.47-1.16-.92-.05-1.85.25-2.58.9h0Zm-50.41,50.09s0,0,0,0c0,0,0,0,0,0h0Zm-13.36,15.55c-.12.14-.24.28-.36.42.12-.14.24-.28.36-.42h0Zm-.73.86s-.08.09-.12.14c.04-.05.08-.09.12-.14h0Zm-8.02,9.34c.23-.27.46-.54.69-.81-.23.27-.46.54-.69.81h0Zm1.71-2c-.16.19-.32.37-.48.56.05-.06.1-.12.15-.18.08-.1.17-.19.25-.29-.18.21-.36.41-.53.62-.13.15-.26.3-.39.45.11-.13.23-.27.34-.4-.03.03-.06.07-.09.1,0,0,.02-.02.02-.03.09-.1.17-.2.26-.3,0-.01.02-.02.03-.03,0,0,0,0,0,0,.16-.19.32-.37.48-.56-.01.01-.03.03-.04.04h0Zm-.08.09s.05-.06.08-.09c.07-.08.13-.15.2-.23-.09.11-.18.21-.28.32h0Zm.28-.32s.02-.03.04-.04c.05-.05.09-.11.14-.16-.06.07-.12.14-.17.2h0Zm4.59-5.35c.06-.06.11-.13.17-.2.03-.03.06-.07.09-.1,0,0,.01-.02.02-.03.02-.03.05-.06.07-.08-.12.14-.23.27-.35.41h0Zm7.38-8.59c.26-.3.52-.61.78-.92-.26.31-.52.61-.78.92h0Zm6.18-7.2c.05-.05.09-.11.14-.16.08-.1.17-.2.25-.3.06-.07.12-.15.19-.22-.19.22-.39.45-.58.68h0Zm.53-.62c.22-.25.43-.5.65-.75-.22.25-.43.5-.65.75h0Zm.73-.84s0,0,.01-.01c.03-.03.05-.06.08-.09-.03.03-.06.07-.09.1h0Zm.38-.45c.09-.11.19-.21.28-.32-.09.11-.19.21-.28.32h0Zm-.46.54c.07-.08.13-.15.2-.23,0,.01-.02.02-.03.04.22-.25.43-.5.65-.76-.27.32-.54.63-.82.95h0Zm1.01-1.18s.05-.06.08-.09c-.12.14-.24.27-.35.41.02-.02.04-.04.06-.07-.19.22-.38.44-.57.66.22-.25.44-.51.66-.76.06-.07.11-.13.17-.2,0,0,.01-.01.02-.02-.05.06-.1.12-.16.18.06-.07.12-.14.18-.21.03-.04.06-.07.1-.11.22-.26.45-.52.67-.78-.28.33-.56.65-.85.98h0Z"/>
      <path class="cls-1" d="m895.69,36.34c-3.09,3.16-6.27,6.26-9.28,9.51-1.27,1.36-2.53,2.73-3.79,4.09-3.11,3.35-6.22,6.71-9.34,10.06-2.01,2.16-3.95,4.4-5.91,6.61-3.48,3.89-6.96,7.78-10.44,11.68-4.65,5.21-9.16,10.54-13.72,15.83-4.4,5.1-8.8,10.19-13.14,15.33-5.99,7.09-11.93,14.21-17.94,21.27-5.71,6.36-11.4,12.72-17.1,19.08-1.44,1.61-2.85,3.23-4.35,4.78-3.44,3.54-6.87,7.08-10.3,10.62-3.68,3.79-7.36,7.6-11.04,11.39-2.66,2.74-5.32,5.48-7.98,8.22-1.36,1.4-2.68,2.82-4.02,4.24-1.53,1.62-3,3.29-4.43,5-.65.78-1.27,1.58-1.86,2.4-.55.79-1,1.66-1.49,2.48-.63,1.05-.9,2.22-.63,3.42.32,1.47,1.48,2.87,2.96,3.28,0,0,.02,0,.03,0,1.19.33,2.37.3,3.48-.27.99-.51,1.74-1.37,2.13-2.38.4-.73.8-1.46,1.26-2.15.72-1.08,1.56-2.08,2.4-3.06,3.4-3.91,7.02-7.64,10.58-11.39,2.69-2.83,5.37-5.67,8.08-8.49,5.7-5.95,11.39-11.92,17.09-17.87,1.78-1.86,3.44-3.86,5.15-5.78,3.64-4.1,7.29-8.2,10.94-12.31,1.86-2.1,3.77-4.15,5.56-6.3,2.37-2.82,4.73-5.65,7.09-8.48,10.86-12.98,21.77-25.93,32.7-38.86,9.38-11.1,18.8-22.17,28.14-33.3,4.32-5.14,8.57-10.34,12.83-15.53.68-.83.44-2.21-.23-2.96-.43-.48-1.08-.77-1.74-.8-.62-.03-1.24.16-1.69.62h0Z"/>
      <path class="cls-1" d="m945.12,30.02c-3.45,2.49-6.96,4.91-10.36,7.48-2.04,1.54-4.09,3.08-6.13,4.62-1.32.99-2.67,1.94-3.95,2.98-1.74,1.41-3.47,2.82-5.21,4.22-5.8,4.69-11.41,9.62-16.88,14.7-2.81,2.61-5.69,5.15-8.43,7.83-3.56,3.48-7.13,6.98-10.7,10.46-5.53,5.4-10.91,10.94-16.34,16.45-2.91,2.96-5.83,5.92-8.74,8.88-1.65,1.68-3.2,3.46-4.79,5.19-6.84,7.42-13.67,14.83-20.51,22.25-1.23,1.33-2.42,2.71-3.62,4.07-3.53,4.01-7.05,8.01-10.57,12.02-4.5,5.11-9.01,10.21-13.48,15.35-11.15,12.79-22.31,25.57-33.49,38.33-1.93,2.2-3.92,4.36-5.84,6.56-1.14,1.31-2.26,2.63-3.36,3.99-1,1.24-1.87,2.55-2.77,3.87-.69,1.02-.92,2.35-.65,3.55.24,1.07.97,2.35,1.99,2.88,0,0,.01,0,.01,0,.71.46,1.48.71,2.32.76.84.04,1.63-.13,2.38-.51.89-.46,1.6-1.2,2.04-2.09.62-.99,1.23-1.96,1.94-2.89.87-1.15,1.79-2.25,2.72-3.34,3.39-3.92,6.83-7.8,10.22-11.72,3.25-3.76,6.51-7.52,9.76-11.27,5.47-6.32,10.92-12.66,16.39-18.98,4.28-4.96,8.58-9.9,12.89-14.83,3.73-4.28,7.47-8.56,11.21-12.85,1.66-1.91,3.28-3.85,4.98-5.72,6.3-6.88,12.59-13.77,18.88-20.66,2.26-2.48,4.53-4.95,6.79-7.43,2.02-2.22,4.2-4.32,6.3-6.47,5.56-5.71,11.06-11.5,16.73-17.11,3.78-3.74,7.55-7.48,11.32-11.22,2.3-2.28,4.67-4.5,7.02-6.73,5.53-5.25,11.06-10.51,16.75-15.6,2.89-2.59,5.76-5.22,8.71-7.75,4.03-3.46,8.05-6.91,12.04-10.41,1.94-1.71,3.9-3.4,5.84-5.09,1.04-.91,1.1-2.57.18-3.59-.45-.5-1.08-.8-1.76-.84-.73-.04-1.26.24-1.83.65h0Zm-172.45,187.65c-.16.18-.31.36-.47.54.16-.18.31-.36.47-.54h0Z"/>
      <path class="cls-1" d="m940.08,65.27c-4.15,4.26-8.32,8.5-12.47,12.76-2.19,2.25-4.42,4.49-6.54,6.81-3.19,3.49-6.39,6.98-9.58,10.47-3.43,3.75-6.87,7.5-10.3,11.25-1.64,1.79-3.16,3.68-4.7,5.55-3.61,4.4-7.22,8.8-10.84,13.19-2.08,2.54-4.24,5.03-6.25,7.62-5.62,7.28-11.22,14.57-16.84,21.85-2.85,3.7-5.7,7.42-8.54,11.13-2.01,2.63-4.03,5.25-6.04,7.88-.93,1.21-1.89,2.4-2.87,3.57-1.05,1.26-2.11,2.52-3.07,3.85-.47.66-.89,1.34-1.3,2.05-.27.48-.52.98-.74,1.48-.2.63-.32,1.24-.46,1.88-.22.69-.26,1.38-.11,2.09.15.67.46,1.27.92,1.78.47.52,1.03.88,1.68,1.1.9.3,2.21.31,3.04-.24.03-.02.06-.04.09-.06.6-.31,1.08-.75,1.47-1.32.29-.44.48-.93.57-1.44.08-.21.15-.42.24-.62.96-1.67,2.14-3.18,3.38-4.65,1.59-1.85,3.17-3.7,4.66-5.63,1.54-2,3.08-4,4.62-5.99,2.72-3.52,5.44-7.03,8.15-10.55,5.46-7.06,10.91-14.13,16.35-21.21,2.9-3.76,5.92-7.4,8.91-11.08,4.18-5.15,8.41-10.27,12.56-15.44,3.42-3.87,6.81-7.76,10.22-11.64,3.55-4.04,7.14-8.05,10.64-12.13-.07.08-.13.15-.2.23,5.81-6.67,11.72-13.23,17.58-19.84.59-.66,1-1.28,1.04-2.19.04-.84-.25-1.67-.81-2.29-.56-.63-1.41-1-2.27-1.04-.81-.04-1.62.21-2.21.81h0Z"/>
      <path class="cls-1" d="m.97,160.44c-.41.22-.73.59-.88,1.03-.14.41-.15,1.02.11,1.4,2.77,4.03,5.51,8.08,8.31,12.08-.02-.02-.03-.05-.05-.07.67.96,1.37,1.89,2.05,2.83,1.45,1.97,2.89,3.94,4.32,5.91,2.18,2.99,4.33,5.99,6.54,8.95-.1-.15-.21-.3-.31-.46.71,1.05,1.56,2,2.35,2.99,1.68,2.07,3.35,4.15,5.02,6.22,3.37,4.17,6.73,8.34,10.1,12.5,1.51,1.87,3.15,3.61,4.76,5.39,3.96,4.38,7.91,8.74,11.87,13.11,1.45,1.6,2.9,3.2,4.35,4.8.43.47.84.93,1.28,1.38,3.32,3.37,6.63,6.74,9.95,10.11,3.4,3.46,6.82,6.92,10.23,10.39.48.5.99.98,1.49,1.46,2.16,2.08,4.34,4.15,6.53,6.19,4.37,4.07,8.86,7.99,13.46,11.8,1.78,1.47,3.59,2.9,5.46,4.25.93.67,1.87,1.32,2.85,1.91.96.58,2.01,1.03,3.02,1.51.16.08.32.16.48.23.52.26,1.05.36,1.59.08.54-.28.76-.76.86-1.32,0,0,0-.01,0-.03.11-.68-.47-1.37-1.08-1.58-.02,0-.04-.01-.06-.02-.83-.42-1.66-.82-2.48-1.27-1.08-.6-2.09-1.36-3.1-2.08-1.95-1.42-3.82-2.97-5.66-4.55.02.02.04.03.06.05-.09-.08-.18-.16-.27-.23-.02-.02-.04-.04-.06-.06,0,0,.02.02.03.02-4.39-3.79-8.7-7.67-12.89-11.69-2.52-2.42-5.06-4.83-7.49-7.35-3.43-3.55-6.86-7.11-10.29-10.67-3.22-3.33-6.43-6.67-9.66-10-.46-.47-.88-.96-1.32-1.45-1.47-1.65-2.95-3.3-4.42-4.95-3.92-4.39-7.84-8.78-11.75-13.16-1.58-1.77-3.17-3.5-4.65-5.34-3.39-4.22-6.79-8.44-10.19-12.67-1.65-2.05-3.29-4.09-4.94-6.14-.63-.78-1.3-1.55-1.9-2.36-6.54-8.83-13.18-17.59-19.72-26.43-.58-.79-1.17-1.57-1.76-2.36-.28-.37-.74-.56-1.21-.59-.34-.02-.68.05-.96.19h0Z"/>
      <path class="cls-1" d="m25.42,138.5c-.47.42-.75,1.01-.78,1.64-.03.66.21,1.19.61,1.71,3.31,4.36,6.56,8.76,9.97,13.04,2.38,3,4.77,5.99,7.15,8.99,2.96,3.72,5.9,7.44,8.93,11.09,5,6.05,10,12.1,15.01,18.15.84,1,1.65,2.03,2.52,3,2.11,2.36,4.22,4.72,6.33,7.07,3.98,4.44,7.95,8.88,11.93,13.32,1.74,1.94,3.61,3.77,5.44,5.63,2.63,2.67,5.32,5.29,8.07,7.83,2.64,2.43,5.3,4.87,8.06,7.15,1.32,1.09,2.71,2.1,4.16,3,1.48.91,3.1,1.39,4.71,2.01,1.73.66,3.56-.75,3.67-2.51,0-.04,0-.08,0-.11.1-1.5-1.1-2.83-2.59-2.94-.7-.25-1.41-.49-2.09-.78-1.88-1.06-3.6-2.4-5.25-3.79.11.09.21.18.31.27-.12-.1-.23-.2-.35-.3-.07-.06-.13-.11-.2-.17.06.05.12.1.17.15-1.3-1.13-2.56-2.3-3.83-3.47-1.59-1.47-3.2-2.92-4.77-4.42-3.08-2.95-6.05-6-9-9.08-1.91-2-3.75-4.06-5.59-6.13-4.92-5.53-9.85-11.06-14.77-16.59-.85-.96-1.65-1.96-2.47-2.95-2.45-2.95-4.89-5.91-7.34-8.86-3.51-4.24-7.04-8.48-10.54-12.73-3.41-4.16-6.83-8.32-10.25-12.47-4.57-5.57-9.23-11.07-13.88-16.57-.41-.49-1.01-.74-1.62-.77-.63-.03-1.27.17-1.74.6h0Zm85.81,93.47s.02.02.04.03c-.02-.02-.04-.03-.06-.05,0,0,.02.01.03.02h0Z"/>
      <path class="cls-1" d="m25.94,123.22c-.53.48-.86,1.17-.9,1.9-.04.77.24,1.39.7,1.99,3.91,5.08,7.73,10.24,11.77,15.21,3.08,3.8,6.16,7.59,9.24,11.39,4.06,5,8.24,9.87,12.41,14.77,3.99,4.69,7.91,9.41,12.05,13.96,5.74,6.31,11.48,12.61,17.22,18.91,1.16,1.27,2.41,2.46,3.62,3.67,2.56,2.55,5.15,5.07,7.77,7.55,5.19,4.89,10.56,9.58,16.11,14.05,5.44,4.39,11.11,8.46,17.01,12.2,3,1.9,6.12,3.62,9.39,5.01,1.44.6,2.98,1.32,4.57,1.45,1.83.16,3.81-.43,4.45-2.36.44-1.37-.09-2.9-1.29-3.69-.48-.32-1.02-.49-1.6-.52-.32-.02-.61.01-.89.08-.6-.18-1.18-.43-1.76-.69-.86-.38-1.73-.75-2.58-1.15-2.44-1.23-4.77-2.65-7.06-4.15-2.47-1.62-4.91-3.29-7.31-5.02-4.69-3.37-9.17-7.01-13.56-10.76-3.79-3.25-7.47-6.61-11.08-10.06-1.73-1.67-3.45-3.35-5.16-5.05-.85-.85-1.7-1.7-2.55-2.55-.84-.85-1.73-1.69-2.53-2.57-1.99-2.2-3.98-4.39-5.97-6.59-3.38-3.74-6.77-7.47-10.14-11.2-1.41-1.56-2.85-3.08-4.22-4.67-10.01-11.64-20.01-23.29-30-34.95-4.58-5.35-9.23-10.65-13.86-15.96-.49-.56-1.18-.86-1.88-.9-.72-.04-1.45.2-2.01.7h0Z"/>
      <path class="cls-1" d="m63.26,123.09c-.56.5-.9,1.21-.94,1.97-.04.81.26,1.43.73,2.05,4.35,5.82,8.54,11.78,13.13,17.41,3.3,4.04,6.59,8.08,9.89,12.11,1.83,2.24,3.61,4.54,5.5,6.73,2.57,2.98,5.13,5.96,7.69,8.95,4.66,5.42,9.27,10.88,14.01,16.24,6.36,7.19,12.72,14.37,19.07,21.55,1.31,1.48,2.67,2.89,4.03,4.31,3.71,3.9,7.43,7.8,11.14,11.7,2.44,2.57,4.88,5.14,7.33,7.7.59.62,1.25,1.19,1.87,1.78,1.72,1.64,3.45,3.29,5.17,4.93,4.17,3.96,8.33,7.93,12.49,11.9,1.11,1.07,2.29,2.07,3.44,3.1,1.58,1.4,3.16,2.79,4.76,4.16,2.83,2.43,5.72,4.79,8.72,7,2.91,2.15,5.96,4.11,9.07,5.94,3.23,1.9,6.61,3.55,10,5.15,1.26.66,2.48,1.41,3.79,1.96,1.32.56,2.93,1.03,4.37.7,2.18-.5,3.62-2.71,3.13-4.91-.23-1.04-.87-1.97-1.77-2.56-.65-.43-1.36-.64-2.09-.66,0,0,0,0-.01,0-.35-.11-.69-.24-1.03-.38-1.06-.56-2.12-1.14-3.21-1.65-.88-.4-1.75-.82-2.63-1.23-4.37-2.14-8.57-4.56-12.6-7.27-3.9-2.61-7.55-5.54-11.11-8.58,0,0,.02.02.03.02-.01-.01-.03-.02-.04-.03-.25-.21-.49-.42-.74-.63.13.11.26.22.39.33-2.38-2.05-4.77-4.1-7.05-6.26-1.33-1.26-2.66-2.52-3.98-3.78-3.94-3.74-7.88-7.48-11.82-11.22-1.54-1.46-3.07-2.9-4.53-4.43-3.37-3.53-6.74-7.06-10.12-10.59-3.15-3.3-6.3-6.6-9.46-9.91-1.41-1.48-2.75-3.03-4.11-4.56-6.03-6.78-12.05-13.56-18.08-20.34-5.5-6.18-10.9-12.46-16.35-18.69-4.58-5.24-9.12-10.51-13.67-15.78-2.44-2.83-4.88-5.66-7.32-8.49-4.43-5.14-8.75-10.35-13.11-15.53-.49-.59-1.2-.89-1.93-.93-.75-.04-1.52.21-2.09.72h0Zm123.96,130.09s0,0,.01,0c-.12-.1-.24-.21-.36-.31l.35.3h0Z"/>
      <path class="cls-1" d="m76.92,103.24c-.65.58-1.03,1.41-1.08,2.27-.05.95.32,1.61.84,2.37,3.59,5.14,7.14,10.29,10.74,15.43,1.38,1.96,2.75,3.91,4.18,5.83,3.36,4.5,6.72,9,10.07,13.5,2.36,3.16,4.71,6.31,7.07,9.47.66.89,1.4,1.74,2.1,2.61,1.67,2.08,3.35,4.15,5.02,6.23,3.71,4.6,7.41,9.2,11.12,13.8,1.4,1.74,2.82,3.45,4.28,5.14,6.41,7.42,12.82,14.84,19.23,22.26,1.92,2.22,4.02,4.31,6.05,6.43,2.54,2.65,5.11,5.27,7.71,7.85,5.32,5.27,10.88,10.29,16.59,15.14,5.64,4.78,11.48,9.34,17.5,13.63,3.04,2.16,6.15,4.22,9.27,6.23,1.46.94,2.93,1.87,4.43,2.76,1.72,1.01,3.48,1.94,5.22,2.92,1.43.8,3.03,1.01,4.53.23,1.47-.75,2.27-2.17,2.43-3.77,0,0,0-.01,0-.01.18-1.85-1.06-3.64-2.71-4.36-1.51-.84-3.04-1.67-4.54-2.54-1.73-.99-3.39-2.09-5.06-3.16-3.34-2.14-6.64-4.37-9.87-6.67-6.14-4.37-12.05-9.08-17.78-13.96-9.25-7.98-17.86-16.62-26.21-25.53-2.74-2.93-5.31-6.03-7.93-9.05-3.91-4.49-7.81-8.98-11.72-13.48-1.47-1.7-2.93-3.4-4.36-5.14-6.32-7.72-12.64-15.44-18.95-23.15-2.19-2.68-4.27-5.47-6.41-8.19-3.58-4.58-7.16-9.16-10.73-13.74-5.48-7.01-10.94-14.06-16.39-21.1-.53-.68-1.34-1.02-2.18-1.07-.89-.05-1.81.25-2.46.83h0Zm106.57,118.96c.15.12.29.25.44.37-.15-.12-.29-.25-.44-.37h0Z"/>
      <path class="cls-1" d="m84.06,89.9c-1.22,1.1-1.21,2.87-.21,4.1,4.91,6.07,9.74,12.22,14.83,18.15,3.88,4.52,7.76,9.04,11.64,13.55,5.6,6.52,11.5,12.81,17.28,19.19,1.86,2.06,3.7,4.15,5.63,6.16,3.64,3.8,7.27,7.61,10.91,11.41,3.26,3.41,6.52,6.82,9.78,10.23,2.13,2.22,4.41,4.32,6.61,6.47,4.17,4.07,8.34,8.14,12.5,12.21,1.28,1.26,2.57,2.52,3.86,3.78,2.38,2.32,4.88,4.52,7.36,6.74,8.92,8.02,18.1,15.74,27.68,22.98,4.74,3.58,9.62,6.97,14.64,10.14,2.48,1.56,5.01,3.03,7.6,4.39,1.44.75,2.9,1.47,4.39,2.13,1.26.57,2.61.95,3.91,1.43,1.97.72,4.64-.11,5.69-1.99,0,0,0-.01.02-.02.67-1.18.99-2.41.69-3.78-.27-1.25-1.05-2.37-2.11-3.07-.49-.32-1.03-.55-1.59-.68-1.7-.59-3.38-1.17-5.02-1.92-7.67-3.85-14.85-8.7-21.77-13.75-7.5-5.48-14.74-11.34-21.8-17.39.31.26.61.52.91.78-5.41-4.66-10.77-9.38-15.93-14.32-4.33-4.16-8.66-8.32-12.99-12.48-2.59-2.48-5.26-4.91-7.78-7.46-2.94-2.97-5.86-5.94-8.78-8.9-5.73-5.8-11.48-11.57-17.09-17.47-6-6.33-12.08-12.59-17.99-19.02-9.6-10.45-19.2-20.9-28.77-31.37-.54-.59-1.27-.91-2.02-.95-.74-.04-1.5.2-2.08.74h0Z"/>
      <path class="cls-1" d="m104.41,74.04c-.65.59-1.05,1.42-1.09,2.29-.05.94.3,1.67.85,2.39,5.24,6.85,10.39,13.79,15.77,20.53,3.6,4.52,7.2,9.03,10.8,13.54,2.11,2.65,4.17,5.33,6.33,7.94,2.99,3.59,5.98,7.2,8.97,10.79,3.29,3.97,6.59,7.93,9.88,11.9,1.86,2.23,3.81,4.4,5.71,6.6,5.57,6.4,11.03,12.9,16.77,19.15,7.51,8.17,14.92,16.44,22.67,24.39,4.38,4.49,8.83,8.91,13.42,13.18,4.62,4.28,9.39,8.4,14.27,12.37,4.72,3.85,9.62,7.48,14.66,10.91,2.39,1.63,4.84,3.17,7.33,4.65,1.14.68,2.31,1.29,3.43,1.99,1.13.7,2.2,1.48,3.4,2.07,1.15.57,2.32,1.1,3.63,1.17,1.51.09,2.96-.18,4.13-1.21,1.86-1.63,1.97-4.6.33-6.42-.81-.89-1.95-1.43-3.15-1.5-.2-.01-.41,0-.62.01-.02,0-.05-.02-.07-.03-.92-.51-1.8-1.1-2.69-1.67-1.52-.97-3.14-1.79-4.69-2.71-3.11-1.85-6.12-3.86-9.1-5.92-6.14-4.27-12.01-8.92-17.7-13.77.2.17.41.35.61.53-.24-.2-.48-.41-.71-.62-.05-.04-.1-.08-.15-.12.04.04.09.08.13.11-4.47-3.87-8.81-7.86-13.04-11.98-2.16-2.1-4.28-4.24-6.39-6.39-1.77-1.8-3.58-3.57-5.29-5.43-2.99-3.24-5.98-6.47-8.97-9.71-3.53-3.82-7.06-7.65-10.59-11.47-1.98-2.14-3.86-4.38-5.77-6.57-5.58-6.37-11.23-12.68-16.67-19.15-5.93-7.05-11.91-14.07-17.8-21.17-4.57-5.49-9.13-10.99-13.71-16.49-6.68-8.04-13.46-15.98-20.22-23.96-.58-.68-1.4-1.03-2.25-1.08-.87-.04-1.77.24-2.43.84h0Zm123.16,132.56s.07.06.1.09c-.04-.03-.08-.06-.11-.1,0,0,0,0,.01.01h0Z"/>
      <path class="cls-1" d="m141.27,74.08c-.62.55-.99,1.33-1.03,2.16-.05.9.29,1.56.8,2.26,3.74,5.16,7.46,10.34,11.21,15.49,1.39,1.91,2.78,3.82,4.23,5.69,3.27,4.25,6.54,8.5,9.82,12.75,2.99,3.89,5.99,7.78,8.99,11.67,1.4,1.81,2.9,3.55,4.37,5.31,6.87,8.27,13.73,16.54,20.6,24.81,1.33,1.6,2.78,3.1,4.18,4.63,3.98,4.33,7.95,8.66,11.93,12.99,3.39,3.69,6.78,7.39,10.18,11.09,1.11,1.21,2.26,2.39,3.41,3.56,4.33,4.37,8.71,8.66,13.17,12.87,4.55,4.3,9.22,8.45,13.97,12.53,4.6,3.94,9.25,7.82,14.05,11.5,4.8,3.67,9.78,7.11,14.98,10.18,2.5,1.48,5.07,2.85,7.67,4.14,1.43.71,2.86,1.41,4.31,2.06,1.46.65,3.01,1.1,4.51,1.65,2.31.85,5.13-.57,5.84-2.92,0,0,0-.01,0-.02.73-2.41-.49-5.03-2.92-5.83-.09-.03-.19-.06-.28-.08-1.2-.42-2.42-.82-3.61-1.27-.97-.36-1.91-.81-2.84-1.26-7.19-3.51-13.95-7.71-20.42-12.4-6.31-4.58-12.32-9.56-18.24-14.63-4.51-3.89-8.92-7.91-13.25-12-2.14-2.02-4.26-4.08-6.37-6.14-1.05-1.03-2.1-2.06-3.15-3.1-1.04-1.04-2.13-2.04-3.13-3.13-2.28-2.47-4.57-4.94-6.87-7.41-6.73-7.26-13.45-14.51-20.18-21.76-.48-.51-.9-1.07-1.36-1.6-1.4-1.66-2.8-3.32-4.2-4.98-3.98-4.72-7.95-9.44-11.94-14.16-2.59-3.08-5.19-6.16-7.78-9.24-1.88-2.23-3.66-4.55-5.49-6.83-10.26-12.79-20.51-25.57-30.74-38.37-.52-.65-1.29-.98-2.09-1.02-.84-.04-1.71.23-2.33.79h0Zm157.03,155.73c.16.08.32.16.48.23-.16-.08-.32-.16-.48-.23h0Z"/>
      <path class="cls-1" d="m186.78,81.43c-1.38,1.24-1.42,3.32-.24,4.7,6.07,7.12,12.07,14.32,18.25,21.33,3.89,4.41,7.77,8.81,11.66,13.22,3.44,3.89,6.87,7.79,10.3,11.68,1.77,2,3.62,3.94,5.43,5.91,14.13,15.33,28.24,30.67,42.32,46.04,2.08,2.26,4.2,4.49,6.22,6.81,3.57,4.1,7.14,8.21,10.71,12.31,6.29,7.23,12.63,14.41,18.99,21.57,1.71,1.93,3.42,3.84,5.22,5.7,3.4,3.49,6.77,7,10.24,10.41.99.97,2.1,1.6,3.51,1.67,1.34.07,2.66-.4,3.66-1.3.99-.89,1.6-2.17,1.67-3.5.07-1.26-.37-2.76-1.3-3.66-4.14-3.98-8.18-8.06-12.24-12.12-1.04-1.04-1.99-2.18-2.98-3.27-2.23-2.44-4.46-4.89-6.69-7.34-6.46-7.09-12.8-14.3-19.17-21.48-1.94-2.2-3.86-4.42-5.87-6.58-3.77-4.06-7.53-8.11-11.3-12.17-5.5-5.92-10.99-11.87-16.52-17.77-7.98-8.51-15.97-17.02-23.95-25.53-6.18-6.59-12.26-13.27-18.39-19.9-8.21-8.9-16.54-17.67-24.85-26.47-.63-.67-1.47-1.04-2.33-1.08-.84-.04-1.7.23-2.37.84h0Z"/>
      <path class="cls-1" d="m199.92,64.06c-1.38.72-2.23,2.73-1.32,4.15,3.22,5.05,6.35,10.15,9.68,15.13.91,1.36,1.88,2.68,2.82,4.03,3.34,4.77,6.69,9.55,10.04,14.33,4.71,6.73,9.79,13.2,14.74,19.75,2.26,2.99,4.52,5.97,6.77,8.96,2.17,2.88,4.47,5.67,6.71,8.49,3.72,4.71,7.44,9.43,11.15,14.14,1.41,1.78,2.8,3.56,4.23,5.32,6.51,7.95,13.02,15.9,19.54,23.84,1.93,2.36,3.94,4.63,5.93,6.94,4,4.62,8.05,9.19,12.24,13.63,8.28,8.77,17.08,17.08,26.55,24.56,2.95,2.33,5.93,4.59,9.1,6.6,1.57,1,3.19,1.89,4.86,2.7.94.46,1.85.86,2.85,1.17,1.02.31,2.07.52,3.1.82,1.21.34,2.44.3,3.57-.28.72-.38,1.29-.9,1.74-1.57.45-.7.71-1.46.75-2.29,0-.04.01-.07.02-.11.19-1.14-.44-2.5-1.18-3.33-.81-.9-1.97-1.45-3.19-1.51-.03,0-.06,0-.09,0-1.28-.33-2.55-.65-3.78-1.18-3.32-1.72-6.41-3.81-9.42-6.04-3.29-2.45-6.51-5-9.64-7.66-21.6-18.69-39.27-41.31-57.39-63.25-2.01-2.44-3.94-4.96-5.92-7.43-3.79-4.75-7.57-9.5-11.36-14.25-4.69-5.88-9.28-11.85-13.89-17.8-4.39-5.69-8.8-11.35-13.1-17.1-7.49-10.01-14.98-20.02-22.42-30.08-.48-.64-1.27-.96-2.07-1-.58-.03-1.16.09-1.63.33h0Z"/>
      <path class="cls-1" d="m215.86,47.81c-1.35,1.21-1.42,3.3-.24,4.65,6,6.85,11.92,13.78,18.03,20.53,3.91,4.33,7.82,8.66,11.73,12.99,5.19,5.73,10.38,11.44,15.63,17.1,4.37,4.73,8.74,9.45,13.11,14.17,1.93,2.08,3.83,4.19,5.79,6.25,7.42,7.8,14.83,15.61,22.24,23.41,2.12,2.23,4.18,4.54,6.37,6.7,2.41,2.4,4.81,4.79,7.22,7.18,8.38,8.32,16.76,16.65,25.14,24.98,4.38,4.35,8.94,8.53,13.44,12.76,8.96,8.45,17.92,16.89,26.88,25.33,8.59,8.09,17.25,16.11,25.88,24.14.98.91,1.98,1.53,3.35,1.6,1.28.07,2.55-.38,3.5-1.24.95-.85,1.53-2.07,1.6-3.35.06-1.18-.34-2.66-1.25-3.5-19.31-17.93-38.53-35.95-57.75-53.98-2.19-2.05-4.37-4.1-6.56-6.16-1.95-1.83-3.81-3.75-5.71-5.63-8.59-8.46-17.17-16.92-25.75-25.38-4.99-4.92-9.79-10.02-14.65-15.08-5.98-6.23-12.01-12.42-17.96-18.69-13.26-14.02-26.53-28.03-39.83-42.02-8.46-8.9-17.02-17.71-25.58-26.52-.63-.65-1.47-1.02-2.32-1.07-.82-.04-1.65.22-2.33.83h0Z"/>
      <path class="cls-1" d="m279.51,54.34c-1.08.56-1.74,2.15-1.04,3.25,3.3,5.11,6.54,10.23,9.95,15.26,2.82,4.14,5.63,8.29,8.44,12.43,3.85,5.68,7.92,11.21,11.93,16.78,3.54,4.93,7.03,9.92,10.72,14.74,5.81,7.59,11.62,15.18,17.43,22.77,3.32,4.35,6.85,8.53,10.33,12.76,5.41,6.58,10.83,13.16,16.23,19.74,1.26,1.53,2.64,2.99,3.96,4.47,3.37,3.8,6.74,7.59,10.12,11.39,2.96,3.33,5.92,6.66,8.88,10,3.9,4.39,7.92,8.66,11.96,12.92,5.29,5.58,10.76,10.96,16.41,16.18,2.89,2.68,5.87,5.28,8.97,7.72,1.4,1.11,2.84,2.19,4.37,3.13,1.71,1.04,3.53,1.9,5.27,2.88,1.21.69,2.57.86,3.84.2,1.24-.64,1.92-1.83,2.06-3.18,0-.02,0-.04,0-.06.13-1.31-.63-2.65-1.7-3.36-.19-.12-.39-.23-.59-.31-1.88-1.1-3.79-2.13-5.59-3.37-2.03-1.39-3.94-2.99-5.81-4.59-3.62-3.16-7.06-6.51-10.51-9.85-3.79-3.68-7.47-7.48-11.08-11.34-3.91-4.17-7.79-8.37-11.56-12.65-6.34-7.16-12.67-14.34-19-21.5-1.27-1.44-2.6-2.86-3.82-4.34-2.08-2.52-4.17-5.05-6.26-7.56-5.84-7.07-11.68-14.13-17.53-21.19-1.02-1.23-1.99-2.5-2.98-3.75-2.99-3.8-5.98-7.6-8.96-11.4-3.91-4.97-7.89-9.9-11.71-14.94-5.5-7.24-11-14.48-16.5-21.72-4.25-5.59-8.41-11.24-12.61-16.87-3.53-4.74-7.14-9.42-10.73-14.12-.38-.5-.99-.76-1.62-.79-.45-.02-.9.07-1.27.26h0Z"/>
      <path class="cls-1" d="m313.89,64.7c-1.11,1-1.06,2.56-.19,3.69,4.19,5.43,8.34,10.89,12.65,16.22,3.31,4.08,6.62,8.15,9.92,12.23,1.66,2.06,3.42,4.05,5.13,6.06,3.62,4.24,7.25,8.49,10.87,12.75,4.81,5.63,9.79,11.11,14.73,16.64,2.82,3.17,5.66,6.34,8.49,9.51,1.66,1.86,3.46,3.61,5.19,5.41,6.29,6.52,12.58,13.06,18.88,19.59.61.63,1.27,1.22,1.9,1.83,1.65,1.59,3.31,3.17,4.96,4.76,4.12,3.96,8.25,7.92,12.37,11.88,11.16,10.73,22.59,21.18,34.04,31.61,1.11,1.01,2.23,2.01,3.36,3.01.3.26.6.51.9.77.69.45,1.46.71,2.29.75,1.22.06,2.43-.36,3.33-1.18.91-.81,1.46-1.97,1.52-3.19.04-.83-.12-1.62-.51-2.35-.37-.71-.89-1.29-1.57-1.74-.48-.41-.96-.82-1.44-1.23-5.64-4.86-11.21-9.78-16.74-14.77-5.61-5.07-11.28-10.09-16.79-15.27-7.08-6.67-14.15-13.33-21.22-19.99-1.71-1.61-3.31-3.35-4.96-5.03-4-4.08-8-8.16-12-12.24-2.48-2.53-4.96-5.06-7.43-7.59-.57-.57-1.09-1.2-1.63-1.79-1.55-1.7-3.1-3.41-4.65-5.11-5.28-5.81-10.64-11.54-15.83-17.43-5.73-6.5-11.51-12.95-17.2-19.48-6.49-7.45-12.97-14.9-19.52-22.3-1.72-1.95-3.44-3.9-5.17-5.83-.47-.53-1.12-.82-1.8-.85-.68-.04-1.36.18-1.89.66h0Zm146.16,146.44c.19.16.38.32.56.48-.19-.16-.38-.32-.56-.48h0Z"/>
      <path class="cls-1" d="m346.5,68.35c-1.08.56-1.72,2.12-1.03,3.23,5.34,8.52,10.74,16.99,16.37,25.32,4.91,7.26,9.83,14.5,14.8,21.71,4.89,7.1,9.81,14.19,14.74,21.28,2.73,3.92,5.46,7.84,8.19,11.75,1.83,2.62,3.81,5.13,5.72,7.69,3.4,4.56,6.79,9.12,10.19,13.68,1.37,1.84,2.78,3.62,4.24,5.39,3.69,4.5,7.37,9.01,11.06,13.51,1.48,1.81,2.97,3.63,4.46,5.44.45.55.89,1.12,1.37,1.65,5.44,6.06,10.88,12.1,16.32,18.15,3.36,3.74,6.88,7.32,10.48,10.84,3.55,3.47,7.26,6.77,11.04,9.99,1.78,1.52,3.63,2.96,5.56,4.29,1.14.78,2.33,1.41,3.58,1.99.9.42,1.57.8,2.62.85.84.04,1.91-.15,2.65-.58,1.6-.94,2.69-2.43,2.79-4.33.09-1.82-.8-3.6-2.33-4.59-.46-.31-.97-.53-1.5-.67-.33-.14-.67-.28-1-.43-1.64-.92-3.16-2.06-4.65-3.2-1.46-1.11-2.85-2.28-4.25-3.47-4.44-3.84-8.66-7.92-12.8-12.08-1.4-1.41-2.76-2.83-4.11-4.3-3.76-4.13-7.51-8.26-11.28-12.39-1.62-1.78-3.25-3.57-4.87-5.35-.5-.55-1.01-1.08-1.48-1.65-2.91-3.5-5.84-7.01-8.75-10.51-3.25-3.91-6.5-7.82-9.76-11.73-1.69-2.03-3.25-4.17-4.86-6.26-5.06-6.58-10.22-13.07-15.12-19.76-10.02-13.65-20.03-27.32-30.07-40.96-3.39-4.61-6.78-9.24-10.19-13.83-2.21-2.98-4.43-5.97-6.65-8.95-2.81-3.78-5.72-7.48-8.6-11.2-.39-.49-1-.75-1.63-.78-.44-.02-.88.06-1.26.26h0Z"/>
      <path class="cls-1" d="m361.66,58.15c-.52.47-.84,1.14-.88,1.84-.04.78.25,1.32.68,1.93.42.6.84,1.19,1.25,1.79-.02-.03-.04-.06-.06-.09.1.14.19.27.28.41.04.06.08.12.12.18,0-.01-.02-.02-.03-.04,1.47,2.12,2.92,4.24,4.41,6.34.87,1.24,1.73,2.5,2.67,3.69,1.22,1.52,2.44,3.04,3.65,4.57,2.96,3.69,5.91,7.39,8.87,11.08.46.58,1,1.11,1.5,1.66,1.55,1.69,3.1,3.39,4.65,5.08,3.6,3.93,7.2,7.87,10.81,11.8,1.36,1.48,2.74,2.9,4.15,4.32,3.74,3.74,7.47,7.48,11.22,11.22,3.11,3.11,6.21,6.22,9.32,9.33,1.4,1.4,2.86,2.73,4.3,4.08,7.41,6.98,14.82,13.95,22.24,20.92,1.2,1.14,2.42,2.23,3.66,3.32,3.72,3.27,7.44,6.55,11.16,9.84,4.02,3.54,8.04,7.08,12.06,10.63,1.67,1.48,3.33,2.99,5.06,4.4,7.53,6.17,15.06,12.33,22.6,18.5,1.31,1.07,2.63,2.14,3.93,3.22,2.1,1.71,4.32,3.29,6.48,4.91,3.05,2.28,6.13,4.52,9.26,6.7,2.93,2.04,5.92,3.98,8.96,5.85,3.18,1.96,6.39,3.86,9.71,5.57,3.21,1.65,6.51,3.12,9.98,4.16,1.79.53,3.63.88,5.47,1.12.7.09,1.4.12,2.11.1,1.04-.02,2.2-.16,3.08-.76.28-.19.55-.38.83-.57.51-.47.88-1.02,1.1-1.68.33-1,.25-2.11-.24-3.04-.87-1.68-2.75-2.42-4.49-1.99-.71-.06-1.43-.17-2.14-.28-3.34-.73-6.53-2.01-9.62-3.47-4.79-2.4-9.33-5.26-13.84-8.15-4.71-3.02-9.25-6.3-13.73-9.66-2.81-2.09-5.66-4.17-8.37-6.4-1.14-.95-2.29-1.89-3.44-2.83-7.55-6.22-15.12-12.43-22.67-18.66-.12-.1-.24-.2-.36-.29-6.27-5.5-12.51-11.03-18.77-16.55-3.03-2.67-6.06-5.35-9.1-8.03-1.46-1.28-2.85-2.63-4.27-3.96-7.44-6.95-14.87-13.9-22.3-20.86-5.13-4.79-10.07-9.78-15.08-14.69-3.2-3.13-6.4-6.26-9.6-9.39-1.72-1.68-3.36-3.43-5.03-5.17-3.84-3.98-7.69-7.96-11.54-11.94-1.69-1.75-3.35-3.5-4.96-5.32-3.14-3.53-6.27-7.06-9.41-10.59-4.06-4.57-7.95-9.27-11.88-13.94-.46-.55-1.13-.84-1.81-.87-.7-.04-1.43.19-1.96.68h0Zm1.38,6.02s-.06-.09-.09-.14c-.08-.11-.15-.22-.23-.32.1.16.21.31.32.46h0Z"/>
      <path class="cls-1" d="m413.54,50.27c-.66.6-1.07,1.45-1.12,2.34-.05.98.32,1.67.87,2.44,1.9,2.68,3.79,5.36,5.69,8.05,1.32,1.85,2.59,3.75,3.96,5.56,1.4,1.84,2.78,3.68,4.18,5.51,3.12,4.12,6.25,8.23,9.36,12.36.88,1.17,1.86,2.27,2.78,3.41,2.04,2.5,4.09,5,6.13,7.5,2.97,3.64,5.94,7.27,8.92,10.91.86,1.05,1.77,2.05,2.66,3.08,2.04,2.35,4.07,4.7,6.11,7.06,3.75,4.34,7.49,8.66,11.24,13,2.03,2.34,4.12,4.63,6.19,6.93,4.42,4.94,8.85,9.89,13.27,14.83,5.91,6.6,12.02,13.03,18.08,19.5,2.85,3.05,5.65,6.17,8.57,9.16,3.36,3.43,6.74,6.85,10.1,10.28,4.13,4.2,8.24,8.41,12.41,12.55,2.48,2.47,4.97,4.94,7.49,7.37,2.66,2.55,5.43,4.95,8.17,7.4,2.64,2.39,5.21,4.88,8.13,6.94,1.49,1.06,3.16,1.86,4.83,2.58.81.35,1.75.4,2.61.53.53.08,1.07.08,1.62.08.36,0,.72,0,1.08.03,1.32.08,2.66-.41,3.64-1.3.91-.81,1.73-2.22,1.66-3.48-.03-.6-.02-1.2-.19-1.77-.38-1.29-1-2.36-2.15-3.11-1.13-.74-2.53-1-3.84-.71-.18.04-.36.09-.53.15-.14-.01-.29-.03-.43-.04-.13-.04-.25-.09-.37-.14-1.67-.89-3.18-1.99-4.64-3.19-2.01-1.78-3.96-3.65-5.99-5.41-2.65-2.29-5.19-4.7-7.7-7.13-2.93-2.85-5.84-5.71-8.71-8.62-4.14-4.2-8.27-8.39-12.41-12.59-2.52-2.55-5.11-5.07-7.56-7.69-3.7-3.93-7.4-7.87-11.09-11.8-3.69-3.94-7.39-7.87-11.09-11.8-2.22-2.36-4.35-4.83-6.52-7.23-6.18-6.87-12.42-13.69-18.51-20.64-4.22-4.81-8.44-9.62-12.66-14.42-2.22-2.53-4.47-5.03-6.64-7.6-6.12-7.2-12.3-14.35-18.36-21.6-3.5-4.2-7-8.4-10.51-12.59-4.61-5.52-9.29-10.96-13.96-16.44-.59-.69-1.44-1.05-2.3-1.1-.89-.05-1.8.24-2.47.85h0Z"/>
      <path class="cls-1" d="m466.13,59.09c-1.27.66-2.1,2.55-1.22,3.86,4.52,6.79,8.97,13.63,13.7,20.28,3.6,5.06,7.2,10.12,10.8,15.17,1.64,2.31,3.37,4.56,5.09,6.81,3.93,5.15,7.85,10.29,11.77,15.44,1.63,2.13,3.23,4.29,4.93,6.37,3.61,4.43,7.22,8.86,10.84,13.3,3.24,3.97,6.48,7.94,9.71,11.91,1.81,2.21,3.81,4.27,5.73,6.38,4.05,4.49,8.11,8.97,12.15,13.45,2.44,2.7,4.81,5.47,7.34,8.08,8.41,8.71,17.09,17.12,26.14,25.17,4.64,4.12,9.36,8.14,14.36,11.83,2.42,1.8,4.92,3.49,7.5,5.06,1.28.78,2.6,1.48,3.92,2.15.85.42,1.7.83,2.58,1.19.63.25,1.33.41,1.97.62,1.85.58,3.88.19,5.33-1.11.71-.64,1.21-1.41,1.52-2.31.42-1.25.43-3.05-.34-4.2t0-.01c-.26-.38-.53-.76-.79-1.14-.64-.7-1.41-1.2-2.31-1.51-.12-.04-.23-.07-.35-.1-.54-.17-1.08-.33-1.62-.52-.26-.09-.51-.19-.77-.31-8.72-4.34-16.4-10.59-23.77-16.9-4.83-4.18-9.58-8.46-14.22-12.86-2.3-2.18-4.55-4.38-6.8-6.61-1.89-1.85-3.82-3.69-5.62-5.63-2.9-3.12-5.8-6.24-8.69-9.36-4.29-4.62-8.58-9.24-12.87-13.87-1.59-1.72-3.17-3.43-4.69-5.22-6.9-8.15-13.8-16.3-20.71-24.45-2.28-2.69-4.43-5.51-6.64-8.26-3.87-4.83-7.74-9.65-11.61-14.48-3.37-4.19-6.6-8.5-9.88-12.77-6.36-8.26-12.7-16.54-19.02-24.83-.45-.59-1.18-.89-1.93-.93-.53-.03-1.07.08-1.51.31h0Zm146.75,155.26c.4.19.79.38,1.18.57-.4-.18-.79-.38-1.18-.57h0Z"/>
      <path class="cls-1" d="m514.44,65.79c-.63.58-1.02,1.38-1.06,2.24-.05.94.31,1.59.83,2.33,4.81,6.9,9.5,13.89,14.52,20.64,3.65,4.93,7.3,9.84,10.96,14.76,5.17,6.95,10.41,13.85,15.65,20.75,10.22,13.49,20.13,27.21,30.35,40.7,3.55,4.69,7.1,9.38,10.65,14.07,1.81,2.4,3.78,4.67,5.71,6.99,3.72,4.48,7.45,8.97,11.19,13.45,2.12,2.55,4.38,5.01,6.62,7.46,4.35,4.75,8.86,9.35,13.5,13.83,3.42,3.3,6.96,6.48,10.68,9.45,1.57,1.25,3.06,2.59,4.7,3.75,1.04.74,2.21,1.27,3.35,1.81,1.08.52,2.3.61,3.48.71,2.68.22,4.9-2.03,5.09-4.59,0-.03,0-.06,0-.09.19-2.64-2-4.97-4.6-5.1-.35-.02-.69,0-1.03.06-1.76-.97-3.32-2.2-4.9-3.44-1.81-1.43-3.63-2.85-5.4-4.35-4.69-4.09-9.19-8.42-13.54-12.87-2.17-2.21-4.29-4.47-6.39-6.74-1.45-1.56-2.93-3.1-4.3-4.73-3.3-3.9-6.58-7.79-9.88-11.7-1.8-2.14-3.61-4.27-5.41-6.41-.58-.68-1.18-1.35-1.72-2.06-3.13-4.1-6.27-8.19-9.4-12.28-5.18-6.76-10.31-13.56-15.4-20.38-5.05-6.79-10.1-13.59-15.24-20.3-13.32-17.42-26.73-34.76-40.11-52.13-1.44-1.86-2.87-3.72-4.31-5.58-.52-.67-1.32-1.01-2.14-1.05-.88-.05-1.78.24-2.42.82h0Z"/>
      <path class="cls-1" d="m527.44,54.34c-1.33,1.2-1.46,3.34-.24,4.67,3.33,3.63,6.59,7.34,9.99,10.89,1.95,2.03,3.89,4.06,5.83,6.08,3.05,3.19,6.09,6.4,9.17,9.56,6.87,7.04,13.73,14.09,20.6,21.12,14.68,15.03,29.34,30.09,43.96,45.18,6.27,6.47,12.62,12.87,18.95,19.3,3.27,3.32,6.54,6.64,9.81,9.96,2.82,2.87,5.79,5.6,8.69,8.4,7.72,7.46,15.42,14.93,23.26,22.27,4.12,3.85,8.3,7.64,12.62,11.28,2.04,1.72,4.14,3.39,6.22,5.07,2.26,1.82,4.53,3.61,6.88,5.3,2.11,1.52,4.31,2.9,6.61,4.11,2.74,1.45,5.6,2.73,8.56,3.64,2.76.85,5.74,1.31,8.62.93,1.5-.2,2.9-.73,4.09-1.69.85-.69,1.51-1.53,1.86-2.6.38-1.15.26-1.81.14-3-.21-.92-.63-1.74-1.26-2.44-.96-1.06-2.31-1.7-3.73-1.78-1-.05-2.06.21-2.98.73-.63-.03-1.27-.08-1.9-.17-2.52-.58-4.9-1.52-7.24-2.61-4.03-2.07-7.69-4.68-11.28-7.44-3.65-2.81-7.25-5.69-10.76-8.67-11.24-9.74-21.86-20.19-32.6-30.46-2.73-2.61-5.54-5.17-8.21-7.86-3.45-3.48-6.91-6.97-10.37-10.45-6.3-6.35-12.62-12.68-18.86-19.08-7.07-7.25-14.1-14.55-21.22-21.76-7.54-7.62-15.08-15.24-22.62-22.87-3.01-3.04-6.1-6-9.14-9-3.98-3.93-7.96-7.85-11.95-11.78-3.2-3.15-6.56-6.17-9.84-9.24-1.95-1.83-3.9-3.66-5.84-5.48-3.62-3.39-7.43-6.58-11.14-9.86-.69-.61-1.33-1.04-2.29-1.09-.87-.04-1.74.26-2.39.84h0Zm166,157.68c.1.09.21.18.31.27-.1-.09-.21-.18-.31-.27h0Zm31.47,19.4s0,0,0,0c-.09,0-.19.02-.28.02.1,0,.19-.02.29-.02h0Z"/>
      <path class="cls-1" d="m592.34,65.71c-1.32.69-2.14,2.63-1.27,3.98,1.67,2.58,3.32,5.17,4.98,7.75,1.55,2.42,3.06,4.89,4.77,7.2,1.11,1.5,2.22,3,3.33,4.51,3.32,4.48,6.62,8.97,9.94,13.46.58.77,1.23,1.5,1.84,2.24,1.83,2.21,3.66,4.41,5.49,6.61,3.35,4.04,6.71,8.08,10.07,12.12,2.32,2.8,4.79,5.49,7.18,8.23,3.81,4.35,7.61,8.7,11.41,13.05,2,2.28,4.1,4.47,6.16,6.68,4.19,4.5,8.38,9.01,12.57,13.51,1.84,1.97,3.73,3.88,5.65,5.77,4.92,4.86,9.98,9.58,15.2,14.12,5.4,4.69,10.89,9.26,16.71,13.42,2.59,1.85,5.15,3.72,7.91,5.33,1.58.93,3.26,1.79,4.99,2.4.63.23,1.28.39,1.9.59,1.42.45,2.73.26,4.06-.33,1.66-.73,2.74-2.63,2.83-4.38.12-2.33-1.37-4.51-3.58-5.24-.49-.16-.99-.25-1.48-.26-.16-.04-.33-.07-.49-.11-.7-.15-1.34-.41-1.98-.7-2.2-1.13-4.3-2.44-6.37-3.81-2.33-1.54-4.62-3.13-6.87-4.78-4.42-3.24-8.68-6.7-12.86-10.26-4.71-4.07-9.29-8.3-13.77-12.61-1.7-1.64-3.37-3.28-4.99-5-4.21-4.43-8.41-8.87-12.61-13.31-2.13-2.25-4.3-4.45-6.36-6.76-3.79-4.27-7.59-8.53-11.38-12.79-2.49-2.79-5.02-5.56-7.46-8.39-3.34-3.91-6.7-7.81-10.04-11.71-1.89-2.21-3.79-4.42-5.68-6.63-.67-.78-1.35-1.54-1.99-2.33-3.41-4.27-6.83-8.54-10.25-12.81-1.23-1.53-2.46-3.07-3.69-4.61-3.54-4.43-6.87-9.01-10.29-13.51-.47-.61-1.23-.92-2-.96-.55-.03-1.1.08-1.56.31h0Z"/>
      <path class="cls-1" d="m602.53,39.5c-.71.36-1.26,1.01-1.52,1.77-.24.72-.25,1.75.19,2.4,2.62,3.91,5.16,7.91,7.9,11.73,1.26,1.75,2.51,3.51,3.77,5.25,2.35,3.27,4.65,6.58,7.04,9.82,2.77,3.75,5.55,7.51,8.33,11.27,2,2.72,3.94,5.49,6.02,8.14,5.32,6.82,10.64,13.65,15.96,20.48.69.89,1.49,1.72,2.23,2.57,1.72,2,3.45,3.99,5.18,5.98,3.42,3.95,6.84,7.9,10.26,11.85,1.52,1.75,3.16,3.38,4.76,5.04,4.04,4.18,8.07,8.35,12.11,12.53,1.59,1.64,3.18,3.28,4.76,4.93.5.52.99,1.07,1.52,1.56,2.83,2.67,5.66,5.33,8.49,8,4.2,3.96,8.41,7.92,12.62,11.87,1.82,1.71,3.61,3.45,5.52,5.06,7.68,6.48,15.35,12.96,23.02,19.44,1.63,1.37,3.29,2.69,4.96,4,4.97,3.9,10.01,7.72,15.16,11.38,5.16,3.66,10.43,7.23,15.88,10.44,2.71,1.6,5.51,3.02,8.36,4.34,1.44.66,2.92,1.25,4.42,1.75.64.21,1.29.38,1.94.55.97.24,1.87.25,2.86.24,1.07,0,2.04-.28,2.84-1.01.77-.7,1.25-1.68,1.3-2.73.05-1.04-.32-2.07-1.01-2.84-.76-.84-1.64-1.12-2.72-1.3-.12-.02-.24-.04-.36-.06-2.14-.58-4.17-1.38-6.18-2.31-5.07-2.52-9.85-5.48-14.54-8.63-4.86-3.27-9.65-6.64-14.33-10.15-5.11-3.83-10.16-7.75-15.03-11.86-7.28-6.16-14.58-12.32-21.87-18.48-6.68-6.29-13.36-12.58-20.05-18.86-1.78-1.68-3.65-3.31-5.36-5.08-3.18-3.28-6.35-6.56-9.52-9.84-3.63-3.76-7.27-7.51-10.9-11.27-1.6-1.65-3.08-3.39-4.59-5.13-3.77-4.34-7.54-8.68-11.31-13.02-1.66-1.91-3.37-3.79-4.94-5.8-3.27-4.17-6.54-8.35-9.81-12.53-1.94-2.47-3.91-4.92-5.8-7.42-2.97-3.93-5.95-7.87-8.92-11.81-1.92-2.55-3.83-5.14-5.8-7.65-2.74-3.5-5.48-7-8.22-10.5-3.56-4.54-7.24-8.98-10.9-13.45-.52-.63-1.31-.97-2.12-1.01-.56-.03-1.12.08-1.6.34h0Z"/>
      <path class="cls-1" d="m646.32,31.91c-1.05.94-1.02,2.44-.18,3.49,3.76,4.68,7.47,9.41,11.35,14,3.18,3.76,6.37,7.53,9.55,11.29,1.29,1.53,2.56,3.06,3.91,4.54,2.83,3.11,5.65,6.23,8.49,9.35,3.23,3.56,6.48,7.13,9.71,10.7,1.08,1.2,2.15,2.4,3.3,3.54,6.39,6.36,12.78,12.73,19.16,19.1,2.12,2.11,4.24,4.22,6.35,6.33,1.39,1.38,2.89,2.66,4.34,3.98,7.03,6.45,14.07,12.9,21.1,19.36,3.92,3.59,7.9,7.11,11.88,10.65,3.8,3.39,7.61,6.77,11.42,10.17,2.31,2.05,4.6,4.13,6.96,6.13,6.8,5.78,13.54,11.63,20.88,16.75,3.55,2.48,7.2,4.82,10.97,6.93,1.69.94,3.39,1.83,5.1,2.74.79.44,1.63.83,2.49,1.12,1.11.37,2.2.37,3.34.21,1.48-.21,2.59-1.72,2.66-3.14.05-.89-.27-1.78-.87-2.45-.54-.59-1.51-1.17-2.35-1.12-.12.02-.24.03-.37.03-.13-.04-.26-.09-.39-.14-.92-.51-1.78-1.11-2.67-1.67-.63-.39-1.29-.71-1.93-1.07-.86-.48-1.7-.98-2.54-1.49-2.87-1.73-5.64-3.61-8.36-5.56-5.52-3.93-10.75-8.2-15.9-12.62.16.14.33.28.49.42-6.94-5.96-13.72-12.09-20.54-18.2-4.32-3.88-8.67-7.71-12.94-11.64-6.83-6.27-13.66-12.54-20.48-18.8-2.08-1.91-4.16-3.82-6.24-5.73-1.54-1.41-2.99-2.94-4.47-4.4-6.73-6.63-13.45-13.25-20.18-19.88-4.13-4.08-8.04-8.39-12.03-12.61-4.48-4.75-9.01-9.47-13.44-14.28-6.41-6.97-12.82-13.94-19.32-20.84-1.58-1.67-3.15-3.34-4.73-5.02-.47-.49-1.09-.77-1.73-.8-.62-.03-1.26.17-1.77.62h0Z"/>
      <path class="cls-1" d="m684.6,23.11c-1.24.65-1.69,2.17-1.09,3.41,1.09,2.25,2.15,4.5,3.24,6.75.6,1.24,1.18,2.5,1.86,3.7.97,1.72,1.95,3.44,2.92,5.16,1.26,2.21,2.51,4.42,3.76,6.63.46.81.87,1.66,1.4,2.43,2.34,3.45,4.7,6.9,7.04,10.35,1.34,1.98,2.68,3.94,4.02,5.91.68,1,1.32,2.06,2.07,3.02,5.06,6.55,10.17,13.07,15.26,19.6,4.09,5.25,8.44,10.3,12.68,15.43,2.6,3.14,5.2,6.28,7.8,9.42,1.29,1.56,2.65,3.07,3.98,4.59,5.43,6.22,10.85,12.46,16.3,18.66,2.05,2.34,4.22,4.58,6.35,6.86,2.41,2.58,4.85,5.12,7.35,7.61,5.04,5.03,10.4,9.73,15.91,14.24,5.24,4.28,10.73,8.22,16.51,11.75,6,3.65,12.26,6.82,18.59,9.85,2.16,1.06,4.29,2.18,6.5,3.14,1.09.48,2.21.87,3.36,1.18.7.19,1.46.33,2.17.43.78.13,1.55.26,2.34.02,1-.31,1.83-.77,2.43-1.67.58-.87.78-1.97.55-2.99-.22-.99-.83-1.87-1.68-2.43-.3-.14-.61-.3-.91-.44-.44-.14-.88-.21-1.32-.2-.14-.01-.28-.03-.43-.05-1.7-.4-3.31-1.03-4.9-1.77-2.45-1.21-4.89-2.45-7.35-3.65.31.15.62.3.94.45-6.54-3.18-12.91-6.66-19.02-10.6-5.94-3.84-11.53-8.19-16.91-12.78-3.69-3.19-7.29-6.48-10.75-9.91-3.69-3.66-7.22-7.45-10.74-11.26-2.57-2.77-5.05-5.59-7.53-8.43-3.44-3.92-6.88-7.84-10.31-11.77-1.68-1.91-3.4-3.79-5.03-5.74-5.47-6.56-10.94-13.13-16.4-19.69-4.1-4.93-8.05-9.98-12.03-15-3.16-3.98-6.41-7.9-9.38-12.02-2.38-3.31-4.76-6.62-7.14-9.94-1.43-2.01-2.83-4.03-4.3-6.01-1.94-3.02-3.89-6.03-5.83-9.04-.93-1.43-1.85-2.86-2.77-4.29-2.09-3.24-4.08-6.54-6.1-9.82-.49-.8-1.29-1.32-2.16-1.36-.41-.02-.83.06-1.24.28h0Zm112.03,134.28c.09.08.19.16.28.24-.09-.08-.19-.16-.28-.24h0Zm41.25,25.93c.16.07.31.15.47.22-.16-.07-.32-.15-.47-.22h0Z"/>
      <path class="cls-1" d="m708.59,17.59c-1.19,1.08-1.29,2.98-.22,4.17,3.11,3.44,6.13,6.99,9.36,10.31,1.88,1.92,3.75,3.85,5.63,5.77,2.14,2.19,4.27,4.38,6.4,6.57.69.7,1.35,1.4,2.07,2.06,4.16,3.85,8.32,7.7,12.48,11.55,2.76,2.56,5.47,5.2,8.35,7.63,7.88,6.66,15.76,13.31,23.64,19.96,2.47,2.08,5.05,4.02,7.58,6.02,5.02,3.99,10.04,7.98,15.07,11.97,1.98,1.57,3.93,3.15,5.97,4.64,4.76,3.47,9.52,6.95,14.28,10.43,3.63,2.65,7.25,5.29,10.88,7.94.88.64,1.82,1.21,2.72,1.82,2.45,1.62,4.89,3.26,7.33,4.88,6.55,4.36,13.06,8.77,19.72,12.94,7.5,4.7,15.16,9.14,23.1,13.07,4.13,2.05,8.33,3.93,12.71,5.39,1.99.65,4,1.2,6.03,1.68,1.22.29,2.44.55,3.67.76,1.21.21,2.43.32,3.66.45.95.05,1.86-.15,2.7-.58,1.29-.66,2.05-1.72,2.59-3.03,0,0,0-.01,0-.01.52-1.27.29-2.92-.32-4.1-.63-1.22-1.73-2.16-3.03-2.59-.52-.17-1.06-.26-1.61-.26-1.1-.1-2.2-.18-3.3-.35-3.18-.65-6.31-1.46-9.38-2.5-3.51-1.17-6.9-2.7-10.24-4.29-5.64-2.77-11.15-5.77-16.56-8.97-3.57-2.11-7.15-4.22-10.61-6.48-4.64-3.03-9.27-6.06-13.91-9.09-2.45-1.6-4.91-3.21-7.37-4.82-.91-.59-1.85-1.16-2.74-1.79-3.64-2.63-7.28-5.24-10.93-7.86-4.78-3.44-9.57-6.88-14.35-10.32-2.04-1.47-4.01-3.04-5.99-4.59-5.05-3.96-10.1-7.91-15.14-11.87-2.53-1.99-5.13-3.91-7.61-5.98-7.89-6.57-15.76-13.18-23.69-19.72-6.67-5.93-13.33-11.89-19.98-17.84-3.08-2.75-6.06-5.62-9.08-8.42-5.2-4.82-10.45-9.58-15.71-14.33-.61-.55-1.2-.93-2.04-.97-.79-.04-1.56.23-2.14.76h0Zm177.32,132.04c.15.07.29.14.44.21-.15-.07-.29-.14-.44-.21h0Zm.77.37c.13.07.27.13.4.2-.13-.07-.27-.13-.4-.2h0Z"/>
      <path class="cls-1" d="m697.11,43.39c-.74.66-.92,2.03-.14,2.75,5.53,5.11,11.02,10.25,16.57,15.35,2.25,2.08,4.51,4.15,6.82,6.16,4.85,4.24,9.71,8.48,14.56,12.72,3.88,3.39,7.77,6.79,11.66,10.18.87.76,1.78,1.47,2.68,2.19,2.31,1.86,4.62,3.71,6.93,5.58,7.66,6.17,15.27,12.41,23.07,18.41,5.51,4.23,11.02,8.46,16.53,12.69,1.51,1.16,3.02,2.31,4.53,3.47,2.1,1.61,4.14,3.28,6.22,4.92,2.69,2.13,5.35,4.28,7.96,6.5,4.32,3.72,8.4,7.69,12.24,11.91,1.9,2.08,3.69,4.23,5.38,6.48.84,1.11,1.68,2.24,2.53,3.34.89,1.15,1.85,2.23,2.78,3.33.91,1.07,2.62,1.11,3.64.19,1.08-.98,1.07-2.54.19-3.63-1.08-1.35-2.18-2.68-3.25-4.04-1.13-1.43-2.22-2.87-3.35-4.29-2.21-2.75-4.66-5.32-7.13-7.83-5.09-5.17-10.63-9.87-16.3-14.37-5.22-4.15-10.51-8.21-15.81-12.26-5.3-4.05-10.6-8.09-15.89-12.14-2.43-1.86-4.81-3.8-7.19-5.71-7.52-6.02-15.02-12.08-22.56-18.08-8.47-7.36-16.98-14.68-25.46-22.01-.8-.69-1.59-1.39-2.39-2.07-7.41-6.46-14.7-13.07-22.05-19.6-.4-.37-.79-.61-1.34-.64-.51-.03-1.03.15-1.41.5h0Zm117.4,100.93c.06.05.12.1.18.15-.06-.05-.12-.1-.18-.15h0Z"/>
      <path class="cls-1" d="m787.87,50.58c-.54.48-.86,1.16-.9,1.88-.03.66.2,1.49.7,1.96,2.83,2.64,5.65,5.29,8.47,7.93,2.71,2.54,5.38,5.12,8.16,7.58,1.31,1.15,2.63,2.29,3.94,3.44,5.46,4.77,10.92,9.54,16.38,14.31,1.27,1.1,2.52,2.26,3.83,3.33,1.34,1.1,2.69,2.2,4.03,3.3,5.71,4.67,11.42,9.33,17.13,13.99,2.63,2.15,5.24,4.31,7.9,6.41,5.54,4.36,11.09,8.74,16.63,13.1,3.11,2.45,6.22,4.91,9.31,7.38,2.91,2.33,5.83,4.66,8.74,6.99.85.68,1.71,1.36,2.57,2.05,1.92,1.54,3.77,3.17,5.68,4.73.91.75,1.85,1.46,2.82,2.14.78.54,1.53,1.13,2.32,1.65.92.61,1.93,1,3.04,1.1,1.31.12,2.43-.68,3.1-1.74.26-.4.46-.9.55-1.36.15-.67.13-1.23.04-1.91-.07-.5-.31-1-.46-1.49-.16-.53-.3-1.08-.46-1.61-.33-1.03-.54-2.1-.71-3.17-.12-.75-.95-1.22-1.66-1.06-.35.08-.67.3-.87.59-.23.35-.23.68-.19,1.07.01.16.03.31.03.46,0-.12-.02-.25-.03-.37.1,1.45.19,2.91.14,4.36-.45-.41-.9-.83-1.37-1.22-.68-.57-1.39-1.1-2.07-1.66-2.14-1.86-4.15-3.87-6.34-5.66-.75-.61-1.49-1.23-2.24-1.84-2.86-2.35-5.72-4.71-8.58-7.07-3.07-2.53-6.16-5.03-9.28-7.52-8.17-6.51-16.37-13-24.45-19.62-5.72-4.68-11.45-9.36-17.17-14.05-2.48-2.03-4.96-4.07-7.4-6.14-8.7-7.41-17.42-14.77-26.09-22.22.2.18.4.34.59.51-4.01-3.44-7.99-6.91-12-10.35-.18-.15-.35-.3-.53-.46-.41-.26-.87-.41-1.35-.44-.72-.04-1.43.22-1.96.7h0Z"/>
      <path class="cls-1" d="m787.43.82c-1.27,1.15-1.42,3.24-.23,4.52,2.06,2.19,4.1,4.4,6.15,6.6,2.04,2.2,4.05,4.47,6.2,6.57,1.09,1.06,2.18,2.13,3.27,3.19,4.09,3.97,8.17,7.95,12.25,11.92,2.07,2.01,4.26,3.9,6.41,5.82,4.34,3.86,8.67,7.72,13.01,11.58,2.21,1.96,4.46,3.86,6.72,5.77,4.5,3.8,9.01,7.61,13.51,11.42,6.53,5.52,13.24,10.82,19.87,16.21,6.03,4.88,12.19,9.61,18.31,14.4,2.39,1.87,4.8,3.7,7.22,5.54,2.16,1.65,4.32,3.3,6.47,4.95.59.45,1.19.91,1.78,1.35,1.57,1.21,3.33,2.19,5,3.26,1.37.89,3.14.99,4.6.24,1.84-.95,2.77-3.02,2.36-5.04,0,0,0-.01,0-.03-.26-1.29-1.11-2.34-2.2-2.96-1.6-1-3.26-1.93-4.76-3.06-.68-.51-1.34-1.02-2.01-1.52-2.39-1.8-4.78-3.6-7.17-5.4-2.62-1.97-5.23-3.95-7.83-5.96-6.91-5.34-13.82-10.66-20.64-16.13-5.22-4.18-10.49-8.31-15.62-12.61-6.01-5.04-12.04-10.06-18.04-15.11-6.47-5.64-12.93-11.29-19.39-16.93-3.08-2.68-6.03-5.53-9.04-8.29-3.73-3.43-7.47-6.84-11.2-10.28-3.51-3.24-6.97-6.54-10.47-9.79-.64-.6-1.3-1.01-2.21-1.05-.84-.04-1.68.25-2.31.82h0Z"/>
    </g>
  </g>
</svg>