<?xml version="1.0" encoding="UTF-8"?>
<svg id="Layer_2" data-name="Layer 2" xmlns="http://www.w3.org/2000/svg" viewBox="0 0 899.18 305.61">
  <defs>
    <style>
      .cls-1 {
        fill: #001928;
        stroke-width: 0px;
      }
    </style>
  </defs>
  <g id="Layer_1-2" data-name="Layer 1">
    <g>
      <path class="cls-1" d="m4.16,58.75c-.29,3.68-.61,7.37-.82,11.06-.16,2.92-.32,5.84-.47,8.75-.22,4.03-.37,8.06-.54,12.09-.4,9.06-.73,18.12-1.08,27.18-.11,2.81-.23,5.63-.31,8.44-.13,5.1-.25,10.21-.38,15.31-.13,5.29-.25,10.58-.39,15.87-.05,2.19-.05,4.38-.05,6.58-.04,10.4-.07,20.81-.12,31.22,0,.62.02,1.23.04,1.86.06,2.2.12,4.41.18,6.61.16,6.11.34,12.22.5,18.33.08,2.74.11,5.48.3,8.21.39,5.57.76,11.14,1.14,16.71.03.53.07,1.04.11,1.57.08,1.23.27,2.44.38,3.67-.01-.08-.01-.16-.02-.24.02.24.03.47.04.71-.01.09,0,.16.02.24.26.86,1.37.92,1.72.09.07-.17.04-.42.04-.59-.01-.35-.04-.71-.07-1.06-.06-.79-.15-1.58-.22-2.37,0,.08.01.16.02.24-.12-1.67-.18-3.33-.26-5-.16-3.09-.32-6.19-.48-9.28-.11-2.06-.22-4.12-.32-6.19-.04-.83-.03-1.65-.04-2.47-.12-10.07-.23-20.15-.34-30.22,0-.65.02-1.3.03-1.95.04-2.16.09-4.33.13-6.5.13-6.18.25-12.35.38-18.53.05-2.41.09-4.81.14-7.22.02-.89.01-1.79.05-2.69.17-3.83.32-7.66.48-11.49.25-5.96.49-11.91.74-17.86.09-2.36.2-4.73.33-7.09.49-8.84.97-17.69,1.47-26.53.29-5.21.58-10.43.87-15.64.23-4.19.36-8.39.54-12.6.04-.97.04-1.93.06-2.9.04-2.03.07-4.06.11-6.08.02-1.06-.76-1.99-1.84-2.04-1.09-.06-1.97.79-2.04,1.84h0Z"/>
      <path class="cls-1" d="m25.95,44.99c-.5.45-.73,1.02-.8,1.67-.34,3.28-.69,6.56-1.04,9.84-.23,2.15-.49,4.31-.66,6.47-.15,2.06-.31,4.1-.45,6.16-.39,5.28-.78,10.56-1.18,15.84-.08.94-.11,1.88-.17,2.82-.15,2.71-.3,5.42-.46,8.14-.32,5.76-.65,11.53-.97,17.29-.14,2.42-.21,4.83-.3,7.24-.23,6.23-.46,12.46-.68,18.69-.15,4.1-.29,8.2-.44,12.3-.03.79-.02,1.6-.03,2.39-.03,2.38-.06,4.76-.09,7.15-.08,6.39-.15,12.78-.23,19.17-.02,2.39-.05,4.77-.08,7.15-.01.8-.03,1.6-.03,2.41.08,10.16.17,20.31.25,30.47.02,3.15.09,6.31.14,9.47.09,5.54.19,11.08.3,16.62,0,.24.01.49.01.75.01.57.39,1.06.99,1.09.54.03,1.09-.42,1.09-.98.06-8.87.07-17.73.19-26.6.14-10.19.3-20.39.44-30.58.05-3.08.2-6.17.3-9.24.22-6.38.42-12.77.63-19.15.08-2.42.16-4.86.24-7.28.03-.85.04-1.71.09-2.57.24-3.97.45-7.95.67-11.93.35-6.25.7-12.5,1.06-18.75.13-2.44.26-4.89.44-7.33.69-9.45,1.36-18.9,2.07-28.35.38-5.18.77-10.37,1.15-15.55.55-7.36,1.03-14.72,1.52-22.08.02-.26.03-.52.05-.79.09-1.31-.99-2.47-2.29-2.54-.64-.03-1.27.19-1.74.62h0Z"/>
      <path class="cls-1" d="m41.85,64.24c-.46.41-.63.91-.72,1.5-.21,1.49-.44,2.99-.66,4.49-.17,1.15-.38,2.29-.5,3.44-.1.94-.21,1.89-.31,2.84-.3,2.74-.59,5.47-.9,8.21-.15,1.43-.26,2.85-.39,4.27-.28,3.11-.57,6.22-.86,9.33-.83,9.06-1.48,18.13-2.19,27.19-.21,2.59-.35,5.19-.5,7.79-.35,6.15-.7,12.31-1.05,18.47-.16,2.74-.36,5.49-.44,8.25-.14,4.77-.27,9.55-.4,14.33-.16,6-.33,12-.49,18-.06,2.07-.11,4.13-.14,6.2-.13,11.18-.25,22.35-.37,33.53-.08,7.48-.11,14.96-.14,22.43,0,.7.48,1.29,1.19,1.33.66.03,1.32-.51,1.33-1.2.08-6.62.14-13.25.3-19.88.14-5.72.28-11.44.43-17.15.14-5.67.28-11.33.42-17,.05-1.95.11-3.9.2-5.85.54-11,1.07-22,1.61-33,.11-2.27.29-4.53.47-6.79.49-6.09.98-12.2,1.48-18.29.24-3.05.45-6.1.74-9.14.53-5.36,1.05-10.72,1.58-16.08.84-8.62,1.67-17.24,2.51-25.86.22-2.32.38-4.66.57-6.99.11-1.48.23-2.95.35-4.43.07-.86.1-1.73.15-2.59.1-1.88.21-3.76.31-5.64.06-1.18-.87-2.21-2.05-2.27-.56-.03-1.13.17-1.55.55h0Z"/>
      <path class="cls-1" d="m62.67,48.08c-.53.49-.74,1.08-.84,1.78-.4,2.86-.85,5.71-1.12,8.59-.21,2.27-.43,4.54-.64,6.82-.31,3.3-.49,6.61-.73,9.92-.51,7.13-.93,14.27-1.38,21.41-.41,6.46-.73,12.94-1.09,19.41-.3,5.47-.59,10.93-.78,16.4-.3,8.59-.6,17.19-.9,25.78-.05,1.4-.04,2.81-.05,4.21-.01,4.28-.03,8.56-.04,12.84-.02,4.73-.03,9.46-.04,14.19-.01,2.01-.1,4.03-.02,6.04.29,7.42.57,14.84.86,22.25.17,4.34.34,8.67.51,13.02.05,1.36.11,2.71.15,4.07.08,2.71.1,5.44.21,8.15.06,1.44.17,2.86.29,4.29.1,1.14.19,2.32.42,3.45.35,1.62,2.02,2.66,3.62,2.31.77-.17,1.45-.64,1.88-1.3.41-.62.68-1.58.43-2.32-.06-.18-.09-.37-.09-.57-.06-.38-.11-.77-.16-1.15-.07-.54-.12-1.09-.17-1.64-.32-4.4-.25-8.83-.43-13.24-.03-.73-.05-1.45-.07-2.17-.14-4-.28-7.99-.42-11.98-.26-7.6-.53-15.19-.79-22.78-.07-1.88.03-3.77.05-5.65.05-4.68.09-9.36.14-14.04.04-4.36.09-8.72.12-13.08.02-1.45.01-2.9.07-4.35.37-8.5.74-17,1.1-25.51.1-2.17.15-4.34.29-6.51.21-3.26.42-6.51.62-9.77.42-6.51.82-13.03,1.25-19.54.47-7.09.96-14.18,1.34-21.29.18-3.43.46-6.88.53-10.32.05-2.25.1-4.52.16-6.77.07-2.97,0-5.93-.03-8.9-.01-1.4-.97-2.62-2.43-2.7-.68-.03-1.35.2-1.85.66h0Z"/>
      <path class="cls-1" d="m82.22,48.69c-.59.54-.78,1.16-.91,1.92-.5,2.94-1,5.86-1.36,8.82-.25,2.07-.5,4.12-.74,6.19-.19,1.58-.29,3.18-.43,4.77-.21,2.4-.43,4.8-.64,7.2-.58,6.46-1.02,12.92-1.5,19.38-.6,8.21-1.19,16.42-1.8,24.62-.18,2.46-.3,4.91-.45,7.36-.32,5.29-.64,10.57-.96,15.85-.17,2.77-.41,5.55-.51,8.34-.11,3.07-.22,6.14-.34,9.22-.2,5.31-.39,10.63-.59,15.95-.1,2.6-.28,5.21-.29,7.81-.04,8.45-.07,16.89-.11,25.34,0,2.39.06,4.75.13,7.14.13,4.21.27,8.41.4,12.62.04,1.43.14,2.87.21,4.3.05.92.21,1.7.85,2.41.6.65,1.43,1.06,2.31,1.1.89.05,1.76-.27,2.41-.86.6-.54,1.14-1.47,1.1-2.31-.22-4.7-.33-9.39-.45-14.09-.07-2.82-.21-5.65-.18-8.47.1-8.72.21-17.44.31-26.16.02-2.02.16-4.03.25-6.05.23-5.18.47-10.37.7-15.56.17-3.85.35-7.69.52-11.53.09-2.1.28-4.21.43-6.31.6-8.49,1.19-16.99,1.78-25.48.55-7.9,1.29-15.8,1.94-23.7.54-6.57,1.04-13.13,1.55-19.71.31-4.04.52-8.09.79-12.13.08-1.34.1-2.67.14-4.01.06-2.07.2-4.15.17-6.22-.03-1.86-.07-3.71-.09-5.56-.02-1.51-1.04-2.83-2.63-2.92-.73-.04-1.46.23-2,.71h0Z"/>
      <path class="cls-1" d="m103.12,46.84c-.29,2.34-.56,4.67-.84,7.01-.14,1.14-.3,2.28-.4,3.43-.17,2-.34,4-.52,6-.25,2.95-.54,5.91-.74,8.87-.45,6.76-.99,13.52-1.35,20.28-.43,8.17-.86,16.34-1.3,24.51-.09,1.82-.15,3.65-.21,5.46-.17,4.83-.34,9.66-.51,14.48-.13,3.63-.26,7.26-.39,10.89-.07,1.9-.04,3.81-.05,5.71-.05,8.39-.11,16.78-.17,25.17-.01,2.18.13,4.36.2,6.55.16,4.91.32,9.82.48,14.73.07,2.18.09,4.35.25,6.52.34,4.47.67,8.94,1.01,13.4.28,3.67.58,7.34.91,11,.09,1.07,1.29,1.88,2.29,1.93.65.03,1.29-.19,1.77-.63.44-.39.86-1.1.81-1.71-.62-8.19-1-16.41-1.44-24.61-.04-.81-.02-1.64-.03-2.45-.02-2.07-.05-4.15-.07-6.22-.05-4.78-.11-9.56-.17-14.34-.07-5.92.18-11.84.32-17.76.12-4.54.23-9.07.35-13.61.05-1.57.09-3.13.17-4.69.46-8.74.93-17.49,1.39-26.23.33-6.31.82-12.61,1.25-18.92.43-6.42.87-12.84,1.33-19.27.24-3.54.49-7.08.74-10.62.27-3.74.38-7.5.57-11.25.22-4.44.25-8.87.32-13.31.02-1.63-1.16-3.05-2.83-3.13-1.71-.09-2.94,1.21-3.13,2.83h0Z"/>
      <path class="cls-1" d="m123.61,51.58c-.66.35-1.38,1.05-1.54,1.81-.8,3.66-1.68,7.32-2.28,11.03-.42,2.58-.83,5.17-1.25,7.75-.54,3.36-.96,6.74-1.39,10.11-.43,3.41-.91,6.81-1.28,10.22-.53,4.96-1.06,9.93-1.59,14.89-.84,7.85-1.46,15.73-2.14,23.59-.68,7.69-1.03,15.4-1.5,23.1-.15,2.39-.32,4.78-.36,7.17-.1,5.15-.2,10.3-.3,15.46-.05,2.85-.2,5.72-.14,8.56.1,4.58.2,9.17.3,13.75.14,7.05.33,14.09.56,21.13.02.83.2,1.55.77,2.18.54.59,1.3.96,2.09,1,.8.04,1.59-.24,2.18-.78.63-.58.88-1.27.99-2.09.04-.27.03-.53-.02-.78-.13-5.26-.25-10.52-.31-15.78-.05-5.29-.1-10.58-.15-15.87-.02-2.29.03-4.54.11-6.83.19-5.39.37-10.79.56-16.18.09-2.38.15-4.76.33-7.14.4-5.15.8-10.29,1.2-15.42.21-2.75.37-5.51.66-8.26.5-4.86,1.01-9.72,1.51-14.58.81-7.88,1.77-15.72,2.72-23.58.83-6.84,1.83-13.65,2.65-20.49.34-2.86.69-5.73,1.03-8.59.49-4.13.84-8.28,1.21-12.42.13-1.39-.86-2.73-2.15-3.16-.27-.09-.55-.14-.83-.16-.56-.03-1.12.09-1.62.35h0Z"/>
      <path class="cls-1" d="m150.43,44.71c-.63.33-1.33,1.01-1.49,1.74-.7,3.3-1.41,6.57-1.95,9.9-.36,2.2-.71,4.41-1.07,6.6-.27,1.71-.44,3.43-.66,5.14-.32,2.52-.65,5.04-.97,7.55-.45,3.51-.84,7.03-1.26,10.54-.41,3.4-.85,6.79-1.21,10.19-.93,8.8-1.86,17.59-2.78,26.39-.27,2.5-.4,5.02-.58,7.53-.43,5.63-.86,11.25-1.29,16.88-.16,2.16-.33,4.33-.49,6.5-.06.75-.15,1.5-.17,2.25-.08,3.47-.17,6.95-.25,10.42-.13,5.61-.27,11.22-.4,16.83-.06,2.3-.2,4.63-.14,6.94.18,6.92.37,13.84.55,20.75.08,3.14.16,6.29.25,9.44.13,5.16.4,10.33.61,15.48.04,1.11.27,2.06,1.03,2.91.71.79,1.72,1.27,2.78,1.33,1.06.06,2.12-.32,2.91-1.03.74-.66,1.37-1.77,1.33-2.79-.25-6.03-.52-12.06-.67-18.1-.14-5.41-.29-10.82-.42-16.23-.1-3.88-.2-7.76-.3-11.64-.02-.6.02-1.21.04-1.81.05-2,.09-3.99.15-5.99.13-5.65.28-11.3.41-16.96.06-2.21.11-4.42.16-6.64.02-.84,0-1.7.07-2.53.7-8.91,1.37-17.82,2.06-26.74.17-2.27.31-4.54.55-6.81.5-4.72,1-9.44,1.51-14.15.83-7.8,1.7-15.59,2.63-23.38.67-5.68,1.33-11.35,1.98-17.04.27-2.36.54-4.71.73-7.08.16-1.92.31-3.85.47-5.77.21-2.58.22-5.17.29-7.76.04-1.34-.77-2.6-2.06-3.03-.26-.08-.52-.13-.79-.15-.54-.03-1.08.09-1.55.33h0Z"/>
      <path class="cls-1" d="m157.88,52.91c-.62.56-.84,1.23-.96,2.04-.49,3.07-1.04,6.13-1.37,9.22-.27,2.47-.54,4.95-.81,7.42-.32,2.93-.54,5.86-.77,8.8-.32,4.15-.65,8.29-.98,12.44-.22,2.86-.34,5.73-.52,8.59-.41,6.83-.92,13.67-1.2,20.51-.38,9.3-.75,18.61-1.13,27.92-.08,1.94-.2,3.87-.23,5.81-.05,3.39-.11,6.79-.16,10.18-.13,8.76-.27,17.52-.41,26.29-.02,1.81.02,3.63.03,5.45.04,4.99.07,9.97.11,14.96.03,4.6.07,9.2.1,13.79,0,.95.02,1.89.02,2.84.03,4.36-.16,8.72,0,13.08.06,1.47.18,2.94.33,4.4.07.65.62,1.32,1.14,1.66.6.39,1.35.53,2.04.37.67-.14,1.28-.56,1.66-1.14.41-.64.44-1.25.38-1.98-.38-5.14-.04-10.28.02-15.42,0-.88.01-1.76.01-2.65.04-4.34.07-8.69.1-13.03.04-5.11.08-10.24.12-15.35.02-2.11-.02-4.24.05-6.35.28-8.36.56-16.7.83-25.06.18-5.44.33-10.88.65-16.32.54-9.42,1.09-18.86,1.63-28.28.38-6.58.94-13.15,1.42-19.73.52-7,1.04-14,1.55-21,.22-3.04.49-6.09.64-9.14.13-2.46.25-4.92.37-7.38.13-2.48.16-4.93.18-7.41,0-1.06,0-2.12.02-3.17.01-1.6-1.13-3-2.78-3.09-.77-.04-1.54.24-2.12.75h0Zm-2.77,191.96c.01.13.02.27.04.41-.01-.13-.02-.27-.04-.41h0Z"/>
      <path class="cls-1" d="m180.37,52.86c-.25,3.05-.53,6.11-.72,9.16-.15,2.41-.29,4.84-.44,7.25-.18,3.06-.3,6.12-.42,9.17-.3,7.09-.58,14.18-.84,21.27-.51,14.23-.96,28.46-1.43,42.69-.08,2.44-.07,4.88-.11,7.32-.07,5.02-.15,10.03-.23,15.05-.03,1.91-.06,3.83-.08,5.74-.01.69-.05,1.4-.03,2.08.09,3.6.17,7.18.25,10.77.09,3.78.18,7.55.27,11.34.01.73.09,1.47.14,2.21.14,2.11.28,4.24.42,6.36.45,6.74.79,13.48,1.48,20.19.82,8.02,1.64,16.04,2.46,24.05.08.81.28,1.63.42,2.43.42,2.35.83,4.7,1.25,7.06.36,2.03.72,4.05,1.08,6.08.07.38.13.76.2,1.14.13.72.18,1.44.26,2.16.14,1.25.68,2.45,1.53,3.38,1.36,1.5,3.73,1.63,5.24.27,1.39-1.25,1.59-3.37.56-4.87-.16-.87-.17-1.78-.32-2.65-.11-.59-.2-1.18-.31-1.77-.41-2.29-.81-4.58-1.21-6.87-.38-2.17-.77-4.35-1.15-6.52-.11-.62-.22-1.23-.28-1.86-.86-8.39-1.72-16.79-2.57-25.19-.06-.52-.11-1.04-.16-1.57-.5-7.47-.96-14.94-1.44-22.41-.14-2.26-.14-4.53-.19-6.79-.1-4.76-.19-9.52-.29-14.28-.04-1.81-.02-3.62,0-5.44.08-4.69.17-9.38.25-14.07.1-5.76.18-11.53.38-17.29.54-15.72,1.06-31.43,1.53-47.15.17-5.6.16-11.2.2-16.8.02-2.28-.02-4.55-.08-6.83-.05-2-.11-3.98-.16-5.98-.07-2.86-.35-5.72-.55-8.58-.04-.68-.15-1.24-.63-1.77-.43-.48-1.05-.78-1.69-.81-1.37-.07-2.47.99-2.57,2.33h0Z"/>
      <path class="cls-1" d="m192.45,87.41c-.32,2.64-.63,5.27-.95,7.91-.18,1.45-.37,2.89-.51,4.35-.18,1.98-.36,3.95-.54,5.93-.33,3.67-.74,7.33-1.01,11-.58,7.8-1.15,15.58-1.73,23.38-.22,3.01-.33,6.04-.5,9.05-.28,5.13-.56,10.26-.84,15.4-.36,6.6-.45,13.22-.62,19.83-.17,6.41-.38,12.81-.36,19.22.02,8.33.07,16.66.07,24.99,0,2.88.12,5.77.19,8.65.1,4.41.2,8.81.3,13.22.05,2.21.15,4.41.25,6.63.2,4.28.35,8.57.76,12.84.14.61.42,1.15.83,1.62.64.7,1.53,1.13,2.47,1.17.94.05,1.88-.28,2.58-.91.63-.57,1.24-1.58,1.17-2.47-.34-4.62-.48-9.25-.68-13.87-.11-2.63-.16-5.25-.21-7.88-.14-7.11-.37-14.22-.37-21.34,0-8.89.02-17.76.03-26.65,0-2.31.13-4.64.19-6.96.16-5.32.32-10.63.47-15.95.08-2.69.09-5.4.25-8.09.21-3.62.42-7.24.63-10.86.41-7.01.78-14.01,1.27-21.02.46-6.73,1.03-13.47,1.39-20.22.22-4.09.44-8.18.66-12.27.3-5.46.39-10.92.53-16.39.04-1.56-1.12-2.93-2.73-3.01-1.64-.08-2.83,1.17-3.01,2.72h0Z"/>
      <path class="cls-1" d="m216.12,82.62c-.1,2.82-.18,5.64-.29,8.46-.05,1.55-.14,3.1-.15,4.64-.02,2.11-.05,4.23-.07,6.33-.05,4.15-.14,8.29-.13,12.44,0,8.75.06,17.5.08,26.25.02,7.93.24,15.86.37,23.8.06,3.55.12,7.1.17,10.64.05,2.68.23,5.37.35,8.04.42,9.79.85,19.58,1.28,29.37.1,2.32.39,4.64.61,6.95.52,5.5,1.04,11.01,1.55,16.51.39,4.12.78,8.24,1.17,12.36.07.78.14,1.56.22,2.35.07.79.26,1.58.39,2.36.76,4.6,1.52,9.2,2.29,13.8.3,1.8.6,3.59.9,5.39.04.27.09.56.14.83.3,1.79.42,3.68,1.76,5.06,1.2,1.24,3.14,1.42,4.45.23.62-.56.99-1.35,1.04-2.18.04-.71-.16-1.31-.52-1.87,0-.01,0-.02,0-.04-.04-.98-.06-1.95-.2-2.92-.1-.69-.21-1.39-.31-2.08-.37-2.55-.75-5.1-1.12-7.64-.61-4.15-1.2-8.31-1.82-12.46,0,.02,0,.05,0,.07-.98-11.94-1.97-23.88-2.96-35.83-.06-.75-.05-1.5-.07-2.24-.07-2.08-.14-4.17-.21-6.25-.19-5.74-.39-11.49-.59-17.23-.13-3.91-.26-7.8-.39-11.7-.08-2.34-.05-4.68-.07-7.02-.15-17.63-.28-35.26-.38-52.89-.02-3.74-.17-7.49-.27-11.24-.07-2.75-.15-5.5-.23-8.25-.12-4.58-.53-9.16-.82-13.74-.05-.86-.19-1.57-.79-2.23-.55-.61-1.32-.98-2.13-1.02-1.66-.09-3.19,1.25-3.25,2.93h0Zm12.11,166.28c.01.15.02.3.04.46,0,.05,0,.11.01.16-.02-.21-.03-.41-.05-.62h0Zm3.43,25.1s0,.07,0,.11c0-.04,0-.07,0-.11h0Z"/>
      <path class="cls-1" d="m235.9,84.99c-.29,2.51-.57,5.02-.85,7.52-.16,1.38-.34,2.76-.46,4.14-.16,1.91-.31,3.82-.47,5.74-.2,2.53-.41,5.05-.62,7.58-.08,1.02-.19,2.04-.24,3.06-.42,7.95-.86,15.89-1.29,23.84-.11,2.09-.16,4.18-.23,6.26-.18,5.11-.37,10.21-.56,15.31-.2,5.47-.41,10.94-.53,16.4-.2,9.67-.41,19.35-.61,29.02-.11,4.87-.13,9.72-.15,14.59-.02,9.49-.04,19-.06,28.49-.02,6.13.1,12.25.18,18.37.05,4.29.1,8.58.15,12.87.02,1.36.1,2.72.15,4.08.11,2.54.2,5.08.34,7.61.06.93.21,1.69.86,2.41.59.65,1.42,1.06,2.31,1.1.88.05,1.75-.27,2.4-.86.61-.54,1.14-1.46,1.1-2.31-.29-7.12-.32-14.25-.33-21.37-.03-6.69-.11-13.39-.05-20.08.08-9.03.16-18.04.24-27.06.05-5.1.06-10.2.2-15.3.4-14.84.73-29.69,1.31-44.53.61-15.84,1.23-31.68,1.85-47.52.13-3.35.21-6.69.31-10.03.07-2.32.14-4.64.21-6.96.12-4.03.1-8.06.13-12.1.02-1.45-1.02-2.71-2.51-2.79-1.52-.08-2.63,1.08-2.79,2.51h0Z"/>
      <path class="cls-1" d="m258.9,77.59c-.6,16.79-.82,33.58-1.05,50.37-.09,6.77-.06,13.55-.05,20.33,0,6.25-.04,12.5.13,18.75.27,9.39.53,18.77.79,28.16.05,1.68.17,3.34.29,5.01.36,4.91.72,9.81,1.08,14.71.29,3.98.58,7.95.87,11.92.14,1.95.32,3.87.57,5.81.54,4.39,1.09,8.79,1.63,13.18.22,1.75.44,3.51.65,5.26.27,2.19.68,4.34,1.06,6.51.26,1.54,1.55,2.85,3,3.32.79.26,1.59.3,2.41.12.78-.17,1.46-.53,2.05-1.05h0c.59-.54,1.01-1.19,1.27-1.94.26-.77.3-1.61.12-2.4h0c-.42-2.41-.85-4.79-1.15-7.22-.32-2.57-.64-5.14-.97-7.7-.52-4.12-1.01-8.24-1.55-12.36-.57-7.82-1.17-15.63-1.76-23.45-.14-1.91-.29-3.83-.43-5.74-.05-.63-.11-1.25-.14-1.87-.09-3.17-.2-6.34-.3-9.51-.25-8.1-.5-16.2-.77-24.31-.11-3.09-.1-6.18-.15-9.26-.08-5.21-.16-10.42-.25-15.63-.11-6.91-.32-13.82-.5-20.72-.07-2.71-.11-5.42-.25-8.12-.23-4.51-.47-9.03-.71-13.55-.11-2.23-.34-4.46-.52-6.69-.1-1.36-.21-2.73-.32-4.09-.22-2.74-.58-5.47-.88-8.2-.1-.92-1.09-1.61-1.95-1.66-1.14-.06-2.17.85-2.21,2h0Z"/>
      <path class="cls-1" d="m279.54,60.92c-.62.33-1.33,1.01-1.47,1.73-.45,2.19-1.01,4.39-1.32,6.6-.17,1.22-.35,2.44-.52,3.66-.25,1.74-.55,3.49-.72,5.24-.42,4.04-.91,8.09-1.23,12.15-.61,7.8-1.28,15.61-1.73,23.42-.35,5.84-.69,11.68-1.03,17.52-.15,2.56-.36,5.11-.43,7.67-.3,10.35-.6,20.69-.9,31.03-.06,2.06-.13,4.12-.18,6.18-.02.65-.07,1.31-.06,1.96.06,3.1.12,6.2.19,9.29.21,11.26.43,22.52.65,33.78.03,1.74.03,3.46.14,5.19,0-.02,0-.03,0-.05,0,0,0,.02,0,.03,0,0,0,0,0,.01,0,0,0,.02,0,.03,0,0,0,0,0,.01,0,.02,0,.04,0,.06,0-.02,0-.03,0-.05,0,0,0,0,0,0,0,0,0-.02,0-.03,0,0,0,.02,0,.03,0,0,0,.02,0,.03,0,.09.01.17.02.26,0,.07.01.14.02.22,0,.11.02.22.03.34,0,0,0,.01,0,.02,0-.09-.02-.18-.02-.27.01.17.03.35.04.52,0,.06,0,.12.01.17,0,.02,0,.04,0,.06,0,.08.01.16.02.23,0-.07-.01-.14-.02-.21,0,0,0,.02,0,.03,0,.08.01.16.02.24,0,.04,0,.08,0,.12.06.69.11,1.38.17,2.07,1.28,15.68,2.56,31.35,3.85,47.03,0-.07-.01-.15-.02-.22.01.18.03.35.04.53-.02-.2-.04-.41-.05-.61.01.13.02.25.03.38,0-.07-.01-.13-.02-.2.04.42.07.85.11,1.27-.01-.14-.02-.28-.03-.43,0,.02,0,.04,0,.06,0,.08.01.17.02.25,0-.06-.01-.13-.02-.19,0,.02,0,.05,0,.07,0-.11-.02-.22-.03-.33,0-.03,0-.05,0-.08,0,.02,0,.04,0,.06.01.13.02.27.03.4.09,1.01.18,2.03.27,3.04-.03-.38-.06-.77-.09-1.16.31,3.9.57,7.8.94,11.69.18,1.86.41,3.73.68,5.58.14.92.3,1.84.47,2.75.13.69.33,1.38.43,2.07.34,2.35,3.01,3.8,5.2,3.32,2.45-.54,4.1-3.34,3.2-5.71-.84-3.96-1.32-7.96-1.67-11.99-.31-3.75-.6-7.49-.91-11.24.03.39.06.78.09,1.16-1.37-16.89-2.72-33.8-4.07-50.7.02-.34,0-.7-.08-1.05-.17-8.53-.28-17.06-.42-25.59-.09-5.49-.18-10.99-.27-16.48-.03-1.96-.14-3.93-.07-5.89.32-10.13.66-20.25.99-30.38.1-3.01.12-6.03.3-9.04.24-3.93.48-7.87.71-11.8.51-8.43,1.01-16.85,1.57-25.28.27-3.96.57-7.92.79-11.88.24-4.22.58-8.44.68-12.66.05-1.92.1-3.84.14-5.78.06-2.48-.04-4.97-.11-7.46-.03-1.36-.71-2.57-2.05-3.02-.26-.08-.52-.13-.79-.15-.53-.03-1.07.09-1.55.33h0Zm-.02,164c.03.34.05.68.08,1.02,0,0,0,0,0,0-.03-.34-.06-.68-.08-1.02h0Zm-8.62,1.22s0,0,0,.01c0,.02,0,.04,0,.05,0-.02,0-.04,0-.07h0Zm.03.35c0,.08.01.16.02.25,0,0,0,0,0,.01,0-.03,0-.06,0-.1,0-.01,0-.02,0-.04,0-.04,0-.08,0-.12h0Zm.25,3.12c0,.11.02.23.03.35,0-.12-.02-.23-.03-.35h0Zm3.94,48.02s0,.04,0,.07c0,0,0-.02,0-.03,0-.01,0-.03,0-.04h0Zm.07.82c0-.08-.01-.15-.02-.23,0-.02,0-.03,0-.05,0,.09.01.18.02.28h0Zm-.11-1.41c-.02-.21-.03-.41-.05-.62.02.21.03.42.05.62h0Zm-4.01-48.87s0,0,0,0c0-.06,0-.11-.01-.17,0,.06,0,.12.01.18h0Zm-.11-1.33s0-.1-.01-.15c0,0,0,0,0-.01,0,.05,0,.11.01.16h0Zm-.03-.32c0,.05,0,.1.01.16,0-.08-.01-.16-.02-.24,0,.03,0,.06,0,.09h0Zm0-.09s0-.02,0-.03c0-.04,0-.09-.01-.13,0,.06,0,.11.01.17h0Zm-.01-.17s0-.04,0-.07c0-.04,0-.08,0-.11,0-.07-.01-.15-.02-.22.01.14.02.27.03.41h0Zm-.02-.22s0,.05,0,.08c0,0,0-.01,0-.02,0,0,0,0,0,0,0,0,0,0,0,0,0-.02,0-.03,0-.05,0,0,0,.02,0,.02,0,.01,0,.03,0,.04,0,.02,0,.05,0,.07,0,.06,0,.12.01.18,0,0,0-.01,0-.02,0,.01,0,.02,0,.03,0,0,0,0,0-.01,0-.01,0-.03,0-.04h0s0-.01,0-.01c0-.03,0-.05,0-.08,0,.02,0,.04,0,.05,0-.04,0-.08,0-.12,0-.11-.02-.23-.03-.35,0,.07.01.14.02.21h0Zm0,.06h0s0-.04,0-.06c0-.1-.02-.19-.02-.29,0,.12.02.23.03.35h0Zm-.03-.35s0-.01,0-.01c0,0,0-.02,0-.02,0,.01,0,.03,0,.04h0Zm0-.01s0,.06,0,.09c0-.06,0-.12-.01-.17,0,.03,0,.05,0,.08h0Z"/>
      <path class="cls-1" d="m299.63,98.56c-.75,6.01-1.5,12.03-1.95,18.07-.35,4.78-.79,9.55-1.06,14.34-.51,9.24-1.08,18.46-1.38,27.71-.2,6.27-.41,12.55-.6,18.83-.11,3.18-.04,6.36-.04,9.54,0,6.69.01,13.38.01,20.07,0,2.65.04,5.27.16,7.91.42,8.86.85,17.71,1.27,26.57.13,2.71.25,5.42.45,8.12.38,4.94.81,9.87,1.33,14.8.26,2.5.57,5,.91,7.49.27,2.08.35,4.23,1,6.23.46,1.42,1.07,2.58,2.36,3.43,1.24.81,2.77,1.09,4.22.78,1.4-.31,2.64-1.17,3.43-2.37.55-.83.84-1.75.89-2.74.05-.93-.12-1.81-.52-2.64-.47-1.91-.63-3.91-.91-5.85-.35-2.49-.65-4.99-.94-7.48-.57-5-1.02-10.01-1.43-15.02.04.47.08.95.12,1.43-.57-10.73-1.13-21.46-1.7-32.19-.14-2.64-.18-5.26-.19-7.91-.04-6.7-.07-13.38-.11-20.08-.02-3.18-.09-6.37,0-9.55.15-6.28.31-12.56.47-18.84.23-9.25.58-18.49.91-27.74.18-4.78.23-9.58.34-14.37.05-2.15-.05-4.29-.08-6.43-.02-1.33-.04-2.65-.06-3.97-.04-2.6-.35-5.21-.53-7.8-.06-.88-.2-1.62-.82-2.3-.56-.63-1.37-1.01-2.21-1.05-1.84-.1-3.13,1.3-3.36,3.02h0Z"/>
      <path class="cls-1" d="m317.97,53.17c-.39,3.33-.82,6.66-1.13,10-.24,2.6-.48,5.19-.73,7.8-.37,3.88-.56,7.78-.83,11.67-.57,8.32-.93,16.64-1.33,24.97-.36,7.46-.54,14.94-.77,22.41-.13,4.24-.26,8.47-.38,12.7-.07,2.29-.04,4.58-.05,6.88-.07,9.95-.14,19.9-.21,29.85,0,1.7.06,3.4.11,5.1.14,5.11.29,10.22.43,15.33.16,5.52.31,11.04.47,16.55.06,2.28.04,4.58.2,6.85.65,9.31,1.31,18.62,1.97,27.93.23,3.24.42,6.47.82,9.7.59,4.89,1.24,9.78,1.77,14.68.08,1.34.19,2.63.88,3.83.35.66.84,1.2,1.46,1.62,1.05.68,2.09.73,3.29.6h0c1.44-.15,2.72-1.54,3.16-2.85.36-1.1.25-2.21-.23-3.2-.24-3.15-.68-6.29-1.06-9.44-.36-3.05-.73-6.11-1.09-9.17-.55-8.58-1.15-17.16-1.74-25.75-.13-2-.27-4-.4-6-.04-.59-.1-1.18-.12-1.78-.08-3.25-.16-6.51-.24-9.77-.25-10.26-.5-20.53-.75-30.79-.05-1.61-.03-3.22-.02-4.84.05-5.04.11-10.07.16-15.11.07-7.08.05-14.17.26-21.24.28-9.46.56-18.92.84-28.38.24-7.92.5-15.85.74-23.77.11-3.46.13-6.92.19-10.39.06-3.64.11-7.28.06-10.93-.02-2.01-.05-4.02-.08-6.03-.04-2.93-.26-5.85-.4-8.78-.03-.73-.17-1.34-.68-1.9-.47-.52-1.12-.83-1.82-.87-1.51-.08-2.6,1.07-2.77,2.49h0Zm8.87,222.11c0,.07.01.13.02.2,0-.07-.01-.13-.02-.2h0Z"/>
      <path class="cls-1" d="m351.36,97.21c-.67.6-.91,1.32-1.04,2.18-.38,2.43-.89,4.88-1.11,7.32-.13,1.43-.26,2.87-.39,4.3-.19,2.06-.41,4.12-.54,6.19-.28,4.73-.62,9.46-.83,14.2-.44,9.97-.87,19.93-1.16,29.92-.15,5.48-.31,10.97-.46,16.45-.12,4.23-.02,8.48-.02,12.72-.01,6.22-.02,12.44-.03,18.66,0,2.97.19,5.96.31,8.93.28,6.79.56,13.59.84,20.38.15,3.41.24,6.82.52,10.22.84,10.06,1.65,20.13,2.51,30.19-.01-.14-.02-.27-.03-.41.32,3.95.74,7.9,1.13,11.84.03.37.06.75.09,1.12.22.98.66,1.84,1.34,2.58,1,1.11,2.43,1.79,3.93,1.87,1.49.08,2.98-.45,4.1-1.45.74-.67,1.27-1.48,1.59-2.43.32-.99.37-1.99.16-3.02-1.16-8.1-1.78-16.28-2.53-24.43-.54-5.95-1.09-11.9-1.64-17.85-.56-10.84-1.07-21.67-1.6-32.51-.14-2.77-.17-5.51-.18-8.27-.05-6.86-.09-13.72-.13-20.57-.06-9.68.18-19.37.34-29.05.15-8.58.46-17.17.56-25.75.05-4.56.1-9.12.15-13.68.02-2.23-.09-4.48-.13-6.71-.07-3.49-.26-6.96-.45-10.44-.04-.87-.2-1.61-.81-2.28-.56-.62-1.35-.99-2.18-1.04-.84-.04-1.66.25-2.28.81h0Zm-1.31,182.75c-.03-.36-.06-.72-.09-1.08.03.36.06.72.09,1.08h0Z"/>
      <path class="cls-1" d="m356.72,68.39c-.38,1.31-.8,2.59-1.05,3.93-.07.41-.14.82-.2,1.22-.16.97-.39,1.96-.45,2.94-.14,1.98-.29,3.98-.35,5.97-.12,4.11-.21,8.22-.19,12.32.04,7.76.07,15.54.26,23.3.37,15.89.73,31.77,1.42,47.64.39,8.86.7,17.73,1.16,26.58.5,9.5,1,18.99,1.49,28.49.41,7.83,1.14,15.65,1.75,23.46.17,2.21.34,4.42.51,6.63.08,1.03.14,2.06.28,3.07.67,5.12,1.36,10.23,2.03,15.34.15,1.14.33,2.29.45,3.44.05.65.1,1.3.2,1.95.15,1.04.71,1.97,1.38,2.76,1.28,1.5,3.68,1.56,5.12.27.71-.64,1.14-1.55,1.19-2.5.04-.74-.15-1.35-.48-1.93-.04-.96-.03-1.92-.15-2.88-.05-.5-.11-.99-.17-1.5-.25-2.16-.5-4.33-.75-6.49-.4-3.45-.79-6.9-1.2-10.35-.6-8.76-1.19-17.53-1.8-26.29-.15-2.28-.24-4.56-.35-6.83-.26-5.78-.52-11.56-.79-17.34-.32-7.1-.61-14.19-.88-21.29-.3-7.75-.65-15.5-.85-23.25-.22-8.48-.48-16.97-.63-25.45-.17-8.82-.29-17.64-.38-26.46-.05-5.74-.02-11.47-.01-17.21,0-2.51.03-5.03,0-7.54-.02-1.46,0-2.92-.1-4.37-.06-.99-.13-1.96-.19-2.95-.09-1.47-.3-2.92-.47-4.37-.15-1.31-1.54-2.29-2.77-2.35-1.3-.07-2.63.77-3.01,2.05h0Zm14.22,204.27c.04.12.08.24.13.36h0c-.04-.12-.09-.24-.13-.36h0Z"/>
      <path class="cls-1" d="m387.95,45.04c-.57,19.66-.71,39.32-.86,58.98-.07,8.06.08,16.12.18,24.18.1,7.51.21,15.01.45,22.52.21,6.13.41,12.27.61,18.41.09,2.81.14,5.62.29,8.42.28,5.16.55,10.31.83,15.47.22,4.19.35,8.39.71,12.56.73,8.66,1.43,17.32,2.28,25.97.13,1.33,1.27,2.7,2.34,3.4,1.23.81,2.75,1.09,4.19.77,1.38-.3,2.62-1.15,3.4-2.34.21-.43.42-.85.62-1.28.31-.96.36-1.92.15-2.91-.86-8.32-1.59-16.66-2.36-24.99-.52-8.83-1.05-17.66-1.57-26.49-.19-3.13-.26-6.28-.38-9.41-.24-6.11-.49-12.22-.73-18.33-.63-15.62-1-31.25-1.59-46.87-.2-5.51-.41-11.03-.62-16.54-.13-3.38-.38-6.76-.59-10.14-.25-4.1-.46-8.21-.83-12.31-.26-2.89-.52-5.79-.78-8.68-.32-3.6-.78-7.18-1.21-10.77-.11-.99-1.18-1.74-2.11-1.79-1.22-.06-2.36.92-2.4,2.17h0Z"/>
      <path class="cls-1" d="m408.64,42.55c-.7.64-.95,1.38-1.09,2.29-.65,4.19-1.44,8.37-1.91,12.58-.32,2.88-.64,5.76-.96,8.63-.22,1.97-.44,3.94-.66,5.91-.17,1.54-.23,3.11-.34,4.65-.41,5.5-.81,10.99-1.22,16.49-.23,3.14-.31,6.3-.45,9.46-.37,8.19-.88,16.37-1.01,24.56-.17,11.13-.36,22.25-.53,33.38-.03,1.89,0,3.76.04,5.65.14,5.52.27,11.05.4,16.57.14,5.96.29,11.93.43,17.88.05,2.13.04,4.27.19,6.39.74,10.8,1.48,21.61,2.23,32.42.19,2.8.28,5.63.63,8.41.67,5.27,1.33,10.55,2,15.82.35,2.71.69,5.41,1.03,8.11.16,1.28.35,2.56.49,3.85.1,1.53.16,3.07.38,4.59.13.91.5,1.77.82,2.63.2.53.83,1.47,1.17,1.81.88.88,1.91,1.45,3.18,1.52,1.62.08,3.2-.72,4.09-2.07.9-1.38,1-3.18.24-4.65-.1-.2-.22-.38-.34-.56-.01-.03-.03-.05-.04-.08-.12-.49-.2-.99-.26-1.49-.1-1.49-.19-2.98-.38-4.47-.1-.77-.2-1.54-.3-2.31-.41-3.22-.83-6.43-1.24-9.65-.68-5.2-1.35-10.4-2.02-15.59-.67-9.3-1.31-18.59-1.98-27.89-.25-3.58-.5-7.16-.76-10.75-.05-.76-.03-1.54-.06-2.31-.05-2.19-.11-4.38-.17-6.58-.28-11.07-.57-22.12-.85-33.19-.05-2.07,0-4.15.04-6.23.08-6.01.17-12.02.26-18.03.08-4.93.15-9.87.22-14.8.03-2.6.18-5.2.3-7.8.37-8.87.63-17.74,1.18-26.6.39-6.34.76-12.69,1.18-19.03.26-3.78.51-7.56.77-11.35.35-5.18.56-10.38.8-15.57.08-1.8-1.32-3.38-3.13-3.47-.87-.04-1.73.26-2.38.84h0Zm8.54,235.29c.01.16.03.33.04.49-.01-.16-.03-.33-.04-.49h0Z"/>
      <path class="cls-1" d="m445.87,42.74c-.6,9.67-1.04,19.34-1.33,29.02-.25,8.16-.41,16.3-.54,24.45-.11,6.88-.22,13.76-.24,20.64,0,10.15-.03,20.31-.03,30.46,0,1.76.05,3.51.09,5.27.12,5.24.23,10.47.34,15.7.12,5.47.24,10.94.35,16.42.04,2.04.06,4.07.14,6.11.37,9.8.74,19.61,1.11,29.41.28,7.6.74,15.18,1.16,22.77.16,2.92.38,5.82.6,8.74.03.44.07.88.1,1.32.19.85.58,1.59,1.16,2.24,1.17,1.31,3.01,1.9,4.72,1.52,1.25-.28,2.36-1.05,3.06-2.11.48-.75.75-1.57.8-2.45.02-.43-.01-.86-.1-1.27-.36-4.74-.66-9.47-.96-14.22-.23-3.8-.55-7.62-.71-11.43-.42-9.39-.83-18.79-1.24-28.19-.27-6.05-.43-12.1-.6-18.16-.27-9.8-.53-19.61-.79-29.42-.05-1.99-.05-3.98-.07-5.97-.05-5.57-.1-11.13-.15-16.71-.07-6.86-.13-13.72-.2-20.59-.09-8.4-.07-16.8-.28-25.2-.13-5.19-.27-10.38-.39-15.58-.09-3.72-.31-7.44-.49-11.16-.19-4-.55-7.99-.88-11.99-.08-1.01-1.23-1.78-2.16-1.83-1.29-.07-2.38.95-2.47,2.22h0Z"/>
      <path class="cls-1" d="m452.03,27.03c-.3,3.65-.64,7.29-.8,10.95-.13,2.85-.24,5.68-.37,8.53-.18,4.15-.22,8.33-.31,12.49-.21,8.98-.45,17.96-.68,26.95-.38,15.2-.88,30.4-1.06,45.6-.13,10.33-.24,20.65-.37,30.98-.02,2.41.11,4.84.18,7.26.16,6.06.32,12.13.48,18.2.12,4.69.25,9.39.37,14.07.07,2.5.36,5.01.58,7.51.83,9.65,1.66,19.31,2.49,28.96.1,1.19.36,2.38.54,3.55.44,2.89.88,5.78,1.32,8.67.43,2.85.87,5.71,1.31,8.56.22,1.43.48,2.88.63,4.33.16,2.75.1,5.88,2.15,7.97,1.18,1.21,3.09,1.39,4.38.23,1.25-1.13,1.37-3.13.23-4.38-.02-.02-.04-.04-.05-.06-.09-.37-.16-.74-.21-1.12-.1-1.72-.07-3.45-.3-5.17-.08-.58-.15-1.17-.23-1.75-.36-2.72-.71-5.44-1.08-8.15-.61-4.66-1.24-9.33-1.85-13.99-.63-9.32-1.27-18.64-1.9-27.96-.16-2.26-.37-4.53-.4-6.79-.05-4.68-.1-9.37-.15-14.06-.07-6.06-.13-12.13-.2-18.18-.03-2.42-.13-4.84-.07-7.26.26-10.32.53-20.64.79-30.96.39-15.19,1.11-30.38,1.59-45.57.28-8.99.63-17.96.73-26.94.03-2.97.06-5.94.09-8.91.01-1.2.04-2.39,0-3.59-.09-2.86-.18-5.71-.27-8.56-.11-3.74-.5-7.46-.81-11.19-.02-.25-.05-.5-.07-.75-.13-.58-.39-1.1-.79-1.54-.6-.66-1.45-1.06-2.34-1.11-1.89-.1-3.4,1.36-3.55,3.2h0Z"/>
      <path class="cls-1" d="m499.06,40.43c-.33,3.26-.66,6.52-.99,9.78-.16,1.57-.34,3.14-.45,4.71-.17,2.56-.35,5.12-.53,7.68-.3,4.36-.69,8.71-.9,13.08-.48,10.01-.96,20.04-1.45,30.05-.15,3.2-.21,6.4-.32,9.6-.21,6.62-.43,13.23-.65,19.85-.1,3.18-.28,6.36-.31,9.54-.03,3.95-.07,7.9-.1,11.86-.1,10.85-.19,21.7-.29,32.54-.03,2.7.15,5.41.23,8.11.19,6.5.38,13,.57,19.51.19,6.25.26,12.53.62,18.77.55,9.28,1.21,18.57,2.23,27.81.5,4.56,1.14,9.11,1.91,13.64.41,2.39.87,4.78,1.36,7.16.21,1.06.44,2.12.67,3.17.28,1.3.74,2.58,1.13,3.86.31,1.02.79,1.86,1.7,2.46.89.58,1.99.78,3.02.56,2.09-.46,3.5-2.62,3.02-4.72-2.61-11.32-4.04-22.86-5.01-34.43.03.38.06.77.09,1.16-.68-8.28-1.25-16.6-1.43-24.91-.12-5.5-.25-10.99-.37-16.49-.14-6.31-.28-12.62-.42-18.93-.05-2.27-.15-4.54-.12-6.81.17-11.38.32-22.75.49-34.13.05-3.27.02-6.54.14-9.81.14-3.88.27-7.77.42-11.65.33-9.29.63-18.58,1-27.86.4-9.89.87-19.78,1.21-29.66.16-4.68.25-9.36.38-14.05.06-2.21.12-4.43.18-6.65.04-1.52,0-3.06,0-4.59,0-3.28-.01-6.56-.02-9.83,0-1.91-1.33-3.58-3.32-3.68-1.99-.1-3.5,1.42-3.69,3.32h0Z"/>
      <path class="cls-1" d="m424.9,27.42c-.42,4.87-.87,9.75-1.28,14.63-.15,1.76-.3,3.51-.39,5.27-.2,3.84-.4,7.67-.6,11.51-.23,4.45-.46,8.89-.69,13.34-.08,1.43-.17,2.86-.2,4.29-.19,7.79-.38,15.57-.56,23.36-.1,4.34-.21,8.69-.31,13.03-.05,1.85-.14,3.71-.14,5.57.03,14.8.06,29.6.09,44.4.03,12.71.28,25.43.44,38.14.06,4.32.15,8.64.14,12.96-.02,7.39.03,14.77-.25,22.16-.14,3.65-.38,7.3-.75,10.94-.36,3.63-.93,7.23-1.54,10.83-.1.46-.19.92-.29,1.37-.16.77-.2,1.43.17,2.15.33.64.91,1.13,1.59,1.36,1.4.47,3.07-.31,3.5-1.76.34-1.09.64-2.17.85-3.3.23-1.19.44-2.37.64-3.56.41-2.44.74-4.89,1.03-7.35.55-4.8.79-9.63.96-14.45.17-4.86.2-9.71.25-14.58.02-1.95.07-3.92.05-5.88-.04-7.5-.08-15.02-.13-22.53-.04-7.04-.08-14.09-.12-21.13-.03-4.96.03-9.92.05-14.88.03-9.19.06-18.38.09-27.56.01-3.67.03-7.32.11-10.98.31-13.61.53-27.22.94-40.82.46-15.41.92-30.83,1.39-46.25.04-1.38-1-2.59-2.4-2.66-1.41-.07-2.54,1.02-2.65,2.4h0Z"/>
      <path class="cls-1" d="m479.95,85.81c-.27,5.28-.59,10.56-.79,15.85-.13,3.36-.26,6.73-.39,10.09-.16,4.28-.31,8.55-.46,12.83-.37,10.47-.72,20.95-1.08,31.43-.22,6.57-.44,13.15-.65,19.72-.11,3.25-.16,6.51-.23,9.76-.14,7.22-.3,14.45-.44,21.67-.04,1.81-.08,3.62-.12,5.43-.03,1.32.04,2.65.06,3.97.12,7.02.23,14.04.34,21.06.02,1.42-.02,2.87.07,4.29.16,2.47.32,4.94.48,7.41.2,3.19.4,6.38.61,9.57.1,1.63.19,3.26.33,4.9,0-.02,0-.05,0-.07.31,3.8.63,7.6.94,11.4,0-.04,0-.08-.01-.12.04.52.09,1.03.13,1.55.01.19.02.38.02.57.03,1.02.7,1.91,1.77,1.96.96.05,2-.75,1.96-1.77-.02-.85-.11-1.69-.18-2.53-.84-10.71-1.24-21.45-1.75-32.18-.05-1.16-.03-2.32-.03-3.48,0-3.33,0-6.66,0-9.99,0-5.4,0-10.79,0-16.18,0-1.4.09-2.8.14-4.19.11-3.33.22-6.67.32-10,.22-6.52.42-13.04.64-19.56.11-3.29.26-6.57.4-9.86.31-7.16.61-14.31.92-21.46.41-9.62.77-19.25,1.16-28.86.15-3.92.2-7.84.3-11.77.06-2.07.11-4.14.16-6.2.05-1.92.03-3.85.03-5.77,0-3.07.02-6.13.03-9.2,0-1.27-.89-2.39-2.22-2.46-1.27-.07-2.39.94-2.46,2.22h0Zm-1.36,189.04c0,.1.01.19.02.29,0-.07,0-.13-.01-.2,0,0,0,.02,0,.03,0-.02,0-.03,0-.05,0-.11-.02-.22-.03-.33,0,.09.01.17.02.26h0Zm-.92-11.16c-.01-.15-.02-.3-.04-.45.01.15.02.3.04.45h0Z"/>
      <path class="cls-1" d="m541.41,61.68c-.57.52-.8,1.16-.9,1.9-.67,5.32-1.4,10.64-1.94,15.98-.42,4.19-.85,8.38-1.27,12.58-.5,4.91-.95,9.83-1.39,14.74-.64,7.23-1.28,14.46-1.92,21.69-.48,5.3-.84,10.61-1.26,15.92-.56,7.01-1.1,14.02-1.66,21.03-.1,1.25-.16,2.49-.23,3.74-.23,3.79-.46,7.57-.69,11.36-.75,12.6-1.5,25.21-2.17,37.81-.28,5.25-.49,10.5-.84,15.74-.43,6.58-.85,13.16-1.31,19.73-.07.99.75,1.87,1.73,1.92,1.06.05,1.77-.75,1.91-1.73.54-3.67.94-7.35,1.35-11.04.33-2.96.74-5.94,1.01-8.91.59-6.76,1.19-13.52,1.79-20.27,1.11-12.51,2.19-25.03,3.28-37.55,1.05-12.06,2.24-24.12,3.41-36.18,1.19-12.31,2.26-24.64,3.34-36.96.38-4.34.68-8.66.97-13.01.24-3.65.48-7.3.73-10.95.34-5.11.44-10.23.64-15.35.06-1.5-1.09-2.8-2.59-2.88-.72-.04-1.44.22-1.98.7h0Z"/>
      <path class="cls-1" d="m553.53,69.79c-.56,7.86-1.16,15.71-1.51,23.58-.27,6.06-.54,12.12-.81,18.18-.14,3.12-.17,6.25-.23,9.38-.15,6.72-.3,13.44-.46,20.16-.06,2.66-.15,5.31-.14,7.97.04,5.53.07,11.05.1,16.58.05,8.58-.04,17.18.21,25.76.62,21.1,1.26,42.2,1.92,63.29.2,6.5.18,13,.37,19.5.04,1.16.28,2.16,1.08,3.04.75.83,1.8,1.33,2.91,1.39,2.31.12,4.29-1.7,4.43-3.99.15-2.54.09-5.1.11-7.65.02-2.54.03-5.07.05-7.61.03-4.42-.17-8.85-.25-13.27-.17-8.55-.33-17.11-.5-25.66-.14-6.79-.28-13.57-.42-20.36-.07-3.61-.22-7.23-.22-10.84,0-10.88,0-21.75-.01-32.63,0-17.36.53-34.71.75-52.07.06-4.85.12-9.7.19-14.55.08-6.6-.11-13.21-.2-19.81-.03-2.01-1.38-3.76-3.49-3.87-2.04-.11-3.72,1.49-3.87,3.49h0Z"/>
      <path class="cls-1" d="m588.16,60.63c-1.1,10.29-2.15,20.59-2.9,30.92-.64,8.75-1.27,17.5-1.91,26.24-.65,9.01-1.13,18.03-1.69,27.04-.42,6.79-.71,13.59-1.02,20.39-.25,5.62-.5,11.25-.75,16.87-.09,2-.19,4-.24,6-.25,10.24-.5,20.49-.74,30.73-.14,5.45-.21,10.9-.31,16.34-.07,4.58-.15,9.15-.23,13.73-.02.99-.03,1.97-.05,2.96-.03,1.66-.06,3.32-.08,4.98-.02,1.17-.04,2.35-.07,3.52-.02.7-.06,1.4-.09,2.1-.02.4-.1,1.04-.08,1.44.04,1.47.77,2.78,2.23,3.27,1.61.54,3.67-.35,4.13-2.07.32-1.19.29-2.49.36-3.7.08-1.41.12-2.81.16-4.22.05-1.71.09-3.42.16-5.13.06-1.52.11-3.05.17-4.58.22-5.71.44-11.44.66-17.15.26-6.92.59-13.84.92-20.76.27-5.72.55-11.43.82-17.15.1-2.09.18-4.2.32-6.29.66-10.2,1.31-20.4,1.98-30.6.93-14.46,2.08-28.9,2.77-43.37.24-4.88.47-9.75.71-14.63.1-2.19.25-4.37.29-6.56.09-4.38.17-8.76.26-13.14.03-1.52.06-3.04.09-4.56.03-1.47-.03-2.96-.04-4.45-.04-2.62-.07-5.25-.1-7.87-.02-1.56-1.07-2.93-2.71-3.01-1.62-.08-2.84,1.16-3.01,2.72h0Z"/>
      <path class="cls-1" d="m608.51,63.79c-.64.58-.89,1.28-1,2.11-.95,6.72-1.96,13.44-2.74,20.18-.62,5.43-1.24,10.86-1.86,16.29-.85,7.39-1.33,14.84-1.95,22.26-.38,4.51-.75,9.02-1.12,13.52-.15,1.84-.19,3.7-.26,5.54-.42,10.58-.84,21.15-1.25,31.74-.07,1.82-.21,3.64-.18,5.47.07,3.72.12,7.45.19,11.18.17,10.29.34,20.58.51,30.88.02,1.49.1,2.95.21,4.44.34,4.68.68,9.36,1.02,14.03.64,8.89,1.28,17.77,1.92,26.66.22,3.14.56,6.28.84,9.42.21,2.41.43,4.82.64,7.24.11,1.24.05,2.62.56,3.78,1.11,2.54,5.24,2.18,5.96-.47.13-.49.16-.7.16-.96,0,.02,0,.04,0,.06,0-.02,0-.05,0-.07,0-.11-.02-.22-.03-.37-.53-6.35-1.04-12.71-1.58-19.06.03.29.05.59.08.89-.21-2.59-.31-5.2-.47-7.79-.34-5.61-.67-11.23-1.01-16.84-.3-5-.6-9.99-.9-14.99-.1-1.58-.22-3.15-.22-4.73-.02-9.91-.03-19.83-.06-29.74,0-4.16-.01-8.31-.02-12.46,0-1.6.09-3.19.18-4.78.54-10.53,1.07-21.05,1.61-31.58.11-2.14.16-4.28.34-6.42.32-4.01.65-8.02.97-12.04.63-7.66,1.25-15.34,1.87-23,.42-5.3.85-10.59,1.27-15.88.47-5.96.83-11.92,1.19-17.88.08-1.39.17-2.78.24-4.17.1-1.66-1.24-3.12-2.89-3.2-.8-.04-1.6.24-2.2.78h0Zm1.55,222.49c0,.08.01.15.02.23,0-.07-.01-.14-.02-.23h0Z"/>
      <path class="cls-1" d="m629.79,52.72c-.46,4.27-.99,8.53-1.28,12.82-.24,3.39-.47,6.78-.71,10.17-.3,4.34-.47,8.69-.67,13.04-.2,4.45-.47,8.91-.6,13.36-.18,6.1-.37,12.19-.55,18.28-.28,9.48-.46,18.96-.6,28.45-.14,8.99-.29,17.98-.3,26.97,0,7.02-.02,14.04-.02,21.07,0,2.92-.03,5.84.03,8.77.15,6.54.29,13.08.44,19.62.08,3.77.1,7.55.3,11.32.35,6.74.64,13.49,1.14,20.22.08,1.09.24,1.98,1.01,2.83.69.77,1.67,1.23,2.71,1.29,1.98.1,4.2-1.57,4.11-3.71-.42-9.82-.6-19.64-.59-29.47,0-9.57-.07-19.13.13-28.69.21-10.65.33-21.31.66-31.96.35-11.28.69-22.57,1.04-33.85.3-9.89.69-19.78,1.04-29.67.14-4.02.24-8.04.35-12.05.13-4.57.35-9.14.34-13.71,0-3.58-.02-7.17-.03-10.75,0-4.67-.31-9.31-.54-13.97-.06-1.02-.24-1.88-.95-2.67-.65-.72-1.58-1.16-2.56-1.21-2.09-.11-3.67,1.5-3.89,3.5h0Z"/>
      <path class="cls-1" d="m656.35,44.69c-.51,6.28-1.04,12.56-1.55,18.84-.21,2.53-.43,5.07-.57,7.6-.3,5.29-.6,10.58-.91,15.88-.41,7.25-.83,14.5-1.14,21.75-.83,18.94-1.64,37.88-2.45,56.82-.63,15-1.3,29.98-1.83,44.97-.67,18.73-1.29,37.46-1.85,56.2-.06,2.18-.13,4.36-.2,6.55-.05,1.87-.13,3.76-.21,5.63-.09,2-.16,4-.21,6.02-.02,1-.01,2,0,3,.01.77-.03,1.61.11,2.37.27,1.38,1.55,2.4,2.92,2.47,1.67.09,3.3-1.27,3.32-3,.02-1.25-.03-2.52-.01-3.77.03-1.5.09-3.01.15-4.51.12-2.52.25-5.04.36-7.56.06-1.32.11-2.63.18-3.95.25-5.83.51-11.65.77-17.48.32-7.34.69-14.68,1.08-22.02.99-18.22,2.04-36.44,3.09-54.66.87-15.05,1.72-30.11,2.52-45.16,1-18.97,1.96-37.94,2.9-56.91.47-9.55.72-19.12,1.05-28.68.07-2.05-1.48-3.85-3.56-3.95-2.09-.11-3.78,1.52-3.95,3.57h0Z"/>
      <path class="cls-1" d="m678.6,35.02c-.35,3.72-.7,7.42-1.05,11.13-.22,2.3-.49,4.6-.64,6.9-.17,2.66-.33,5.34-.49,8-.33,5.26-.77,10.54-.98,15.81-.23,5.66-.45,11.32-.68,16.98-.18,4.51-.43,9.04-.54,13.55-.26,11.26-.51,22.52-.77,33.78-.1,4.47-.05,8.95-.08,13.43-.03,5.88-.06,11.76-.1,17.65-.03,5.2.09,10.4.13,15.61.04,4.26.08,8.52.14,12.78.15,11.48.25,22.96.33,34.44.06,9.26-.02,18.52-.1,27.79-.01,2.21,1.56,4.14,3.84,4.25,2.23.12,4.12-1.64,4.25-3.84.41-6.34.49-12.69.68-19.03.13-4.38.15-8.76.21-13.15.15-11.26.28-22.54.41-33.8.1-8.73.16-17.46.29-26.2.17-10.31.23-20.63.52-30.93.31-10.89.55-21.79.92-32.67.35-10.24.77-20.49,1.06-30.74.16-5.78.32-11.57.47-17.35.23-7.99.22-15.98.25-23.97,0-2.21-1.56-4.14-3.84-4.26-2.28-.12-4.05,1.64-4.26,3.84h0Z"/>
      <path class="cls-1" d="m698.73,24.49c-.64,7.55-1.38,15.09-1.84,22.65-.35,5.83-.7,11.65-1.05,17.48-.46,7.64-.75,15.28-1.08,22.92-.31,7.29-.66,14.57-.87,21.86-.32,11.02-.63,22.05-.95,33.07-.19,6.78-.28,13.55-.41,20.33-.11,5.96-.22,11.93-.33,17.9-.04,2.39-.11,4.79-.13,7.18-.04,10.15-.08,20.3-.13,30.46-.04,8.03.14,16.05.25,24.08.1,7,.32,14,.62,20.99.04.88.22,1.64.83,2.32.56.62,1.37,1.01,2.22,1.05,1.64.08,3.41-1.29,3.37-3.04-.23-8.9-.23-17.79-.2-26.7.03-7.77.1-15.54.26-23.31.17-8.68.25-17.38.52-26.06.32-10.07.64-20.14.96-30.21.53-16.8,1.24-33.6,1.91-50.39.63-15.9,1.47-31.79,2.12-47.69.18-4.55.37-9.09.55-13.64.28-6.95.3-13.92.44-20.87.04-1.93-1.38-3.62-3.36-3.72-1.97-.1-3.55,1.43-3.71,3.36h0Z"/>
      <path class="cls-1" d="m726.33,23.84c-.06,2.78-.12,5.55-.19,8.33-.03,1.51-.1,3.03-.09,4.55.01,1.99.02,3.99.04,5.98.02,4.29.05,8.57.07,12.85.02,3.56.13,7.13.2,10.69.09,4.79.18,9.58.27,14.38.15,7.94.11,15.89.15,23.82.04,6.51,0,13.02-.05,19.53-.05,7.41-.05,14.82-.17,22.22-.16,9.77-.33,19.53-.49,29.3-.23,13.68-.53,27.38-.94,41.06-.22,7.56-.44,15.11-.67,22.67-.05,1.72-.1,3.45-.16,5.17-.08,2.04-.15,4.08-.22,6.12-.03.86-.06,1.72-.09,2.58-.02.72-.03,1.36.28,2.05.84,1.81,3.65,1.95,4.68.24.46-.78.45-1.55.5-2.4.07-1.29.13-2.57.21-3.86l.31-5.94c.18-3.54.38-7.1.58-10.64.38-7.03.77-14.06,1.11-21.1.47-9.61.94-19.21,1.4-28.82.36-7.38.57-14.78.85-22.18.24-6.34.51-12.67.66-19.01.23-9.62.44-19.23.67-28.85.05-2.28.02-4.55.02-6.82v-16.61c0-2.57.07-5.15,0-7.72-.14-4.57-.28-9.14-.42-13.7-.16-5.32-.3-10.63-.59-15.93-.23-4.09-.46-8.18-.69-12.27-.31-5.41-.84-10.79-1.31-16.18-.12-.51-.34-.97-.7-1.36-.53-.59-1.28-.94-2.07-.98-1.59-.08-3.11,1.2-3.14,2.83h0Z"/>
      <path class="cls-1" d="m751.88,3.18c-.25,3.05-.5,6.11-.75,9.16-.17,2.1-.4,4.21-.51,6.31-.1,1.92-.2,3.85-.3,5.77-.28,5.52-.56,11.05-.84,16.57-.14,2.82-.17,5.63-.24,8.45-.16,6.09-.32,12.18-.49,18.27-.2,7.55-.29,15.11-.41,22.66-.12,7.58-.26,15.16-.32,22.74-.08,10.71-.16,21.43-.24,32.14-.07,8.25.02,16.51.04,24.76.01,7.06.02,14.11.15,21.16.17,9.5.28,19.01.5,28.51.21,9.23.42,18.46.63,27.7.07,3.24.05,6.47.07,9.71.03,5.58.07,11.17.01,16.76-.01,1.66,1.18,3.12,2.89,3.21,1.64.08,3.17-1.23,3.22-2.89.17-5.7.28-11.41.4-17.11.07-3.29.17-6.56.17-9.84.01-9.1.02-18.19.04-27.29,0-10.13.02-20.26.03-30.39,0-7.24.13-14.49.23-21.73.25-18.6.6-37.19.97-55.79.31-15.37.73-30.74,1.05-46.11.16-8.32.42-16.64.48-24.96.04-5.47.08-10.93.12-16.4.05-7-.11-13.99-.23-20.99-.03-1.83-1.26-3.43-3.18-3.53-1.86-.1-3.37,1.35-3.52,3.18h0Z"/>
      <path class="cls-1" d="m781,21.59c-.58.3-1.25.94-1.38,1.61-.75,3.72-1.56,7.44-2.15,11.2-.45,2.87-.89,5.74-1.34,8.61-.6,3.85-.99,7.72-1.45,11.58-.39,3.31-.82,6.62-1.14,9.93-.53,5.5-1.06,11.02-1.59,16.52-.75,7.76-1.39,15.54-2.04,23.31-.6,7.24-1.24,14.48-1.74,21.74-.73,10.48-1.46,20.95-2.18,31.43-.55,8-.91,16.01-1.36,24.01-.24,4.28-.49,8.55-.73,12.83-.17,2.92-.22,5.84-.32,8.76-.31,8.5-.69,17-.83,25.51-.11,7.12-.24,14.26-.28,21.38-.02,2.59,1.83,4.85,4.5,4.99,2.51.13,4.96-1.91,4.99-4.5.06-5.58.15-11.16.23-16.74.05-3.41.05-6.81.18-10.22.35-9.39.69-18.79,1.03-28.18.11-2.95.33-5.89.51-8.82.34-6.03.69-12.05,1.04-18.08.38-6.63.8-13.25,1.26-19.88.62-9,1.16-18.01,1.86-27.01.76-9.7,1.53-19.4,2.29-29.1,1.24-15.72,2.52-31.44,3.71-47.18.53-7.01.81-14.04,1.06-21.06.04-1.25-.72-2.42-1.93-2.82-.24-.08-.48-.12-.73-.14-.5-.03-1,.08-1.45.31h0Z"/>
      <path class="cls-1" d="m801.59,23.47c-.55.5-.71,1.05-.84,1.75-.67,3.79-1.41,7.57-1.96,11.38-.4,2.7-.8,5.4-1.19,8.1-.27,1.8-.53,3.61-.8,5.4-.21,1.41-.31,2.84-.46,4.25-.58,5.29-1.16,10.57-1.74,15.86-.3,2.7-.44,5.42-.64,8.13-.43,5.75-.85,11.5-1.27,17.25-.16,2.19-.34,4.38-.45,6.57-.52,10.32-1.04,20.64-1.56,30.96-.35,6.9-.59,13.81-.87,20.71-.3,7.41-.62,14.82-.89,22.23-.68,18.04-1.34,36.07-1.95,54.11-.27,7.8-.47,15.61-.51,23.4-.01,1.31.35,2.5,1.24,3.49.85.95,2.06,1.53,3.34,1.59,2.57.13,5.03-1.94,5.08-4.58.3-16.53.71-33.06,1.25-49.58.6-18.06,1.22-36.11,1.88-54.17.6-16.35,1.34-32.69,2.05-49.04.12-2.89.32-5.77.48-8.66.32-5.67.65-11.35.97-17.03.44-7.87,1.01-15.74,1.54-23.61.19-2.91.38-5.81.57-8.71.39-5.93.68-11.85.96-17.78.06-1.37-1.01-2.58-2.39-2.65-.67-.03-1.33.2-1.82.64h0Z"/>
      <path class="cls-1" d="m818.39,17.78c-.36,2.6-.74,5.2-1.1,7.8-.23,1.6-.48,3.21-.64,4.82-.18,1.78-.35,3.56-.52,5.34-.41,4.18-.82,8.35-1.22,12.53-.08.78-.09,1.57-.14,2.34-.12,2.17-.24,4.33-.36,6.5-.27,4.95-.54,9.9-.81,14.86-.34,6.25-.47,12.5-.66,18.76-.21,6.57-.46,13.13-.62,19.7-.36,14.32-.77,28.64-1.06,42.96-.19,9.49-.38,18.96-.57,28.45-.13,6.59-.06,13.19-.07,19.78,0,4.68-.03,9.36.07,14.05.09,4,.17,8,.25,12,.02,1.2.05,2.4.08,3.61.06,2.89.02,5.77.28,8.66.09.89.87,1.82,1.59,2.29.82.54,1.85.73,2.82.52.93-.2,1.77-.78,2.3-1.58.59-.9.62-1.79.52-2.82,0,0,0,0,0,0,0-.02,0-.05,0-.07-.15-2.51-.08-5.03-.12-7.54-.03-2.19-.06-4.37-.09-6.56-.05-4.01-.11-8.02-.16-12.03-.03-2.96.06-5.92.09-8.89.05-5.04.1-10.07.14-15.11.06-5.99.25-11.99.4-17.98.19-7.22.36-14.44.55-21.66.37-13.93.72-27.86,1.09-41.8.25-9.47.51-18.94.76-28.41.18-6.51.43-13.04.66-19.55.47-13.57,1.14-27.13,1.7-40.7.06-1.4-1.03-2.63-2.44-2.71-1.49-.08-2.51,1.05-2.71,2.44h0Zm-1.45,218.27c.46.67.92,1.34,1.38,2.01-.46-.67-.93-1.34-1.38-2.01h0Z"/>
      <path class="cls-1" d="m843.82,2.43c-.57.52-.77,1.13-.88,1.86-.54,3.43-1.16,6.86-1.59,10.32-.32,2.6-.65,5.21-.98,7.8-.38,3.11-.72,6.21-1.03,9.32-.46,4.58-.92,9.15-1.37,13.73-.31,3.07-.51,6.16-.76,9.23-.59,7.14-1.22,14.26-1.71,21.4-.6,8.91-1.21,17.82-1.82,26.74-.19,2.79-.27,5.58-.4,8.38-.27,5.55-.55,11.1-.81,16.66-.31,6.28-.57,12.56-.8,18.85-.6,15.95-1.14,31.9-1.59,47.85-.31,11.2-.65,22.4-1.02,33.59-.06,1.64,1.18,3.07,2.84,3.16,1.64.08,3.06-1.21,3.15-2.85.86-16.16,1.82-32.32,2.67-48.48.76-14.61,1.47-29.23,2.36-43.83.58-9.39,1.15-18.77,1.73-28.15.41-6.62.91-13.22,1.38-19.84,1.07-14.78,2.23-29.56,3.2-44.35.24-3.58.47-7.15.71-10.73.14-2.1.31-4.2.41-6.3.15-3.02.3-6.05.44-9.08.21-4.38.28-8.76.36-13.15.03-1.46-1.04-2.75-2.54-2.83-.71-.04-1.41.21-1.94.69h0Z"/>
      <path class="cls-1" d="m862.19,46.55c-.47,11.34-.86,22.69-1.29,34.03-.34,8.8-.71,17.61-1.02,26.41-.66,18.6-1.3,37.2-1.88,55.8-.52,16.63-1.08,33.26-1.46,49.9-.23,9.53-.57,19.07-.44,28.6.02,1.33.34,2.5,1.25,3.51,1.17,1.29,2.97,1.87,4.67,1.5,2.24-.49,3.66-2.42,3.78-4.51.01,0,.02,0,.03.01.16-18.83.79-37.65,1.37-56.47.49-15.92,1.02-31.84,1.42-47.75.25-10.08.49-20.16.73-30.25.1-3.99.07-7.99.1-11.98.04-4.85.08-9.7.11-14.56.01-1.19-.06-2.39-.09-3.58-.08-2.98-.16-5.96-.24-8.94-.06-2.28-.12-4.56-.18-6.84-.04-1.46-.15-2.93-.24-4.39-.21-3.39-.44-6.79-.66-10.17-.05-.83-.19-1.52-.76-2.15-.52-.59-1.27-.94-2.06-.98-1.61-.08-3.06,1.2-3.13,2.83h0Z"/>
      <path class="cls-1" d="m876.4,5.67c-.3,3.01-.6,6.01-.91,9.01-.16,1.64-.36,3.28-.48,4.92-.16,2.14-.33,4.28-.49,6.43-.35,4.73-.7,9.46-1.06,14.19-.29,3.73-.44,7.48-.67,11.22-.31,5.09-.61,10.17-.9,15.26-.51,8.61-1.11,17.21-1.66,25.82-.52,8.03-1.2,16.05-1.83,24.07-1.2,15.44-2.64,30.86-3.69,46.31-.56,8.28-1.19,16.57-1.6,24.87-.44,8.84-.91,17.68-1.24,26.54-.12,3.24-.24,6.48-.37,9.72-.02.58-.05,1.16-.06,1.74-.05,1.25-.29,2.48-.41,3.73-.17,1.63.07,3.41.89,4.85,1.16,2.02,3.65,2.96,5.8,1.84,1.99-1.03,2.94-3.63,1.91-5.67.06-1.46.44-2.89.5-4.35.03-.64.06-1.29.09-1.93.12-2.79.24-5.58.36-8.38.14-3.3.26-6.6.44-9.9.45-8.25.8-16.52,1.39-24.77.4-5.6.8-11.2,1.21-16.79.21-3.01.39-6.03.65-9.04.82-9.54,1.65-19.08,2.47-28.62.75-8.68,1.41-17.37,2.11-26.06.64-7.97,1.08-15.97,1.58-23.95.19-3.06.45-6.13.58-9.19.19-4.83.39-9.68.58-14.52.17-4.1.35-8.21.5-12.31.16-4.39.17-8.79.25-13.19.05-2.42.09-4.85.14-7.27.1-4.75-.07-9.51-.11-14.27,0-1.62-1.13-3.04-2.82-3.13-1.69-.09-2.97,1.2-3.13,2.82h0Zm-6.73,225.21c.03.07.05.15.08.22-.03-.07-.06-.15-.08-.22h0Z"/>
      <path class="cls-1" d="m888.68,12.19c-.38,4.29-.88,8.6-1.12,12.91-.14,2.44-.27,4.87-.41,7.32-.2,3.62-.48,7.23-.57,10.85-.13,5.37-.26,10.75-.39,16.12-.07,2.83-.16,5.66-.17,8.5,0,5.44.01,10.88.02,16.33,0,3.4-.07,6.82,0,10.22.21,9.33.41,18.65.62,27.98.07,3.07.28,6.14.43,9.21.26,5.55.52,11.11.79,16.67.39,8.18.98,16.35,1.48,24.53.47,7.56.89,15.12,1.51,22.68.16.72.5,1.36.99,1.91.74.83,1.8,1.33,2.9,1.38,1.11.06,2.21-.33,3.04-1.08.76-.68,1.43-1.85,1.38-2.91-.72-17.02-1.93-34.02-2.64-51.05-.35-8.14-.78-16.28-.92-24.43-.11-5.83-.21-11.66-.31-17.49-.05-2.72-.12-5.44-.13-8.15-.02-8.98-.09-17.96-.07-26.94.01-8.14.09-16.28.03-24.43-.03-4.24-.06-8.49-.09-12.73-.04-5.7-.23-11.38-.39-17.08-.04-1.63-1.1-3.05-2.83-3.14-1.68-.09-3.01,1.21-3.15,2.83h0Z"/>
    </g>
  </g>
</svg>