<?xml version="1.0" encoding="UTF-8"?>
<svg id="Layer_2" data-name="Layer 2" xmlns="http://www.w3.org/2000/svg" viewBox="0 0 685.82 36.74">
  <defs>
    <style>
      .cls-1 {
        fill-rule: evenodd;
        stroke-width: 0px;
      }
    </style>
  </defs>
  <g id="Layer_1-2" data-name="Layer 1">
    <path class="cls-1" d="m685.12,1.42c-1.31.17-2.55.21-3.83-.13-.46-.12-.98,0-1.48,0-.56.01-1.09.03-1.61-.32-.27-.18-.78-.27-1.05-.13-.92.45-1.92.44-2.89.63-.51.1-.95.21-1.2.73-.21.44-.65.56-1.09.57-.5.02-1,.03-1.49-.03-2.48-.27-4.95-.21-7.43,0-1.35.11-2.72.04-4.08-.08-1.79-.16-3.57-.35-5.36.01-.77.15-1.59.06-2.35.08-.14.38,0,.54.27.62,2.09.65,4.27.74,6.43.87,1.07.07,2.2-.26,3.26-.56,1.01-.28,1.97.1,2.96.02.33-.03.67.19,1.16.34-.98.4-1.94,0-2.69.61-.08.33-.17.67-.26,1.05-.61-.08-1.14-.2-1.68-.2-.55,0-1.1.13-1.65.2-.58.06-1.02.62-1.49.65-.65.04-.98.36-1.35.74-.97-.21-1.92-.41-2.95-.62-.21.55-.38.99-.59,1.56-.23-.13-.52-.19-.58-.35-.23-.55-.38-1.14-.55-1.68-.14.47-.23,1.09-.52,1.61-.25.45-.73.78-1.11,1.16-.44-.13-.8-.22-1.14-.34-.17-.06-.44-.15-.47-.26-.3-1.44-1.74-1.4-2.63-2.06-.13-.1-.32-.13-.53-.21-.17.37-.33.69-.51,1.07.4.54.78,1.05,1.28,1.72-.7-.08-1.26-.05-1.75-.22-.52-.17-.99-.5-.83-1.24.04-.2-.24-.47-.48-.92-.33.63-.54,1.04-.75,1.45-1.13-.2-2.25-.41-3.42-.61.05-.31.1-.59.16-.95-.19-.11-.42-.2-.6-.35-.44-.37-.47-.74-.1-1.1.41-.39.81-.73,1.46-.63.61.1,1.24.1,1.86.06.41-.03.81-.19,1.2-.29.06-.53-.29-.6-.56-.66-1.22-.26-2.47-.27-3.7-.1-1.15.16-2.24.08-3.25-.47-.73-.4-1.41-.47-2.06.1-.35.3-.73.4-1.18.45-.47.05-.92.24-1.66.44.44.26.61.43.81.47.61.13,1.23.18,1.84.33.41.1.79.29,1.38.52-1.09.55-1.15,1.57-1.73,2.31.25.22.41.43.61.55.2.12.44.16.64.22-.48.37-.94.73-1.57,1.21-.29-.12-.76-.26-1.16-.5-.25-.15-.54-.46-.54-.7,0-.78-.49-1.37-.68-2.11-.32-.13-.65-.29-1-.4-.17-.05-.36,0-.51,0-.11.12-.25.2-.26.29-.03.24.04.5-.01.74-.04.22-.14.56-.29.6-.26.07-.62.04-.85-.09-.22-.12-.35-.42-.51-.63-.23.12-.39.15-.44.24-.18.31-.32.64-.53,1.09.35.12.61.3.85.27.75-.08.75-.11,1.2.61-.39.54-.92.8-1.58.78-1.29-.04-2.57-.1-3.92-.15-.13-.73-.24-1.37-.35-1.99-.68-.03-1.25-.05-1.83-.07.05.48.39.52.68.59.5.13.77.5.69.95-.1.52-.62.52-1.06.56-.19.01-.37,0-.56-.02-.54-.08-.85-.37-.84-.99.01-.54-.16-.97-.45-1.38-.33-.46-.93-.42-1.22.03-.47.75-.37,1.52-.09,2.33-.85-.14-1.78-.43-2.14-.71.43-.09.75-.16,1.14-.24.02-.52.04-1.05.06-1.56-.64-.28-1.36.03-1.8-.68.1-.09.22-.19.32-.31.11-.12.19-.26.28-.39-.15-.08-.35-.26-.44-.22-.37.18-.71.43-1.11.69-.14-.15-.31-.31-.47-.47-.22.29-.39.77-.65.83-.63.15-.55.51-.53.95,0,.14-.17.29-.25.42-.63-.11-.51-.64-.67-1.02-.97-.27-1.95-.55-2.93-.82.08-.24.13-.41.22-.7-.55-.29-1.13-.61-1.75-.94-.47.1-.95.18-1.43.29-.69.16-.72.17-.58,1.15.07.5-.2.8-.45,1.19-.52-.25-.97-.54-1.45-.67-.47-.13-.99-.09-1.48-.15-.61-.08-1.21-.2-1.91-.32-.12-.54-.24-1.06-.38-1.68-.61-.28-1.26-.07-1.91.11-.74.2-1.02.84-1.41,1.51-.69-.35-1.41-.52-1.81-1.22v.03c-.53-.02-1.07-.04-1.77-.07.28-.59.53-1.11.86-1.79-.29.06-.46.05-.57.12q-.94.56-1.83-.27c-.4.21-.81.44-1.23.67-.09.31-.17.61-.27.99.59.19,1.15.37,1.71.55,0,0,.02-.02.02-.03,0,0,0,.02,0,.04,0,0-.01,0-.02,0-.11.18-.25.35-.3.55-.04.14.05.32.08.46-.72-.09-1.37-.22-2.04-.25-.71-.04-1.2-.29-1.21-1.13-.65.09-1.17.17-1.77.26-.06.35-.14.71-.18,1.07-.04.37-.03.74-.05,1.17.8.38,1.67.15,2.51.2.43.03.87,0,1.29-.09,1.09-.23,2.07-.02,3.01.51-.18.67-.31.77-.77.58-.28-.11-.59-.4-.81-.33-.86.23-1.66.06-2.51-.03-1.49-.16-3.02-.04-4.52.23-.29.06-.6.06-.9.01-.61-.1-1.23-.18-1.81-.37-.78-.25-1.45-.1-2.07.4-.45-.24-.85-.58-1.29-.66-.39-.07-.82.16-1.36.28-.55-.16-1.14-.78-1.95-.4-.1.05-.27.05-.36,0-1.41-.78-3.03-.4-4.5-.81-1.34.47-2.63-.23-3.99-.17-1.37.06-2.78-.45-4.17-.72-.31-.06-.61-.14-.91-.2q-1.28-.26-2.57-1.21c1.24-.46,1.35-.46,4.25.1.21.29.42.58.68.95,1.34-.75,2.76-.64,4.16-.7.28-.01.55-.14.83-.23,0-.03,0-.05,0-.07-.08-.12-.17-.24-.24-.36-.02-.03.02-.09.02-.14.08.04.24.07.24.12.01.13,0,.26-.02.39,0,.02.02.04.04.06-.02,0-.03,0-.04.02v.03c.36.07.73.12,1.07.23.5.16.97.17,1.47-.05.25-.46.5-.93.74-1.38,1.04.2.3.91.49,1.33.1.07.19.19.29.2,1.3.04,2.5.6,3.82.55,1.1-.04,2.21.34,3.31-.1.15-.06.39-.02.52.08.78.59,1.51.36,2.2-.2.82.53,2.09.17,2.32,1.5.1-.77.7-1.08,1.3-1.39h0c-.58-.49-1.48-.14-2-.81-.41-.52-.88-1-1.32-1.49-.12-.13-.25-.28-.4-.36-.33-.18-3.28-.51-4.08-.48-.12.36-.25.75-.41,1.21-1.66-.28-3.28-.55-5.06-.85-.08-.21-.23-.57-.45-1.13-.22.51-.35.82-.5,1.15-.51.1-.99.16-1.21-.47-.35-1.02-1.15-1.44-2.14-1.46-1.03-.03-2.08-.44-3.08.13.29.83.84,1.58.82,2.64-1.83-.4-3.62-.26-5.35-.82-.8-.26-1.71-.22-2.57-.29-.23-.02-.48.05-.72.12q-1.57.5-3.01.04c-.77.27-.71,1.09-1.14,1.75-.31.08-.72.2-1.13.27-.24.04-.52-.08-.73,0-.6.21-1.07.85-1.85.45-.62-.31-1.28.34-1.98.02-.21-.09-.63.28-1.1.52-.64-.29-1.42-.68-2.32-.54-.6.1-1.21,0-1.64.63-.43.63-1.33.23-1.86.66-.58.47-1.2.1-1.87.2-.29.66-.22,1.29.29,1.83.41.44.89.81,1.45,1.32-1.15.31-2.15.24-3.28-.15.15-.44.29-.82.41-1.21.13-.4.25-.81.36-1.19q-1.07-.69-2.01-.04c-.01-1.11-.94-1.35-1.63-1.84-.72-.51-1.53-.1-2.29-.26-.13.49-.04,1.07-.86.9-.29-.06-.64.28-.98.4-.26.09-.55.13-.84.2.35,1.1,1.23,1.39,2.05,1.74.34.14.75.2,1.01.43.18.16.31.58.24.81-.07.23-.39.45-.65.54-.2.07-.48-.06-.71-.12-1.01-.29-1.94-.32-2.7.6-.44.52-1.06.58-1.77.51-.19-.27-.41-.56-.62-.86-1.5-.22-2.92-.07-4.06,1.04-.37-.38-.11-.64-.01-.9.17-.49-.12-.65-.48-.8,0,0,0,.02.02.03-.03,0-.06,0-.09,0-.52.34-.67.93-.97,1.42-.05.08-.21.08-.35.12-.48-.41-.55-.88-.18-1.54.47,0,.98,0,1.5-.01.02-.01.03-.03.05-.04,0,0,.01,0,.02.01-.33-.43-.08-.91-.07-1.36-.51-.21-1.01-.43-1.55-.66.07-.36.13-.66.2-1,.27-.09.54-.17.91-.3-.08-.26-.15-.53-.22-.75-.98-.16-1.27,1.11-2.22.83-.37-.5-.76-1.02-1.12-1.5-.44.08-.47.29-.38.56.1.29.31.58.29.86-.02.26-.22.59-.45.73-.28.17-.58,0-.74-.32-.22-.43-.44-.86-.7-1.36-.33.1-.6.17-1.03.29.32.57.58,1.02.81,1.45-.13.13-.2.28-.29.29-.55.09-1.08-.01-1.55-.32,0,0,0,.02,0,.03-.02,0-.03,0-.05,0-.06.55-.13,1.11-.2,1.79-.49-.14-.86-.25-1.22-.36.27-1.29.28-1.31,1.42-1.43,0-.01,0-.03,0-.05.01,0,.02,0,.04.02-.04-.29-.08-.59-.12-.94-.83-.34-1.65-.72-2.59-.64-.72,2.28-.87,2.53-1.77,3.04-.01-.19-.11-.4-.04-.5.78-1.11.24-2.12-.24-3.1-.31-.61-.81-.58-1.14.11-.28.58-.55.29-.87.13q-.58,1.01-.57,1.73c.01.28.03.56.04.84-.05,0-.11,0-.16-.01.04-.28.07-.55.12-.83-.54-.09-1.11-.13-1.64-.29-.55-.17-.77.25-1.1.48-.53-.27-1.03-.63-1.59-.8-.6-.19-.4-1.28-1.39-1.04-.04.44-.08.9-.13,1.4-.7-.47-.82-.47-1.02.03-.08.21-.12.45-.19.75-.95-.5-1.47-1.48-2.51-1.61-.11.89-.7,1.66-.5,2.65.07.32-.35.75-.59,1.21-.46-.1-.85-.25-1.27-.28-.41-.02-.83.07-1.24.1-.14-.46.1-.65.43-.67.36-.02.73.12,1.1.1.49-.04.77-.36.81-.97-.29-.36-.63-.79-.98-1.21-1.09.25-2.11.42-3.15,0-.3-.12-.71.02-1.07.05-.05.42-.11.84-.16,1.24-.51.68-1.3.67-2.08.89-.31-.24-.62-.54-.99-.75-.37-.21-.81-.47-1.19-.45-1.32.09-2.55-.5-3.85-.48-.08,0-.16-.14-.35-.32,1.56-.56,3.16.23,4.62-.24.04-.55-.29-.63-.58-.65-1.42-.1-2.84-.17-4.26-.24-1.98-.1-3.96-.19-5.94-.27-.69-.03-1.38-.03-1.86.73.48.36.93-.21,1.39-.05.39.12.51.33.38.96-1.67-.06-3.33-.15-4.99-.18-.61-.01-1.23.05-1.84.13-.8.11-1.58.16-2.4,0-.53-.11-1.17-.15-1.64.06-.79.36-1.52.3-2.31.21-.54-.06-1.17-.12-1.64.08-.78.35-1.52.41-2.33.25-.83-.16-1.24-.02-2.37.53-.42.2-.84.26-1.21-.07-.55-.47-.9,0-1.39.34-.59-.44-1.25-.89-2.12-.57-.27.1-.61.02-.92,0-1.22-.1-1.22-.11-1.79.95-.33-.45-.54-.95-1.14-1.17-.83-.28-.93-.3-1.43.53-.34.56-1.42,1.05-1.87.66-.66-.57-1.41-.36-2.21-.59-.08-.29-.17-.62-.27-.96,0,0,.02.05.02.05-.12-.04-.23-.09-.35-.11q-1.26-.16-2.26.8c-.4-.05-.83-.12-1.25-.17-.38-.04-.73-.03-.97.36-.08.13-.31.29-.42.26-.65-.19-1.14.28-1.8.47-.12-.43-.21-.76-.33-1.22-.47.4-.9.78-1.34,1.17-.73-.35-.16-.9-.27-1.28-.1-.11-.16-.23-.25-.27-.85-.36-1.83-.01-2.66-.52-.65.72-1.08-.1-1.69-.3-.15.58.09,1.05.25,1.54.02,0,.04.01.06.02,0,.05.02.11.03.17,0,0,0,.01.01.02.02.03,0,.07,0,.11,0-.05-.01-.09-.02-.14-.02-.04-.05-.08-.07-.12,0-.02-.01-.04-.02-.06-.26-.11-.53-.22-.87-.37-.23.38-.43.72-.66,1.08-.19-.74-.33-1.45-.58-2.11-.08-.23-.56-.56-.63-.51-.67.44-1.12-.07-1.64-.28-.1-.04-.29.14-.43.21.17.81.97.69,1.41,1.06-.06.1-.13.29-.16.29-1.12-.26-1.84.25-2.36,1.16,0,0,0,0,0,.01,0,.03,0,.06,0,.09.17.23.32.47-.03.9.01-.38.02-.64.03-.9,0-.02-.02-.04-.03-.05,0-.02.02-.03.03-.05-.2-.42-.39-.85-.6-1.29-.63-.23-.37.66-.85.7-.07,0-.2.03-.3-.02-.46-.2-.91-.46-.84-1.05.06-.55.49-.75.99-.8-.16-.24-.29-.6-.5-.65-.44-.11-.93-.05-1.54-.05.03.42.02.71.06.99.06.49-.18.82-.53,1.1-.43.33-.88.25-1.24-.21-.18-.24-.36-.48-.53-.72-.18.29-.33.62-.58.85-.37.35-.83.27-.99-.27-.24-.82-.87-.7-1.52-.99.06.59.1,1,.14,1.51-1.06.35-1.89.02-2.63-.72-.74-.75-.86-.7-1.15.41-.15.07-.32.16-.49.22-.17.06-.36.08-.5.12-.09-.04-.16-.06-.19-.1-.16-.26-.31-.53-.49-.83-.28.03-.56.05-.86.08-.38-.35-.22-1.13-.95-1.17.1.26.21.52.29.79.05.17.07.36.06.53,0,.12-.09.22-.19.46-.38-.08-.8-.15-1.2-.27-.59-.17-1.13-.4-1.8-.23-.44.11-.99-.08-1.44-.27-.6-.25-1.14-.43-1.76-.06-.17.1-.47.02-.7-.04-.36-.09-.7-.25-1.05-.37-1.34-.46-1.66-.91-1.75-2.44-.01-.18-.09-.36-.17-.64-.29.1-.54.24-.8.26-.27.03-.55-.07-.82-.11-.17.69-.31,1.2.48,1.46.59.2.41.66.12,1.16-.31-.11-.62-.28-.95-.31-.29-.03-.6.12-.91.15-.31.03-.62.03-.93-.02-1.21-.19-2.43-.39-3.7-.6-1.31,1.92-3.17,2.05-5.3,1.65.02-.48.03-.88.05-1.33q-1.42.77-2.43.5c-.78.4-1.09,1.1-1.33,1.91-.21.69-.57.75-1.27.35-.55-.32-2.48-.86-3.12-1-.78-.16-1.58.17-2.36-.22-.4-.2-.96.55-.77.99.19.44.45.84.76,1.42-.65-.03-1.12-.07-1.59-.06-.5,0-1,.15-1.48.06-.39-.07-.88-.3-1.07-.62-.38-.64-.92-.75-1.57-.76-.99-.02-2.01-.24-2.96-.05-.96.18-1.67-.02-2.35-.61-.58.87-.57.89.25,1.35.15.08.26.22.38.35.03.03,0,.11-.02.31-.41-.02-.83-.02-1.25-.05-.34-.02-.56-.19-.64-.55-.08-.36-.41-.58-.69-.43-.7.37-.99-.37-1.48-.45-.24.18-.46.5-.68.49-.46,0-.96-.33-1.37-.23-.5.12-.94.18-1.44.1-.6-.09-1.23.12-1.79-.3-.17-.13-.5-.16-.71-.1-1.59.53-3.21.08-4.81.2-.86.06-1.73-.02-2.58-.14h0s-.04,0-.06,0c-.33-.04-.66-.01-.99,0-.33-.02-.66-.05-.99,0-.02,0-.04,0-.06,0h0s0,0,0,0c-.85.12-1.72.21-2.58.14-1.6-.12-3.22.33-4.81-.2-.21-.06-.54-.03-.71.1-.56.42-1.19.2-1.79.3-.51.08-.95.02-1.44-.1-.42-.1-.91.23-1.37.23-.22,0-.44-.31-.68-.49-.49.08-.78.82-1.48.45-.28-.15-.61.07-.69.43-.08.36-.3.53-.64.55-.42.03-.83.04-1.25.05-.02-.2-.05-.28-.02-.31.12-.13.23-.27.38-.35.82-.46.83-.48.25-1.35-.67.59-1.39.79-2.35.61-.95-.18-1.98.03-2.97.05-.65,0-1.18.12-1.57.76-.19.32-.68.55-1.07.62-.47.08-.98-.05-1.48-.06-.47,0-.93.03-1.58.06.31-.58.57-.98.76-1.42.19-.44-.36-1.19-.77-.99-.78.39-1.58.06-2.36.22-.65.13-2.57.67-3.12,1-.7.41-1.06.35-1.27-.35-.24-.81-.55-1.51-1.33-1.91q-1.02.27-2.43-.5c.02.46.03.86.05,1.33-2.14.4-3.99.27-5.3-1.65-1.27.2-2.48.41-3.7.6-.31.04-.62.04-.93.02-.31-.03-.61-.18-.91-.15-.33.03-.64.2-.95.31-.29-.5-.47-.96.11-1.16.79-.26.65-.77.48-1.46-.28.04-.55.13-.83.11-.26-.02-.51-.16-.8-.26-.07.28-.15.46-.16.64-.09,1.52-.4,1.98-1.75,2.44-.35.12-.69.28-1.05.37-.22.06-.53.14-.7.04-.62-.38-1.16-.2-1.76.06-.45.19-1,.38-1.44.27-.67-.16-1.21.07-1.8.23-.4.12-.82.18-1.2.27-.1-.23-.19-.34-.2-.46,0-.18.01-.36.06-.53.08-.27.19-.53.29-.79-.73.04-.58.82-.96,1.17-.29-.03-.58-.05-.85-.08-.18.3-.32.57-.49.83-.03.04-.1.06-.19.1-.15-.03-.33-.06-.5-.12-.18-.06-.34-.15-.49-.22-.29-1.11-.41-1.16-1.15-.41-.74.75-1.56,1.07-2.62.72.05-.51.08-.92.14-1.51-.65.29-1.28.17-1.52.99-.16.54-.61.62-.98.27-.25-.23-.4-.56-.58-.85-.18.24-.35.48-.53.72-.36.47-.81.55-1.24.21-.35-.28-.59-.61-.53-1.1.04-.28.04-.57.06-.99-.61,0-1.1-.06-1.53.05-.21.05-.34.41-.5.65.5.05.93.26,1,.8.07.59-.38.85-.84,1.05-.1.05-.23.02-.3.02-.48-.03-.22-.93-.85-.7-.21.45-.41.87-.6,1.29,0,.02.02.03.03.05-.01.02-.02.04-.04.05,0,.25.02.51.03.9-.35-.43-.2-.67-.03-.9,0-.03,0-.06,0-.09,0,0,0-.01,0-.01-.52-.92-1.24-1.42-2.36-1.16-.03,0-.1-.18-.16-.29.45-.37,1.25-.24,1.41-1.06-.14-.07-.33-.25-.43-.21-.53.21-.97.72-1.64.28-.07-.05-.54.28-.63.51-.25.67-.39,1.37-.58,2.11-.22-.37-.43-.71-.66-1.08-.34.15-.6.26-.87.37,0,.02-.01.04-.02.06-.02.04-.05.08-.07.12-.01.04-.02.09-.02.14,0-.04,0-.08.01-.11,0,0,.01-.01.01-.02.01-.06.02-.11.03-.17.02,0,.04-.02.06-.02.15-.48.4-.95.24-1.54-.61.2-1.04,1.01-1.69.3-.82.5-1.81.15-2.65.52-.1.04-.15.17-.25.27-.11.38.46.94-.27,1.28-.44-.39-.88-.76-1.34-1.17-.12.46-.21.79-.34,1.22-.66-.19-1.15-.66-1.8-.47-.11.03-.35-.13-.42-.26-.24-.39-.59-.41-.97-.36-.43.05-.85.12-1.25.17q-1-.95-2.27-.8c-.12.02-.23.07-.35.11,0,0,.01-.05.01-.05-.09.34-.19.67-.27.96-.8.23-1.55.02-2.21.59-.45.39-1.54-.11-1.88-.66-.5-.83-.6-.81-1.43-.53-.6.21-.81.72-1.14,1.17-.58-1.05-.58-1.05-1.79-.95-.31.02-.65.1-.92,0-.87-.31-1.53.13-2.12.57-.5-.35-.84-.81-1.39-.34-.38.33-.8.27-1.22.07-1.13-.55-1.54-.69-2.37-.53-.82.15-1.55.1-2.34-.25-.47-.21-1.1-.14-1.64-.08-.79.09-1.53.16-2.31-.21-.46-.21-1.11-.17-1.64-.06-.81.16-1.59.11-2.4,0-.61-.08-1.23-.15-1.84-.13-1.66.04-3.32.12-4.98.18-.13-.63,0-.83.38-.96.46-.16.91.41,1.39.05-.49-.76-1.18-.76-1.87-.73-1.98.08-3.96.17-5.94.27-1.42.07-2.84.14-4.26.24-.29.02-.63.1-.58.65,1.46.47,3.06-.32,4.62.24-.19.18-.27.32-.35.32-1.3-.02-2.53.57-3.85.48-.38-.02-.82.24-1.19.45-.37.21-.68.51-.99.75-.77-.22-1.56-.21-2.08-.89-.05-.41-.11-.82-.16-1.24-.36-.03-.77-.17-1.07-.05-1.04.43-2.06.26-3.15,0-.35.43-.69.85-.98,1.21.03.62.32.93.81.97.36.03.73-.11,1.09-.1.33.02.56.2.43.67-.41-.03-.83-.13-1.24-.1-.41.03-.81.17-1.27.28-.24-.46-.65-.89-.59-1.21.2-.99-.38-1.76-.5-2.65-1.04.12-1.56,1.11-2.51,1.61-.08-.31-.11-.54-.2-.75-.2-.5-.32-.5-1.01-.03-.05-.5-.09-.96-.13-1.4-.98-.24-.79.85-1.39,1.04-.56.18-1.06.53-1.59.8-.34-.22-.55-.65-1.11-.48-.52.16-1.08.2-1.63.29.04.28.08.56.12.83-.06,0-.11,0-.16.01.01-.27.03-.55.04-.84q.01-.72-.57-1.73c-.32.16-.59.46-.87-.13-.34-.69-.84-.73-1.14-.11-.48.98-1.02,1.99-.24,3.1.07.1-.02.31-.04.5-.9-.51-1.05-.76-1.77-3.04-.95-.08-1.77.3-2.59.64-.05.35-.09.64-.12.94.01,0,.02,0,.04-.02,0,.02,0,.03,0,.05,1.14.12,1.15.14,1.42,1.43-.36.11-.73.21-1.22.36-.08-.68-.14-1.24-.2-1.79-.02,0-.03,0-.05,0,0,0,0-.02,0-.03-.47.31-1,.41-1.55.32-.09-.01-.17-.16-.3-.29.24-.43.5-.88.82-1.45-.43-.12-.7-.19-1.04-.29-.25.5-.48.93-.7,1.36-.16.32-.46.5-.74.32-.22-.14-.43-.47-.45-.73-.02-.28.19-.58.29-.86.09-.27.07-.48-.38-.56-.36.48-.74,1-1.11,1.5-.95.28-1.25-.99-2.22-.83-.07.22-.15.49-.22.75.38.13.64.21.92.3.07.34.12.63.19,1-.55.23-1.05.44-1.55.66,0,.45.25.93-.07,1.36,0,0,.01,0,.02-.01.02.01.03.03.05.04.51,0,1.02,0,1.49.01.38.66.3,1.13-.18,1.54-.13-.05-.29-.05-.34-.12-.3-.49-.45-1.09-.97-1.42-.03,0-.06,0-.09,0,0,0,0-.02.01-.03-.35.15-.66.31-.48.8.09.26.35.53-.01.9-1.15-1.11-2.57-1.26-4.07-1.04-.21.3-.43.59-.62.86-.71.07-1.34.01-1.77-.51-.76-.91-1.69-.89-2.7-.6-.23.07-.51.19-.71.12-.26-.09-.58-.31-.64-.54-.07-.24.05-.65.24-.81.26-.23.67-.29,1.01-.43.82-.35,1.7-.64,2.05-1.74-.29-.07-.57-.11-.84-.2-.34-.12-.69-.46-.97-.4-.82.16-.73-.42-.86-.9-.76.16-1.57-.25-2.29.26-.68.49-1.61.73-1.62,1.84q-.94-.66-2.01.04c.11.38.23.78.36,1.19.12.38.26.77.41,1.21-1.13.39-2.13.46-3.28.15.56-.5,1.04-.88,1.45-1.32.51-.54.57-1.17.28-1.83-.67-.11-1.29.27-1.87-.2-.53-.43-1.42-.03-1.85-.66-.43-.62-1.04-.53-1.64-.63-.9-.15-1.68.25-2.32.54-.47-.24-.89-.61-1.09-.52-.7.31-1.36-.33-1.99-.02-.79.4-1.25-.23-1.85-.45-.22-.08-.5.04-.74,0-.41-.07-.82-.19-1.13-.27-.43-.66-.36-1.48-1.14-1.75q-1.44.46-3.02-.04c-.23-.07-.48-.14-.71-.12-.86.07-1.77.02-2.57.29-1.73.56-3.53.42-5.36.82-.02-1.06.53-1.81.82-2.64-1-.56-2.06-.16-3.08-.13-.99.02-1.79.44-2.14,1.46-.22.63-.7.58-1.21.47-.14-.33-.28-.64-.5-1.15-.22.55-.37.91-.45,1.13-1.78.3-3.4.57-5.06.85-.16-.47-.29-.85-.41-1.21-.8-.03-3.74.3-4.07.48-.15.08-.28.23-.4.36-.45.49-.91.97-1.32,1.49-.52.67-1.42.33-2,.81h0c.6.31,1.2.62,1.31,1.39.23-1.34,1.5-.98,2.32-1.5.7.56,1.42.79,2.2.2.13-.1.38-.14.52-.08,1.1.43,2.21.05,3.31.1,1.32.05,2.53-.51,3.83-.55.1,0,.2-.13.3-.2.19-.42-.55-1.12.49-1.33.24.45.5.92.74,1.38.49.22.97.21,1.47.05.35-.11.72-.16,1.08-.23,0,0,0-.02,0-.03-.01,0-.03-.01-.04-.02.01-.02.03-.04.04-.06-.02-.13-.04-.26-.03-.39,0-.05.15-.08.24-.12,0,.05.04.12.03.14-.07.12-.16.24-.24.36,0,.02,0,.05,0,.07.28.09.55.22.83.23,1.4.06,2.81-.05,4.16.7.26-.37.47-.66.68-.95,2.9-.56,3.01-.56,4.25-.1q-1.3.95-2.57,1.21c-.3.06-.6.14-.91.2-1.39.27-2.8.79-4.18.72-1.35-.06-2.65.64-3.99.17-1.47.41-3.09.03-4.5.81-.09.05-.26.05-.36,0-.81-.38-1.4.24-1.95.4-.54-.12-.98-.35-1.36-.28-.45.08-.85.42-1.29.66-.61-.5-1.28-.65-2.07-.4-.58.19-1.2.27-1.81.37-.29.04-.6.04-.89-.01-1.5-.27-3.03-.38-4.53-.23-.85.09-1.65.26-2.51.03-.22-.06-.54.22-.81.33-.46.19-.59.1-.77-.58.94-.52,1.93-.74,3.01-.51.42.09.86.12,1.29.09.84-.05,1.72.18,2.51-.2-.02-.43-.01-.8-.05-1.17-.04-.36-.12-.72-.18-1.07-.6-.09-1.12-.16-1.77-.26-.01.84-.49,1.1-1.21,1.13-.66.03-1.32.16-2.04.25.03-.15.13-.33.09-.46-.06-.2-.19-.37-.3-.55,0,0-.02,0-.02,0,0-.02,0-.03,0-.04,0,0,.01.02.02.03.56-.17,1.12-.36,1.71-.55-.1-.38-.19-.68-.27-.99-.42-.22-.83-.45-1.23-.67q-.89.84-1.83.27c-.11-.07-.27-.06-.57-.12.33.68.58,1.2.87,1.79-.7.03-1.24.05-1.79.07v-.03c-.38.71-1.1.88-1.79,1.22-.39-.67-.67-1.31-1.41-1.51-.65-.18-1.3-.39-1.91-.11-.14.61-.26,1.14-.38,1.68-.7.12-1.3.24-1.91.32-.49.07-1.01.02-1.48.15-.49.13-.93.42-1.45.67-.25-.39-.52-.69-.45-1.19.14-.97.11-.99-.58-1.15-.48-.12-.97-.2-1.43-.29-.62.34-1.19.65-1.75.94.09.29.14.46.21.7-.98.27-1.96.55-2.93.82-.16.37-.04.91-.67,1.02-.08-.13-.26-.28-.25-.42.02-.44.1-.8-.53-.95-.27-.06-.44-.54-.65-.83-.16.16-.32.32-.47.47-.4-.26-.73-.51-1.11-.69-.09-.04-.29.14-.44.22.09.13.18.27.29.39.1.12.23.22.32.31-.44.71-1.16.4-1.8.68.02.52.04,1.04.06,1.56.39.08.71.15,1.13.24-.36.29-1.29.57-2.14.71.27-.81.38-1.58-.09-2.33-.29-.45-.9-.49-1.23-.03-.29.41-.46.84-.45,1.38.01.62-.31.91-.84.99-.18.02-.37.04-.56.02-.43-.04-.96-.04-1.05-.56-.09-.46.18-.82.69-.95.28-.07.62-.12.67-.59-.58.02-1.15.04-1.83.07-.11.62-.22,1.25-.35,1.99-1.34.05-2.63.11-3.92.15-.66.02-1.19-.23-1.58-.78.45-.72.44-.69,1.2-.61.24.03.51-.16.85-.27-.22-.45-.36-.78-.53-1.09-.05-.09-.21-.12-.44-.24-.16.21-.28.5-.51.63-.24.13-.59.17-.85.09-.15-.04-.25-.38-.29-.6-.05-.24.02-.5-.01-.74-.01-.09-.15-.18-.26-.29-.15,0-.35-.05-.51,0-.35.11-.69.27-1,.4-.19.74-.68,1.33-.68,2.11,0,.24-.3.55-.54.7-.4.25-.87.39-1.16.5-.62-.48-1.09-.84-1.57-1.21.2-.06.44-.1.64-.22.2-.12.36-.32.61-.55-.58-.74-.64-1.76-1.73-2.31.59-.23.98-.43,1.38-.52.6-.14,1.23-.19,1.83-.33.2-.04.37-.21.81-.47-.74-.2-1.19-.39-1.65-.44-.45-.05-.84-.14-1.18-.45-.65-.57-1.33-.5-2.06-.1-1.02.55-2.11.63-3.25.47-1.23-.17-2.48-.16-3.71.1-.27.06-.61.13-.55.66.38.1.78.26,1.19.29.62.04,1.25.04,1.86-.06.66-.1,1.06.24,1.46.63.37.35.34.72-.1,1.1-.18.15-.41.24-.6.35.06.35.1.64.15.95-1.16.21-2.29.41-3.42.61-.21-.41-.43-.82-.75-1.45-.25.45-.53.72-.48.92.16.75-.31,1.07-.83,1.24-.5.17-1.06.15-1.75.22.5-.67.88-1.19,1.28-1.72-.18-.38-.34-.7-.51-1.07-.21.08-.39.11-.52.21-.9.65-2.33.62-2.63,2.06-.02.11-.3.2-.47.26-.35.12-.7.21-1.15.34-.38-.38-.86-.71-1.11-1.16-.29-.51-.38-1.13-.52-1.61-.17.54-.32,1.13-.55,1.68-.06.15-.35.21-.59.35-.21-.57-.38-1.01-.59-1.56-1.03.22-1.98.42-2.96.62-.36-.38-.7-.7-1.35-.74-.47-.03-.91-.59-1.49-.65-.55-.06-1.1-.2-1.65-.2-.54,0-1.08.12-1.68.2-.09-.38-.18-.72-.26-1.05-.75-.62-1.71-.21-2.69-.61.48-.15.83-.37,1.16-.34.99.09,1.95-.3,2.96-.02,1.06.3,2.19.63,3.26.56,2.15-.13,4.34-.22,6.43-.87.27-.08.4-.24.26-.62-.76-.02-1.58.07-2.34-.08-1.8-.36-3.57-.17-5.37-.01-1.35.12-2.73.19-4.08.08-2.48-.21-4.95-.27-7.43,0-.49.06-.99.05-1.49.03-.45-.01-.88-.12-1.1-.57-.25-.53-.69-.63-1.2-.73-.96-.19-1.97-.17-2.89-.63-.27-.13-.78-.05-1.05.13-.52.35-1.05.33-1.6.32-.5-.01-1.02-.13-1.48,0-1.28.34-2.52.3-3.83.13-.23-.03-.46-.04-.69-.05v29.92c.58.15,1.16.35,1.73.58,1.14.47,2.33.77,3.55.57.18-.35.32-.62.5-.99.84-.03,1.72-.17,2.56-.08,2.04.23,4.08.26,6.12.18.37-.01.74,0,1.12.02.86.02,1.73.04,2.59.06.49,0,.99-.02,1.48,0,1.36.04,2.72.12,4.08.14,3.1.06,6.2-.1,9.28.34.3.04.64.08.93-.01.81-.26,1.58-.14,2.39,0,.67.12,1.36.11,2.04.16,1.11.07,2.22.12,3.33.22.51.05.99.04,1.43-.26.56-.37,1.19-.35,1.79-.18.73.2,1.43.37,2.18.07.21-.09.52-.08.73.01,1.1.5,2.31.21,3.43.57.66.21,1.34.19,1.99-.16.46-.26.94-.23,1.44-.08.59.17,1.2.29,1.8.43.17.04.44.12.52.04.53-.53,1-.26,1.52.01.15.08.42.13.54.05.72-.52,1.4-.2,2.11,0,.56.15,1.1.11,1.58-.29.18-.15.51-.32.67-.25.71.32,1.3-.19,1.94-.19.43,0,.85.1,1.27.17.18.03.41.2.51.13.73-.5,1.43-.08,2.19.05,1.08-1.08,2.38-.6,3.66-.36.89-1.49,2.11-.44,3.23-.4.15-.32.25-.61.42-.85.09-.12.36-.27.43-.23.68.42.35-.46.92-.53.06.01.34.11.62.18.5.14.82-.05,1.05-.51.31-.63.31-1.1-.27-1.47-.68-.43-1.39-1.03-2.31-.41-.16.11-.53-.12-.69-.02-.54.37-.9-.28-1.39-.18-.48.1-.97.16-1.46.22-.11.01-.23-.06-.38-.1-.17-.28-.35-.58-.53-.88q-1.52.71-2.73-.57c.43-.25.84-.48,1.24-.71.44.18.84.35,1.42.59.56-.86,1.52-.78,2.44-.88.68-.07,1.35-.18,2.03-.24.78-.07,1.43-.33,1.9-1,.2.27.34.54.56.74.2.19.61.16.6.62-.21.07-.43.14-.67.22.06.34.16.67.17,1.01.01.35-.06.71-.09,1.03.48.18.86.31,1.12.41.07.93.13,1.71.19,2.49.38-.53.76-1.05,1.16-1.61.98.37,1.85.7,2.78,1.06.06-.43.06-.73.15-1.01.11-.34.43-.49.74-.35.16.08.34.4.31.57-.09.47-.29.92-.48,1.45q.63,1.45,1.29,1.98c.34-.11.69-.23,1.04-.34h0s-.01-.04-.02-.05c0-.01,0-.03.01-.04,0-.09-.02-.18-.02-.27,0-.06.03-.11.05-.17.03.05.08.11.07.15-.02.1-.06.19-.1.29,0,.02,0,.05,0,.08.34.63.67,1.25,1.03,1.92.64.01,1.2.54,1.91.47.65.83.23-.5.58-.28.7-.16,1.41-.35,2.13-.47.15-.02.34.25.52.4l-.02-.03c.78.09,1.59.08,2.1.65.4-.2.72-.49,1.03-.49.73,0,1.47.28,2.19.23.91-.07,1.41.68,2.09.9.19-.12.3-.17.39-.25q.84-.79,1.82-.12c.09.07.21.08.37.13.26-.22.54-.46.89-.75.47.22.97.44,1.5.69.59-.61,1.31-.53,2.02-.22.36.15.62.19,1.02.05.8-.28.93-.14,1.37.72.1.2.26.36.47.65.54-.47.99-.86,1.41-1.22.76.02,1.49.05,2.18.07.2.32.35.57.55.88.46-.19.84-.36,1.2-.5.27.15.51.34.79.42.56.16.51-.64.99-.66.3.53.73.83,1.36.62.34-.12.65-.32.99-.47.16-.07.34-.1.51-.15.26.38.5.72.69.98.56-.07,1.04-.13,1.52-.18.54-.05,1.11-.04,1.63-.16.64-.15,1.26-.41,1.91-.63.25.26.49.51.75.78.57-.35,1.48.06,1.69-.9.43.39.93.55,1.5.38.29-.09.57-.35.85-.35,2.15.04,3.78-1.8,5.97-1.59.05,0,.11-.06.16-.09,1.73-1.04,3.85-.83,5.63-1.72.05-.03.12-.01.19-.02,1.29-.15,2.57-.3,3.88-.11.59.08,1.23,0,1.82-.12.87-.16,1.68-.19,2.54.15,1.18.45,1.56.25,2.42-.95-.11-.63-.69-1.19-.31-1.93,1.02-.04,2.06-.32,2.94-.05.98.3,1.87.36,2.78.11.27.4.18.67-.05.92l.04-.03c.13.19.23.51.39.54.28.06.34-.23.36-.49.01-.22.07-.44.1-.57.85-.12,1.56-.23,2.33-.34-.01.84.33,1.73-.54,2.61.65.02,1.07.1,1.47.03.54-.1.67-.47.42-.95-.01,0-.03,0-.04,0,.01-.01.02-.03.03-.05-.02-.16-.05-.33-.06-.5,0-.04.11-.11.11-.11.08.06.22.17.2.21-.06.14-.16.27-.25.4,0,.01,0,.02,0,.03,0,0,0,0,0,0,.4-.08.81-.15,1.28-.24.03-.7.05-1.37.09-2.04.01-.23,0-.51.47-.46.08.63.16,1.29.26,2.04.66.21,1.18.59,1.04,1.45-.06.35.24.62.55.62.27,0,.64-.13.79-.34.19-.27.21-.66.32-1.09-.43-.16-.76-.3-1.1-.4-.41-.11-.62-.39-.71-.77-.04-.16-.1-.38-.03-.49.15-.24.41-.25.62-.05.35.34.73.41,1.19.22.33-.13.37.17.5.38.12.19.34.31.43.39.66,0,.61-.95,1.31-.67.31.77-.05,1.39-.38,2.11-.29-.2-.5-.35-.73-.52-.05.28-.11.52-.13.76-.01.11.05.23.13.51.92-.09,1.85.16,2.85.16,1.32,0,2.72-.14,3.97.55-.13.29-.25.54-.42.92.48-.02.81-.03,1.17-.05.06.63.09,1.18.17,1.72.05.33.22.61.62.51.34-.08.5-.33.48-.69-.01-.23-.13-.51-.04-.67.24-.42.54-.82.89-1.16.11-.11.62-.03.63.03.16.87.97,1.22,1.45,1.83.6.77.69.87,1.53.41.73-.4,1.16-.06,1.69.28.29-.09.58-.22.88-.28.78-.13,1.56-.45,2.31.15.15.12.49.11.7.03.42-.17.81-.17,1.26-.11.91.1,1.83.15,2.75-.04.41-.09.86.03,1.29.01.86-.04,1.73-.09,2.59-.15.49-.04.99-.09,1.47-.15.61-.08,1.22-.17,1.82-.25.31-.04.61-.12.92-.12,1.83,0,3.67.21,5.5-.05.18-.03.39-.09.55-.03,1.44.57,2.75.07,4.01-.5.32.08.62.15.91.23.34.1.67.21,1.01.32.21-.21.42-.42.64-.64.89.58,1.68.99,2.49-.03.28-.35.74-.37,1.04.2.1.19.54.32.78.27.33-.07.62-.46.94-.49.31-.03.64.28.98.34.23.04.49-.06.72-.15,1.22-.43,2.48-.81,3.66-1.34,1.22-.54,2.38-.64,3.57-.04,1.01.51,2.05.43,3.08.11.59-.19,1.18-.41,1.69-.74.74-.47,1.49-.52,2.31-.42.61.07,1.22.07,1.84.11.56-.63,1.29.33,1.88-.16q-.29-1.16.12-1.88c.85.4.85.39.76,1.13-.03.23-.04.47-.06.8.77.08,1.44.24,2.14.22.08-.73-.46-.95-.69-1.36-.09-.16.02-.44.05-.66.2.09.41.19.61.29.11.05.21.1.31.15.53.06.85-.86,1.48-.3-.02.34-.05.67-.07,1.01h.02c.12.02.21.03,0,0t0,0s0,0-.02,0h0s-.02,0-.03,0c.24.26.49.54.78.85.41-.1.8-.2,1.23-.3.06-.55.12-1.02.17-1.46.74.17,1.41.5,2.01.18.51-.27.86-.39,1.3.03.35.34.8.22,1.23.16.54-.08,1.08-.18,1.62-.14.66.05,1.31.24,1.97.34.42.06,1.72.31,1.97.45.11-.35.21-.7.32-1.08.19.25.34.45.5.66.41-.28.61-.88,1.27-.64-.04.23-.08.41-.09.59-.02.17,0,.34,0,.58.33.07.63.2.91.18.34-.03.66-.19,1.05-.32.06.47.1.81.16,1.16,0,.01.11,0,.29.02.3-.67.62-1.38.93-2.06.94-.38.77.88,1.42.93.12-.03.29-.02.34-.1.55-.81,1.32-.79,2.15-.62.42.08.87.28,1.26.2,1.13-.21,2.07.13,2.99.75,1.65-.56,3.24-.55,4.75.56.23-.16.46-.4.73-.5.27-.09.71-.18.88-.04,1,.86,2.12.5,3.17.32,1.46-.25,2.94-.04,4.39-.3.5-.09.94.38,1.56.2.52-.15,1.18.13,1.76.29.39.11.73.46,1.11.47.4,0,.8-.28,1.21-.4.17-.05.37-.05.55-.05,1.17-.04,2.34-.09,3.52-.12.43,0,.93-.07,1.25.13.58.35,1.04.27,1.56-.02.38-.22.79-.28,1.25-.22.6.07,1.21.02,1.82-.04.38-.04.67-.24.85-.62.24-.52.75-.58,1.31-.58.15.24.3.5.48.75.19.25.39.48.62.69.33.32.66.24,1.05-.21.08-.09.14-.2.21-.31.46.06.85.51,1.38.24.42-.22.86-.39,1.28-.57.64,1.05.64,1.03,1.7.72.26-.08.6-.03.86.07.28.11.49.34.83.09.57-.41,1.29-.17,1.93-.31.3-.07.7.47,1.09.56.63.15,1.32.47,1.87-.25.12-.16.43-.25.65-.24.55.01,1.1.1,1.66.15.34.34.69.68,1.02,1.01.54-.18,1-.34,1.47-.49.46-.15.92-.39,1.44-.1.03.24.05.47.09.81.72-.33,1.64.38,2.25-.57.09-.13.46-.12.7-.11.61.03,1.26,0,1.83.19.84.29,1.66.36,2.48.08.18.43.32.76.47,1.13,1.64.09,3.25.28,4.85.25,2.97-.04,5.95-.22,8.92-.32.33-.01.66-.03.99-.05.33.02.66.04.99.05,2.97.11,5.94.28,8.92.32,1.61.03,3.21-.16,4.85-.25.16-.37.29-.7.47-1.13.82.27,1.64.2,2.48-.08.57-.19,1.22-.16,1.83-.19.24-.01.62-.02.7.11.61.96,1.53.24,2.25.57.04-.33.07-.57.09-.81.52-.3.98-.05,1.44.1.46.15.93.31,1.47.49.34-.33.68-.67,1.02-1.01.56-.05,1.11-.14,1.66-.15.22-.01.53.08.65.24.55.72,1.25.4,1.87.25.39-.09.78-.63,1.09-.56.64.15,1.36-.1,1.93.31.34.25.54.02.83-.09.26-.1.6-.14.86-.07,1.07.31,1.06.32,1.7-.72.42.18.87.36,1.28.57.53.28.92-.18,1.38-.24.07.11.12.21.21.31.39.46.72.53,1.05.21.23-.21.43-.45.62-.69.18-.24.33-.51.48-.75.56,0,1.07.06,1.31.58.18.39.47.59.85.62.6.06,1.22.12,1.82.04.46-.05.87,0,1.25.22.52.29.98.37,1.56.02.33-.2.83-.13,1.25-.13,1.17.02,2.35.08,3.52.12.19,0,.38,0,.55.05.41.12.81.41,1.21.4.37,0,.72-.36,1.11-.47.58-.16,1.24-.44,1.76-.29.63.18,1.06-.29,1.56-.2,1.45.26,2.93.05,4.39.3,1.05.18,2.17.53,3.17-.32.17-.14.61-.06.88.04.27.1.5.34.73.5,1.5-1.11,3.09-1.12,4.75-.56.92-.62,1.86-.97,2.99-.75.4.07.84-.12,1.27-.2.83-.17,1.6-.19,2.15.62.05.07.22.07.34.1.65-.05.47-1.31,1.42-.93.31.68.63,1.4.93,2.06.18,0,.28,0,.29-.02.05-.35.1-.69.16-1.16.39.13.72.29,1.05.32.28.02.58-.11.91-.18,0-.23,0-.41-.01-.58-.01-.18-.05-.36-.09-.59.65-.25.86.36,1.26.64.15-.21.31-.41.5-.66.11.38.21.73.32,1.08.25-.14,1.56-.39,1.97-.45.66-.09,1.31-.29,1.98-.34.53-.04,1.08.06,1.62.14.43.07.88.18,1.23-.16.45-.42.79-.3,1.3-.03.61.33,1.28-.01,2.01-.18.06.44.11.91.17,1.46.43.1.82.2,1.23.3.29-.32.54-.59.78-.85,0,0-.02,0-.03,0h0s0,0-.02,0t.01,0c-.22.02-.14.01-.01,0h.02c-.02-.34-.05-.68-.07-1.01.63-.56.95.36,1.48.3.1-.05.21-.1.32-.15.2-.1.4-.2.61-.29.02.22.13.5.04.66-.23.41-.77.64-.69,1.36.69.01,1.37-.15,2.14-.22-.03-.33-.04-.57-.06-.8-.09-.73-.09-.73.76-1.13q.41.71.12,1.88c.59.49,1.31-.47,1.87.16.61-.04,1.23-.04,1.84-.11.83-.1,1.58-.05,2.32.42.51.33,1.11.56,1.69.74,1.03.33,2.07.41,3.08-.11,1.19-.61,2.35-.51,3.57.04,1.19.53,2.44.91,3.66,1.34.23.09.5.19.72.15.34-.06.66-.37.98-.34.32.02.6.42.94.49.24.05.68-.09.78-.27.3-.57.77-.55,1.05-.2.81,1.03,1.59.61,2.49.03.23.22.43.43.64.64.34-.11.67-.22,1.01-.32.29-.09.59-.15.91-.23,1.27.56,2.57,1.06,4.01.5.15-.06.37,0,.55.03,1.83.26,3.67.05,5.5.05.31,0,.61.08.92.12.61.09,1.21.18,1.83.25.49.06.98.11,1.47.15.86.06,1.72.12,2.59.15.43.02.88-.1,1.29-.01.92.19,1.84.14,2.75.04.45-.05.83-.05,1.25.11.21.08.55.09.7-.03.75-.6,1.54-.29,2.31-.15.3.05.59.18.88.28.53-.34.96-.68,1.69-.28.84.46.93.36,1.53-.41.48-.61,1.29-.96,1.45-1.83,0-.06.52-.14.62-.03.34.34.64.74.89,1.16.09.16-.03.44-.04.67-.02.36.13.61.47.69.4.09.58-.18.62-.51.07-.54.1-1.09.16-1.72.36.01.69.03,1.17.05-.17-.38-.29-.63-.42-.92,1.25-.7,2.65-.55,3.97-.55,1,0,1.93-.25,2.85-.16.08-.28.14-.4.13-.51-.02-.24-.08-.48-.13-.76-.23.17-.44.31-.74.52-.33-.72-.69-1.34-.38-2.11.7-.28.65.68,1.3.67.09-.08.31-.21.43-.39.13-.21.18-.51.5-.38.46.19.84.11,1.19-.22.21-.2.47-.19.62.05.07.11.01.33-.03.49-.1.38-.3.66-.71.77-.34.09-.68.24-1.1.4.12.43.13.82.32,1.09.15.21.52.34.79.34.31,0,.61-.27.56-.62-.14-.86.37-1.23,1.04-1.45.09-.75.17-1.4.26-2.04.47-.05.45.24.47.46.04.67.06,1.34.09,2.04.48.09.89.16,1.29.24,0,0,0,0,0,0,0-.01,0-.02,0-.03-.09-.13-.19-.26-.25-.4-.02-.03.12-.14.2-.21,0,0,.11.07.11.11,0,.17-.04.33-.06.5.01.02.02.03.03.05-.01,0-.02,0-.04,0-.25.49-.12.86.42.95.4.06.82-.01,1.48-.03-.88-.88-.53-1.77-.54-2.61.78.11,1.49.22,2.33.34.02.13.08.35.1.57.01.26.07.55.36.49.16-.03.27-.35.39-.54l.04.03c-.23-.25-.33-.51-.05-.92.91.25,1.8.19,2.78-.11.87-.27,1.92,0,2.94.05.38.74-.2,1.3-.31,1.93.86,1.19,1.25,1.4,2.42.95.86-.34,1.67-.3,2.54-.15.6.11,1.23.2,1.82.12,1.31-.19,2.59-.04,3.88.11.06,0,.14-.01.19.02,1.78.89,3.9.68,5.63,1.72.05.03.11.09.16.09,2.18-.21,3.82,1.63,5.97,1.59.28,0,.56.25.85.35.56.17,1.07.02,1.5-.38.21.96,1.12.55,1.69.9.26-.27.51-.52.76-.78.64.22,1.26.48,1.91.63.53.12,1.09.1,1.64.16.48.05.95.11,1.51.18.19-.26.43-.61.69-.98.17.05.35.08.51.15.33.15.65.35.99.47.63.21,1.07-.09,1.36-.62.48.02.43.82.99.66.27-.08.51-.27.79-.42.36.15.74.31,1.2.5.19-.31.35-.56.55-.88.69-.02,1.42-.05,2.18-.07.43.36.87.76,1.41,1.22.21-.29.37-.45.47-.65.44-.86.57-1,1.37-.72.4.14.66.1,1.02-.05.72-.31,1.44-.38,2.02.22.53-.24,1.03-.47,1.5-.69.35.3.63.53.89.75.16-.05.28-.06.37-.13q.98-.67,1.82.12c.08.08.2.13.38.25.68-.22,1.18-.97,2.09-.9.72.05,1.46-.22,2.19-.23.31,0,.63.29,1.03.49.5-.57,1.32-.56,2.1-.65l-.02.03c.17-.14.37-.42.51-.4.72.11,1.42.3,2.13.47.35-.22-.07,1.1.57.28.72.07,1.28-.46,1.91-.47.36-.67.69-1.29,1.03-1.92,0-.03,0-.06,0-.08-.04-.1-.08-.19-.1-.29-.01-.04.04-.1.07-.15.02.06.05.11.05.17,0,.09,0,.18-.01.27,0,.01,0,.03.01.04,0,.01-.01.02-.02.04h0c.35.13.7.24,1.04.36q.66-.52,1.29-1.98c-.18-.53-.38-.98-.48-1.45-.04-.17.14-.49.31-.57.31-.14.63,0,.74.35.09.28.09.59.15,1.01.93-.35,1.8-.69,2.78-1.06.4.56.78,1.09,1.16,1.61.06-.78.12-1.57.19-2.49.27-.1.64-.23,1.12-.41-.03-.32-.1-.68-.09-1.03.01-.34.11-.68.17-1.01-.24-.08-.46-.15-.67-.22,0-.46.4-.43.61-.62.21-.2.36-.47.55-.74.46.66,1.12.93,1.89,1,.68.06,1.35.16,2.03.24.92.1,1.88.02,2.44.88.59-.24.98-.41,1.42-.59.4.23.81.46,1.24.71q-1.21,1.28-2.73.57c-.18.29-.36.6-.53.88-.14.04-.26.12-.38.1-.48-.06-.97-.12-1.45-.22-.48-.1-.84.55-1.39.18-.15-.1-.53.12-.69.02-.92-.62-1.62-.03-2.31.41-.57.37-.58.83-.26,1.47.23.46.56.64,1.05.51.29-.08.56-.17.62-.18.56.07.23.95.92.53.07-.04.35.1.43.23.17.25.27.54.42.85,1.11-.03,2.33-1.08,3.22.4,1.27-.24,2.57-.72,3.66.36.76-.13,1.45-.55,2.19-.05.09.06.33-.1.51-.13.42-.07.85-.17,1.27-.17.64,0,1.23.51,1.94.19.16-.07.49.1.67.25.48.4,1.02.44,1.58.29.71-.19,1.4-.51,2.11,0,.11.08.38.04.54-.05.51-.27.98-.54,1.51-.01.08.08.34,0,.51-.04.6-.13,1.21-.26,1.8-.43.5-.14.98-.18,1.44.08.64.35,1.33.38,1.99.16,1.12-.36,2.33-.07,3.43-.57.2-.09.51-.1.72-.01.75.3,1.46.13,2.18-.07.61-.17,1.23-.19,1.8.18.44.29.91.3,1.42.26,1.11-.1,2.22-.15,3.33-.22.68-.05,1.37-.04,2.04-.16.81-.14,1.58-.26,2.39,0,.28.09.62.05.92.01,3.08-.44,6.19-.28,9.28-.34,1.36-.03,2.72-.1,4.08-.14.5-.01.99.01,1.48,0,.86-.01,1.73-.04,2.59-.06.37,0,.74-.03,1.12-.02,2.04.08,4.08.05,6.12-.18.85-.09,1.72.05,2.57.08.19.37.33.64.51.99,1.21.2,2.4-.11,3.55-.57.56-.23,1.14-.43,1.72-.58V1.38c-.23,0-.46.02-.69.05Zm-104.52,1.38s.05.11.03.14c-.02.04-.09.05-.14.07-.01-.05-.05-.11-.03-.14.02-.04.09-.05.14-.07Zm-1.45.25c.12.53-.1.71-.45.7-.3,0-.6-.07-.88-.17-.22-.08-.62,0-.59-.48.66-.01,1.3-.03,1.91-.04Zm-473.85-.04s-.12-.03-.14-.07c-.02-.03.02-.09.03-.14.05.02.12.03.14.07.02.03-.02.09-.04.14Zm2.67.56c-.28.1-.58.17-.88.17-.34.01-.56-.16-.45-.7.61.01,1.25.03,1.91.04.03.48-.37.4-.59.48Zm-47.21,10.36c-.14-.11-.29-.17-.29-.24,0-.09.1-.22.18-.26.09-.03.21.04.32.06-.07.14-.14.29-.22.44Zm6.36.17c-.08.05-.2.04-.31.04.05-.12.09-.26.17-.34.05-.05.2.02.3.04-.05.09-.09.21-.16.25Zm5.5-5.06c-.34-.56-.74-1.11-.83-2.04q1.16.5,1.85,1.87c-.57.44-.83.5-1.02.16Zm2.05-.28c-.05-.06-.09-.12-.14-.18.04-.02.07-.05.11-.07.03.03.06.08.08.12-.02.05-.03.09-.05.14Zm2.72,1.23s.08.06.12.09c-.02.05-.02.11-.05.13-.03.02-.09,0-.14-.01.02-.07.05-.14.08-.21Zm-1.76-1.25c-.03-.11-.06-.22-.09-.33.44-.28.88-.55,1.44-.91.11.45.19.78.29,1.18-.63.02-1.13.05-1.64.06Zm1.75,5.08c-.08-.06-.21-.11-.24-.19-.08-.22-.1-.46.29-.55.09.06.21.15.33.23-.13.17-.25.34-.38.5Zm1.06,6.5s-.07-.05-.11-.08c.04-.02.08-.06.13-.06.04,0,.07.05.11.08-.04.02-.08.04-.13.06Zm3.67-10.37s.06.1.08.15c-.03.04-.06.12-.09.13-.05,0-.1-.04-.16-.07.06-.07.11-.14.17-.21Zm-2.93-1.34c-.08-.47.25-.41.44-.46.16-.04.34-.02.51-.03.01.11.03.22.05.34-.33.05-.66.1-1,.15Zm1.48,7.85c-.16-.08-.28-.23-.48-.41.47-.47.71-.2.89.02.09.1.04.32.06.48-.16-.03-.33-.02-.47-.1Zm.37-8.22c.19-.11.37-.27.58-.33.06-.02.2.21.42.46-.31.1-.5.22-.7.21-.11,0-.21-.22-.31-.34Zm.97,17.53s-.02-.03-.03-.04c-.02,0-.04,0-.06.01-.08.02-.15.05-.23.08.04-.02.08-.05.12-.06.04-.01.08-.02.11-.02.03-.01.07-.03.1-.04,0,.02,0,.04-.02.07.16.21.31.42.47.66-.62.02-.54-.32-.47-.66Zm.45,2.94c-.05-.07-.11-.15-.16-.22.09-.02.18-.04.27-.06,0,.06.01.12.02.17-.04.04-.08.07-.13.11Zm1.47-18.92l.06-.1.05.11h-.11Zm4.7-2.23c-.07.03-.19-.06-.29-.09.04-.1.06-.25.13-.28.07-.03.19.06.29.09-.04.1-.06.24-.13.28Zm-.05-1.65c-.08.01-.18-.1-.27-.15.11-.08.22-.16.32-.24.12.08.21.13.3.19-.11.07-.22.18-.34.21Zm3.02,24.72s-.03-.07-.04-.12c.05-.01.1-.03.15-.04.01.04.03.08.04.12-.05.02-.1.04-.15.04Zm3.59.08c-.37,0-.51-.26-.45-.62.04-.23.07-.47.12-.75.76-.12.96.23,1.03.69.05.33-.32.69-.7.68Zm5.9-2.35s0-.07-.01-.11c.06.03.11.06.2.11-.1,0-.15.01-.19,0Zm24.21-21.71c-.03-.08-.06-.16-.08-.25,0,0,.12-.07.16-.05.09.04.17.11.26.18-.12.04-.22.08-.33.12Zm4.68-2.6c-.05-.01-.06-.17-.09-.26.06-.01.12-.05.16-.03.15.08.3.17.61.34-.35-.02-.52,0-.68-.05Zm1.56-1.08s-.02-.07-.04-.1c.05.01.11.03.19.05-.08.03-.12.04-.16.06Zm15.5,28.64q.34-.49,1.05-.09c-.33.03-.66.05-1.05.09Zm5.14-25.67c.11-.04.23-.07.35-.11-.11.05-.21.09-.32.14,0,.02,0,.03-.01.05.22.63.07,1.26-.06,2.09-.28-.94-.29-.96.06-2.09,0-.02,0-.05-.02-.07Zm-.62,3.36c.31-.31.42-.52.59-.58.45-.17.92-.28,1.67-.5-.43,1.23-1.23,1.05-2.26,1.08Zm6.77,14.52l.06-.13.06.13h-.12Zm3.36-10.17c-.29.2-.65.29-.96.42-.53-.62-.35-1.09.21-1.62.61.32,1.15.59,1.67.86-.15.7-.63.13-.91.33Zm3.02-1.68c-.08.1-.16.26-.3.37-.05.04-.21-.03-.3-.08-.03,0-.05-.12-.03-.16.11-.14.22-.29.36-.39.05-.04.18,0,.27.03.02,0,0,.11,0,.23Zm.97,1.85c-.1-.13-.23-.24-.28-.39-.02-.07.13-.28.17-.27.15.03.28.13.49.24-.17.18-.28.3-.38.42Zm.17-1.77c-.09-.04-.15-.17-.22-.25.08-.05.2-.16.22-.14.13.09.23.22.37.36-.17.02-.29.08-.38.04Zm2.04-3.76s-.11-.07-.11-.1c0-.11.04-.22.06-.33.08.07.19.13.23.23.02.04-.11.14-.18.2Zm1.77,14.87s-.07-.06-.11-.09c.08,0,.15.02.23.02-.04.03-.08.05-.12.07Zm.18-14.45c-.11,0-.23-.23-.58-.62.6-.06.94-.2,1.18-.09.68.29,1.29.23,1.92-.1.06-.03.26.16.37.28.02.01-.11.25-.19.26-.9.11-1.8.21-2.71.27Zm2.98,4.48c-.12.03-.23.05-.35.07.11-.03.21-.06.32-.1,0,0,.01-.02.02-.03-.01-.09-.03-.19-.04-.28.3.07.1.18.04.28,0,.02,0,.04,0,.05Zm2.09,18.9c-.07-.08-.15-.16-.22-.23.11-.04.22-.13.31-.12.07,0,.12.15.18.23-.09.04-.19.08-.28.12Zm3.21-23.37c.3-.04.42.15.38.42-.01.1-.12.19-.18.28-.16-.13-.32-.26-.49-.39.14-.16.21-.31.29-.31Zm-1.24.44c-.02.07-.04.14-.07.25-.03-.1-.05-.15-.07-.2.05-.01.09-.03.14-.04Zm1.62,4.04c.02-.05.04-.1.06-.16.03.07.07.14.09.21-.05-.02-.11-.04-.16-.05Zm-1.04-1.05c-.48.45.23,1.11-.45,1.38-.06-.02-.16-.02-.16-.06-.24-.86-.66-1.7-.3-2.83q1.02,1.01,1.88-.1c.65.15.57.8,1.08,1.29-.87.13-1.51.23-2.04.31Zm7.38-4.74c.05.09.1.18.19.33-.13.07-.26.16-.39.19-.03,0-.17-.23-.15-.26.09-.11.23-.19.35-.27Zm-1.67-.04c.37.37.22.6-.06.78-.14.09-.34.12-.52.12-.23,0-.46-.06-.69-.1,0-.12-.01-.24-.01-.35.44-.15.87-.3,1.28-.44Zm-2.79,5.97c-.08.03-.22-.03-.29-.09-.04-.04.01-.18.02-.27.15.02.3.04.47.07-.09.14-.13.27-.21.29Zm1-1.48c.52-.25.88-.6,1.71-.07-.76.03-1.17.05-1.71.07Zm-.48-1.84s0,.01,0,.02c0,0,0-.01-.01-.02-.22.07-.45.13-.74.22-.47-.66-.38-1.33-.01-2.05.57.19.12.62.28.88.18.3.32.63.48.95h0s0,0,0,0c.04-.36.13-.77.51-.86.63-.16,1.28-.24,1.93-.27.18,0,.38.28.56.42.31-.16.61-.31,1.07-.54-.17.54-.28.86-.38,1.18-1.23.54-2.46.42-3.69.07Zm4.48,2.25c-.42-.13-.83-.3-1.24-.45.02-.07.03-.15.05-.22.46.05.92.09,1.37.17.05,0,.12.22.09.3-.04.09-.21.22-.28.2Zm.7-6.03l.07.14h-.14l.07-.14Zm-.1,2.28c.08-.38.31-.52.67-.39.35.13.66.17,1.04-.05.52-.3.55-.25.98.41-1.09.76-1.39.76-2.69.03Zm3.48,3.81c-.53-.25-1.22-.33-1.03-1.2q1.41.34,1.03,1.2Zm1.71-.09c-.07.02-.23-.06-.27-.14-.04-.08,0-.26.05-.3.35-.21.71-.32,1.38-.02-.55.23-.85.36-1.16.46Zm4.22-3.72c-.02-.05-.06-.11-.06-.16,0-.05.05-.09.08-.14.08.06.16.11.23.17-.09.05-.17.09-.26.13Zm-.25-.92c-.31-.11-.51-.35-.26-.77.38-.01.8-.03,1.21-.05.03.13.11.26.08.35-.17.51-.58.61-1.03.46Zm11.43-1c.51-.9.55-.91,1.92-.35-.62.1-1.2.57-1.92.35Zm3.35.34s-.28-.06-.28-.09c0-.22,0-.47.1-.64.06-.11.3-.14.46-.14.07,0,.16.14.3.29-.19.2-.37.41-.58.59Zm18.37,23.66s-.09-.02-.13-.03c.01-.04.02-.1.04-.1.04,0,.09.02.13.03-.01.04-.02.1-.03.11Zm2.26-2.48q.25-.4.97-.1c-.29.33-.64.14-.97.1Zm3.38.02s-.03-.06-.04-.1c.04-.01.08-.02.13-.04.01.03.02.07.04.1-.04.01-.09.03-.13.03Zm19.05-17.8c.01.05.05.1.05.15,0,.05-.04.1-.06.15-.07-.06-.14-.11-.21-.17.07-.05.15-.09.22-.14Zm1.65,2.45c-.66.3-1.27.43-2,.07.7-.58,1.3-.93,2-.07Zm-.07,7.19c-.01.05-.03.11-.05.2-.04-.08-.05-.12-.07-.17.04,0,.08-.02.12-.03Zm-1.61-4.51c-.04.09-.07.17-.11.26-.05-.03-.12-.06-.13-.09-.01-.11,0-.22,0-.33.08.06.16.1.23.16Zm-1.14,4.03c.07.05.14.11.21.16-.03.04-.06.08-.08.12-.06-.05-.14-.1-.2-.16,0,0,.05-.08.07-.12Zm-2.98-6.92c.05.07.11.15.17.23-.02.05-.04.1-.06.15-.06-.08-.12-.16-.17-.25-.02-.03.04-.09.07-.13Zm-2.33-.72v.13s-.13-.06-.13-.06l.13-.07Zm-.04,1.16c.05.02.11.04.16.05-.06.06-.11.13-.18.16-.03.02-.1-.03-.15-.05.06-.05.12-.11.18-.16Zm-1.16,2.06s.07.02.11.03c-.01.04-.03.08-.04.12-.04-.01-.1-.02-.1-.03,0-.04.02-.08.04-.12Zm-3.26-3.8c.13-.08.29-.13.45-.16.04,0,.09.17.19.37-.24.03-.43.05-.62.07-.01-.1-.06-.26-.02-.28Zm-1.52,15.84l-.13.08v-.14s.13.06.13.06Zm-4.08,3.74c-.05.06-.21.11-.31.08-.5-.14-.65-.44-.43-.91,0,0-.01,0-.02-.01.01-.01.02-.02.03-.04-.16-.23-.42-.43-.47-.67-.07-.39,0-.8.01-1.21.34-.19.57-.02.69.29.22.57.28,1.13-.24,1.59h0s-.01.03-.02.05c.24.17.5.32.72.51.06.05.06.24,0,.31Zm17.49-1.08s-.11,0-.17-.01c.01-.1,0-.26.05-.28.15-.07.32-.08.73-.15-.34.25-.47.35-.61.44Zm-.17-1.15c-.06,0-.12,0-.18,0-.67-.1-1.01.31-1.26.84-1.04-.91-1.14-.97-1.86-1.05-.85-.09-1.08.23-.88,1.21-1.69.44-2.33.36-3.34-.49-1.66,1.1-3.46.6-5.27.48.1-.3.2-.58.3-.87-.83-.24-.64.59-.97.85-.11.05-.22.13-.33.13-.49.04-.98.06-1.47.08-.67.03-1.22-.03-1.29-.93-.02-.24-.51-.43-.81-.66.18-.41.35-.79.51-1.16.08-.03.14-.09.19-.07.69.22,1.43.1,2.1.24.61.13,1.17.61,1.8.76.13-.14.24-.2.29-.31.16-.25.25-.57.46-.74.15-.12.5-.12.7-.03.87.37,1.81-.22,2.67.27.31.18.71.21,1.16.34.22-.2.45-.52.76-.66.31-.13.74-.18,1.05-.07.73.25,1.41.61,2.34,1.03.24-.3.43-.64.71-.85.15-.12.52-.12.68,0,.11.08.04.43.05.74.01.01.09.12.19.15.29.07.59.1.95.15.05-.24.1-.41.11-.58,0-.17-.05-.34-.09-.65.43.1.76.22,1.1.24.28.02.58-.1.86-.15.05.18.12.3.11.4-.19,1.12-.32,1.26-1.35,1.36Zm1.52-14.5l.04-.11.05.11h-.1Zm.21-3.81l.08-.13.05.13h-.13Zm1.11-2.74s.08-.02.12-.03c.01.05.02.09.03.13-.07.01-.14.03-.21.03.02-.05.02-.1.05-.14Zm-.04,20.82c-.11-.06-.19-.27-.17-.41.02-.13.17-.23.26-.35.13.17.25.34.44.58-.26.1-.44.22-.53.18Zm.73-15.51c-.15-.05-.28-.15-.42-.22.09-.11.17-.23.26-.34.13.1.25.2.38.3-.09.12-.18.28-.22.27Zm2.61,17.4c-.01-.08-.02-.17-.03-.26.06.02.13.02.16.06.03.03.02.1.03.15-.05.02-.11.04-.16.05Zm.27-17.46c-.11-.2-.12-.44-.13-.67,0-.05.25-.17.27-.14.16.17.31.35.42.55.04.08-.04.3-.09.31-.16.03-.43.03-.47-.05Zm.68,1.09c-.08-.03-.11-.17-.17-.26.09-.05.21-.14.28-.12.07.02.11.17.16.26-.09.05-.21.15-.27.12Zm1.3-1.22s-.09-.03-.15-.05c.02-.05.03-.13.07-.15.03-.02.1.03.15.06-.02.05-.03.12-.07.15Zm1.6-2.49c-.13-.11-.26-.21-.36-.34-.02-.02.12-.17.22-.31.12.09.31.16.35.28.03.09-.13.24-.21.37Zm1.73,2.17c-.14-.08-.22-.27-.57-.76.52.21.72.25.83.36.11.1.12.29.18.44-.15,0-.33.03-.44-.04Zm1.31-3.04s-.29-.1-.29-.14c.03-.21.11-.42.17-.64.23.1.34.15.44.2-.11.2-.2.4-.33.58Zm2.28,2.89l.02-.07.09.04-.12.03Zm.65-3.14c-.09-.04-.17-.09-.25-.14,0,0,0,0,0,0,0,.09,0,.18,0,.27-.01-.1-.03-.21-.04-.31.02.01.03.02.05.03.06-.09.13-.19.21-.27.17-.18.37-.31.56-.04.06.08.09.23.05.31-.11.28-.33.26-.56.14Zm.67,3.15c-.08-.05-.16-.09-.24-.14.07-.06.13-.12.21-.16.03-.01.13.06.13.07-.02.08-.06.16-.1.23Zm27.15-6.54c-.02-.09-.04-.18-.04-.28,0-.02.11-.07.13-.06.07.05.12.13.18.2-.09.05-.18.09-.27.13Zm7.92,1.64c-.63.03-.75-.32-.69-.71.08-.46.42-.57,1.05-.31-.14.4-.26.73-.37,1.02Zm.95,1.64c-.09-.03-.19-.07-.28-.11.07-.06.15-.16.22-.16.09,0,.19.07.28.11-.08.05-.15.1-.22.16Zm3.27-1.21s-.07-.07-.11-.11c.09-.04.17-.1.26-.12.02,0,.07.07.1.11-.09.04-.17.09-.26.12Zm6.64,21.59s-.06-.1-.06-.14c0-.04.05-.08.09-.12.02.05.04.09.07.14-.03.04-.06.08-.09.12Zm2.57-20.73l-.06-.14h.12l-.06.14Zm10.49,25.36c-.12,0-.37-.19-.37-.29,0-.29.25-.4.51-.36.15.03.27.16.58.34-.34.16-.52.31-.71.32Zm27.04,0c-.2,0-.38-.16-.71-.32.3-.18.43-.31.58-.34.26-.04.51.07.51.36,0,.11-.25.29-.37.29Zm10.49-25.36l-.06-.14h.12l-.06.14Zm2.57,20.73s-.06-.08-.09-.12c.02-.05.04-.09.07-.14.03.04.08.08.09.12,0,.04-.04.09-.07.14Zm6.64-21.59c-.09-.03-.17-.08-.26-.12.04-.04.09-.12.11-.11.09.03.18.08.26.12-.04.04-.08.11-.11.11Zm3.28,1.21c-.08-.05-.15-.1-.23-.16.09-.04.19-.12.28-.11.07,0,.14.1.22.16-.09.03-.19.07-.28.11Zm.95-1.64c-.1-.29-.23-.62-.37-1.02.64-.26.97-.15,1.05.31.07.4-.05.74-.69.71Zm7.92-1.64c-.09-.04-.18-.09-.27-.13.06-.07.11-.15.18-.2.02-.01.13.04.13.06,0,.09-.02.18-.04.28Zm27.15,6.54c-.04-.08-.08-.16-.1-.23,0-.02.1-.08.13-.07.08.04.14.1.22.16-.08.04-.16.09-.24.14Zm.94-3.02c0-.09,0-.18,0-.27,0,0,0,0,0,0-.08.05-.17.1-.25.14-.23.11-.45.14-.56-.14-.03-.08,0-.24.05-.31.19-.26.39-.14.56.04.08.08.14.18.21.27.02-.01.03-.02.05-.03,0,.1-.02.21-.04.31Zm.27,2.98l.09-.04.02.07-.12-.03Zm2.4-2.86c-.12-.18-.22-.38-.33-.58.11-.05.21-.1.45-.2.06.23.13.43.17.64,0,.04-.27.15-.29.14Zm1.31,3.04c-.11.07-.29.03-.44.04.06-.15.07-.34.18-.44.11-.11.31-.14.83-.36-.35.5-.43.68-.57.76Zm1.73-2.17c-.08-.13-.24-.28-.21-.37.03-.12.22-.19.35-.28.1.14.24.29.22.31-.1.13-.23.23-.36.34Zm1.6,2.49s-.05-.1-.07-.15c.06-.02.12-.07.15-.06.04.02.05.1.07.15-.06.02-.12.07-.15.05Zm1.3,1.22c-.07.03-.18-.07-.28-.12.05-.09.08-.24.16-.26.07-.03.19.07.28.12-.06.09-.09.23-.17.26Zm.2-1.04c-.05,0-.13-.24-.09-.31.11-.2.26-.39.42-.55.02-.02.27.1.27.14-.01.23-.03.48-.13.67-.04.08-.31.08-.47.05Zm.74,17.41s-.1-.04-.15-.05c0-.05,0-.12.03-.15.04-.04.11-.04.16-.06-.01.09-.02.18-.04.26Zm3.18-22.74s.1,0,.12.03c.03.03.03.09.05.14-.07,0-.14-.02-.21-.03,0-.04.02-.09.03-.13Zm-.78,5.07c.13-.1.25-.2.38-.3.09.11.18.23.26.34-.14.08-.27.18-.42.22-.04.01-.12-.15-.22-.27Zm.95,15.78c-.09.05-.27-.08-.53-.18.19-.24.31-.41.44-.58.09.12.25.23.26.35.01.14-.07.35-.17.41Zm16.18-1.34v.14s-.15-.08-.15-.08l.15-.06Zm-2.11-15.94c.15.03.31.08.45.16.03.02-.01.18-.02.28-.19-.02-.39-.05-.62-.07.1-.2.16-.37.19-.37Zm-2.81,3.96s.03.08.03.12c0,.01-.06.02-.1.03-.02-.04-.03-.08-.04-.12.03,0,.07-.02.11-.03Zm-1.2-3.22l.13.07-.14.06v-.13Zm.04,1.16c.06.05.11.11.17.16-.05.02-.12.07-.15.05-.07-.03-.12-.11-.18-.16.05-.02.1-.04.16-.05Zm-2.37-.44s.08.1.06.13c-.04.09-.11.17-.17.25-.02-.05-.04-.1-.06-.15.05-.08.11-.16.17-.23Zm-2.98,6.92s.08.11.07.12c-.06.06-.13.11-.2.16-.03-.04-.05-.08-.08-.12.07-.05.14-.11.21-.16Zm-1.18-9.16c.08.05.15.09.22.14-.07.06-.14.11-.21.17-.02-.05-.06-.1-.06-.15,0-.05.04-.1.05-.15Zm.35,2.52c-.73.37-1.34.23-2-.07.7-.86,1.3-.51,2,.07Zm-.08,2.79s-.08.06-.13.09c-.04-.09-.08-.17-.11-.26.08-.05.15-.1.23-.16,0,.11.02.22,0,.33Zm-1.73,4.37s-.03.09-.07.17c-.02-.09-.04-.15-.05-.2.04.01.08.02.12.03Zm-1.17-9.69l.05-.13.08.13h-.13Zm.24,3.81l.05-.11.05.11h-.1Zm1.44,15.64c-.14-.09-.27-.19-.61-.44.41.07.59.08.74.15.04.02.03.18.04.28-.06,0-.13.04-.17.01Zm16.72-.9c-.06.9-.62.96-1.29.93-.48-.02-.98-.04-1.46-.08-.11,0-.23-.09-.34-.13-.32-.26-.14-1.09-.97-.85.11.29.2.57.31.87-1.81.12-3.62.63-5.27-.48-1.01.84-1.66.93-3.34.49.2-.98-.03-1.29-.88-1.21-.72.08-.83.14-1.86,1.05-.25-.53-.59-.94-1.26-.84-.06,0-.12.02-.18,0-1.03-.1-1.16-.23-1.35-1.36-.02-.1.05-.22.1-.4.28.06.58.17.86.15.34-.01.68-.14,1.1-.24-.04.32-.09.49-.09.65,0,.17.06.33.11.58.36-.06.66-.09.94-.15.1-.02.18-.14.19-.15.01-.31-.06-.66.05-.74.16-.12.53-.12.68,0,.28.22.47.55.71.85.93-.42,1.61-.78,2.34-1.03.31-.11.74-.06,1.05.07.31.13.54.46.76.66.46-.13.85-.17,1.16-.34.85-.49,1.8.11,2.66-.27.2-.08.55-.09.71.03.22.17.3.49.46.74.06.1.16.17.29.31.63-.15,1.19-.63,1.8-.76.67-.14,1.41-.02,2.1-.24.05-.02.12.03.19.07.16.37.33.75.51,1.16-.29.22-.79.42-.81.66Zm1.95.43c-.05.24-.3.44-.46.67.01.01.02.02.03.04,0,0-.01,0-.02.01.23.46.07.77-.43.91-.09.02-.25-.02-.31-.08-.05-.07-.05-.27,0-.31.23-.19.48-.34.72-.51,0-.02,0-.03-.02-.05h0c-.52-.46-.46-1.02-.24-1.59.12-.31.35-.48.69-.29.01.41.08.82,0,1.21Zm1.32-1.17s-.08-.02-.12-.03c.01-.03.02-.07.04-.1.04.01.08.02.13.04-.01.03-.02.1-.04.1Zm2.4-.12q.72-.3.97.1c-.33.04-.68.24-.97-.1Zm3.24,2.58s-.02-.07-.04-.11c.04,0,.09-.03.13-.03.02,0,.03.06.04.1-.05.01-.09.03-.13.03Zm18.37-23.66c-.21-.18-.39-.4-.58-.59.15-.15.23-.29.3-.29.16,0,.4.04.46.14.1.18.1.42.1.64,0,.03-.24.13-.28.09Zm1.43-.69c1.37-.56,1.41-.55,1.92.35-.72.22-1.29-.25-1.92-.35Zm13.1,2.27c-.08-.04-.17-.08-.25-.13.08-.06.15-.11.23-.17.03.05.08.09.08.14,0,.05-.04.1-.06.16Zm.25-.92c-.45.14-.86.05-1.04-.46-.03-.09.05-.23.08-.35.41.01.83.03,1.21.05.25.42.06.66-.25.77Zm4.25,4.5c-.04.08-.2.17-.27.14-.31-.1-.61-.23-1.16-.46.67-.3,1.04-.19,1.38.02.06.04.09.23.05.3Zm4.83-5.86l.07.14h-.14l.07-.14Zm-3.39,6.09q-.38-.86,1.03-1.2c.2.87-.5.95-1.03,1.2Zm.79-3.84c.43-.66.46-.71.99-.41.37.21.68.18,1.04.05.37-.12.59.02.68.39-1.3.73-1.61.73-2.7-.03Zm5.51-1.12c.41.14.84.29,1.28.44,0,.12-.01.24-.01.35-.23.04-.46.1-.69.1-.17,0-.37-.03-.52-.12-.28-.17-.43-.41-.06-.78Zm-1.67.04c.12.09.26.16.35.27.03.03-.12.26-.15.26-.13-.04-.26-.12-.38-.19.08-.15.14-.25.19-.33Zm-.53,4.86c-.07.02-.24-.11-.27-.2-.03-.09.04-.3.09-.3.45-.08.91-.12,1.37-.17.02.08.03.15.05.22-.41.16-.82.33-1.24.45Zm2.29-.47c.83-.53,1.19-.19,1.71.07-.55-.02-.95-.04-1.71-.07Zm2.99,1.46c-.06.07-.2.12-.29.09-.08-.02-.12-.16-.21-.29.18-.03.32-.05.47-.07,0,.09.07.23.02.27Zm-.04-3.01c-.29-.09-.52-.16-.75-.22,0,0,0,.01-.01.02,0,0,0-.01,0-.02-1.23.35-2.46.47-3.69-.07-.1-.32-.21-.65-.38-1.18.46.24.76.38,1.07.54.18-.15.38-.43.56-.42.65.03,1.31.11,1.93.27.38.1.47.5.51.86,0,0,0,0,.01,0,0,0,0,0,0,0,.16-.32.3-.64.48-.95.15-.26-.29-.7.28-.88.37.73.46,1.39,0,2.05Zm3.39-1.03c-.01.05-.03.1-.07.2-.03-.11-.05-.18-.07-.25.04.01.09.03.13.04Zm-1.37-.49c.08,0,.15.15.29.31-.16.13-.33.26-.49.39-.06-.09-.17-.18-.18-.28-.04-.27.08-.46.38-.42Zm-.54,4.54c.03-.07.06-.14.09-.21.02.05.04.1.07.16-.05.02-.1.04-.16.05Zm1.8.22s-.1.04-.16.06c-.68-.27.03-.93-.45-1.38-.53-.08-1.16-.18-2.04-.31.51-.5.43-1.15,1.08-1.29q.86,1.1,1.88.1c.35,1.13-.06,1.97-.31,2.83Zm1.95,18.62c-.09-.04-.19-.08-.28-.12.06-.08.12-.22.19-.23.1-.01.21.08.31.12-.07.08-.14.16-.22.23Zm2.09-18.9s0-.04,0-.05c-.06-.1-.26-.21.04-.28-.01.1-.03.19-.04.28,0,0,.02.02.02.03.11.04.21.07.32.1-.12-.02-.23-.05-.35-.07Zm3.15,9.97s-.08-.05-.12-.07c.07,0,.15-.01.22-.02-.03.03-.07.06-.1.09Zm-.18-14.45c-.91-.06-1.81-.16-2.71-.27-.08,0-.21-.25-.19-.26.11-.12.31-.31.37-.28.63.33,1.24.38,1.92.1.24-.1.59.04,1.19.09-.35.38-.47.62-.58.62Zm1.95-.42c-.07-.06-.19-.16-.17-.2.04-.09.14-.16.22-.23.03.11.06.22.06.33,0,.03-.11.1-.11.1Zm1.66,3.72c.14-.14.24-.27.37-.36.03-.02.15.09.22.14-.07.09-.12.22-.22.25-.08.04-.2-.02-.37-.04Zm.55,1.81c-.1-.12-.21-.23-.38-.42.21-.11.34-.21.49-.24.04,0,.2.2.17.27-.05.15-.18.26-.28.39Zm1.57-1.56c-.1.05-.25.12-.3.08-.14-.1-.22-.26-.29-.37,0-.11-.02-.22,0-.23.09-.03.22-.07.27-.03.14.11.25.25.36.39.02.03,0,.15-.02.16Zm3.39,1.82c-.31-.13-.68-.22-.97-.42-.28-.2-.76.37-.91-.33.52-.27,1.05-.55,1.66-.86.56.53.74,1,.21,1.62Zm2.28,9.75l.06-.13.06.13h-.12Zm6.26-17.88s0,.05-.02.07c.35,1.13.35,1.14.06,2.09-.14-.82-.28-1.45-.06-2.09,0-.01,0-.03-.02-.05-.1-.04-.21-.09-.31-.14.11.04.23.07.34.11Zm-1.63,2.29c.75.22,1.22.33,1.67.5.16.06.28.27.58.58-1.02-.03-1.83.16-2.25-1.08Zm5.72,23.29q.71-.4,1.06.09c-.39-.03-.73-.06-1.06-.09Zm16.56-28.55s-.08-.03-.16-.06c.09-.02.14-.03.2-.05-.01.03-.02.07-.04.1Zm1.57,1.08c-.16.04-.33.03-.68.05.31-.18.45-.27.61-.34.04-.02.11.02.16.03-.03.09-.04.25-.09.26Zm4.68,2.6c-.11-.04-.21-.08-.33-.12.09-.06.16-.14.25-.18.04-.02.16.04.16.05-.02.08-.05.17-.08.25Zm24.2,21.71s-.1,0-.19,0c.09-.05.14-.08.2-.11,0,.04,0,.11-.01.11Zm5.9,2.35c-.38,0-.75-.35-.71-.68.07-.45.28-.8,1.03-.69.05.28.08.52.12.75.06.36-.07.61-.45.62Zm3.58-.08s-.1-.02-.15-.04c.02-.04.03-.08.04-.12.05.02.1.03.15.04-.01.05-.03.12-.04.12Zm2.97-23.06c-.08-.04-.09-.18-.13-.28.1-.04.22-.13.29-.09.07.04.09.19.13.28-.1.03-.23.12-.29.09Zm.05-1.65c-.12-.02-.23-.13-.34-.21.09-.06.17-.11.3-.19.09.08.2.16.32.24-.09.06-.2.17-.27.15Zm4.54,3.9l.05-.11.05.1h-.1Zm1.92.15c.06.07.11.14.17.21-.05.03-.11.08-.16.07-.04,0-.07-.08-.09-.13.03-.05.06-.1.08-.15Zm-.35,18.77s-.08-.07-.13-.11c0-.06.02-.11.02-.17.09.02.18.04.27.06-.05.08-.11.15-.16.22Zm.54-2.97s-.04-.01-.05-.01c-.01.01-.02.03-.03.04.07.33.15.67-.47.66.16-.24.31-.45.47-.66,0-.02-.01-.04-.01-.07.03,0,.07.02.1.04.04,0,.07,0,.11.02.04.01.08.04.12.06-.08-.03-.15-.06-.23-.08Zm.57-17.16c-.18,0-.39-.11-.7-.21.22-.24.36-.48.43-.46.21.06.39.21.58.33-.1.12-.2.33-.31.34Zm.68,7.88c-.13.08-.31.07-.47.1.02-.17-.03-.38.06-.48.19-.22.42-.49.89-.02-.2.18-.33.33-.48.41Zm.49-8c.02-.11.03-.23.05-.34.17,0,.34-.01.51.03.2.05.52-.01.45.46-.34-.05-.67-.1-1-.15Zm1.74,11.86s-.08-.04-.13-.06c.04-.03.07-.07.11-.08.04,0,.09.04.12.06-.03.03-.07.05-.1.08Zm1.05-10.33c.03.07.05.14.07.21-.04,0-.11.03-.14.01-.03-.02-.03-.09-.05-.13.04-.03.08-.06.12-.09Zm.25,3.64c-.03.08-.16.13-.24.19-.13-.17-.25-.33-.38-.5.12-.09.25-.17.33-.23.38.09.36.32.29.55Zm1.51-4.89c-.51-.02-1.01-.04-1.64-.06.09-.4.17-.72.28-1.18.57.36,1,.63,1.44.91-.03.11-.06.22-.08.33Zm.96.02s-.04-.09-.05-.14c.02-.04.05-.08.08-.12.04.02.08.05.12.07-.05.06-.1.12-.14.18Zm2.05.28c-.2.33-.45.27-1.03-.16q.69-1.37,1.86-1.87c-.09.93-.49,1.48-.83,2.04Zm5.51,5.06c-.08-.05-.11-.16-.16-.25.11-.01.25-.08.3-.04.09.08.12.22.18.34-.11,0-.23,0-.31-.04Zm6.36-.17c-.08-.15-.15-.3-.22-.44.11-.02.24-.09.32-.06.09.04.19.17.19.26,0,.07-.15.13-.29.24Z"/>
  </g>
</svg>